<mxfile host="app.diagrams.net" modified="2024-03-12T20:34:37.276Z" agent="Mozilla/5.0 (Windows NT 10.0; Win64; x64) AppleWebKit/537.36 (KHTML, like Gecko) Chrome/122.0.0.0 Safari/537.36" etag="PLcZ5PBO_7ZSWZfeXQaZ" version="24.0.1" type="github" pages="6">
  <diagram id="izxrgOpZa0n6Jq345-g-" name="Esteira">
    <mxGraphModel dx="1860" dy="867" grid="1" gridSize="10" guides="1" tooltips="1" connect="1" arrows="1" fold="1" page="1" pageScale="1" pageWidth="827" pageHeight="1169" math="0" shadow="0">
      <root>
        <mxCell id="0" />
        <mxCell id="1" parent="0" />
        <mxCell id="ONIgFROlqLMezVSEWddZ-22" value="Empurrador" style="text;html=1;strokeColor=none;fillColor=none;align=center;verticalAlign=middle;whiteSpace=wrap;rounded=0;fontSize=20;" parent="1" vertex="1">
          <mxGeometry x="170" y="765" width="120" height="30" as="geometry" />
        </mxCell>
        <mxCell id="ONIgFROlqLMezVSEWddZ-23" value="" style="ellipse;html=1;shape=startState;fillColor=#000000;strokeColor=#ff0000;rounded=1;shadow=0;comic=0;labelBackgroundColor=none;fontFamily=Verdana;fontSize=12;fontColor=#000000;align=center;direction=south;" parent="1" vertex="1">
          <mxGeometry x="86.00000000000003" y="780" width="30" height="30" as="geometry" />
        </mxCell>
        <mxCell id="ONIgFROlqLMezVSEWddZ-24" value="0&lt;br&gt;Sem permissão para iniciar o ciclo" style="rounded=1;whiteSpace=wrap;html=1;arcSize=24;fillColor=#ffffc0;strokeColor=#ff0000;shadow=0;comic=0;labelBackgroundColor=none;fontFamily=Verdana;fontSize=12;fontColor=#000000;align=center;" parent="1" vertex="1">
          <mxGeometry x="41.00000000000003" y="840" width="120" height="60" as="geometry" />
        </mxCell>
        <mxCell id="ONIgFROlqLMezVSEWddZ-29" value="Iniciiou&lt;br&gt;ciclo" style="edgeStyle=orthogonalEdgeStyle;rounded=0;orthogonalLoop=1;jettySize=auto;html=1;" parent="1" source="ONIgFROlqLMezVSEWddZ-25" target="ONIgFROlqLMezVSEWddZ-28" edge="1">
          <mxGeometry relative="1" as="geometry" />
        </mxCell>
        <mxCell id="ONIgFROlqLMezVSEWddZ-25" value="1&lt;br&gt;Standby" style="rounded=1;whiteSpace=wrap;html=1;arcSize=24;fillColor=#ffffc0;strokeColor=#ff0000;shadow=0;comic=0;labelBackgroundColor=none;fontFamily=Verdana;fontSize=12;fontColor=#000000;align=center;" parent="1" vertex="1">
          <mxGeometry x="230.00000000000003" y="840" width="120" height="60" as="geometry" />
        </mxCell>
        <mxCell id="ONIgFROlqLMezVSEWddZ-26" value="Tem&lt;br&gt;perm." style="edgeStyle=orthogonalEdgeStyle;rounded=0;orthogonalLoop=1;jettySize=auto;html=1;" parent="1" source="ONIgFROlqLMezVSEWddZ-24" target="ONIgFROlqLMezVSEWddZ-25" edge="1">
          <mxGeometry relative="1" as="geometry" />
        </mxCell>
        <mxCell id="ONIgFROlqLMezVSEWddZ-27" style="edgeStyle=orthogonalEdgeStyle;html=1;labelBackgroundColor=none;endArrow=open;endSize=8;strokeColor=#ff0000;fontFamily=Verdana;fontSize=12;align=left;entryX=0.5;entryY=0;entryDx=0;entryDy=0;" parent="1" source="ONIgFROlqLMezVSEWddZ-23" target="ONIgFROlqLMezVSEWddZ-24" edge="1">
          <mxGeometry relative="1" as="geometry">
            <mxPoint x="190.00000000000003" y="565" as="targetPoint" />
          </mxGeometry>
        </mxCell>
        <mxCell id="ONIgFROlqLMezVSEWddZ-31" value="Sim" style="edgeStyle=orthogonalEdgeStyle;rounded=0;orthogonalLoop=1;jettySize=auto;html=1;entryX=0;entryY=0.5;entryDx=0;entryDy=0;" parent="1" source="ONIgFROlqLMezVSEWddZ-28" target="ONIgFROlqLMezVSEWddZ-32" edge="1">
          <mxGeometry relative="1" as="geometry">
            <mxPoint x="560" y="870" as="targetPoint" />
          </mxGeometry>
        </mxCell>
        <mxCell id="ONIgFROlqLMezVSEWddZ-41" value="Não" style="edgeStyle=orthogonalEdgeStyle;rounded=0;orthogonalLoop=1;jettySize=auto;html=1;exitX=0.5;exitY=1;exitDx=0;exitDy=0;entryX=0.5;entryY=0;entryDx=0;entryDy=0;" parent="1" source="ONIgFROlqLMezVSEWddZ-28" target="ONIgFROlqLMezVSEWddZ-45" edge="1">
          <mxGeometry relative="1" as="geometry">
            <mxPoint x="454" y="940" as="targetPoint" />
          </mxGeometry>
        </mxCell>
        <mxCell id="ONIgFROlqLMezVSEWddZ-28" value="Tem estator no empurr.?" style="rhombus;whiteSpace=wrap;html=1;" parent="1" vertex="1">
          <mxGeometry x="414" y="830" width="80" height="80" as="geometry" />
        </mxCell>
        <mxCell id="ONIgFROlqLMezVSEWddZ-34" value="Sim" style="edgeStyle=orthogonalEdgeStyle;rounded=0;orthogonalLoop=1;jettySize=auto;html=1;" parent="1" source="ONIgFROlqLMezVSEWddZ-32" target="ONIgFROlqLMezVSEWddZ-33" edge="1">
          <mxGeometry relative="1" as="geometry" />
        </mxCell>
        <mxCell id="ONIgFROlqLMezVSEWddZ-57" value="Não" style="edgeStyle=orthogonalEdgeStyle;rounded=0;orthogonalLoop=1;jettySize=auto;html=1;exitX=0.5;exitY=0;exitDx=0;exitDy=0;entryX=0.5;entryY=0;entryDx=0;entryDy=0;" parent="1" source="ONIgFROlqLMezVSEWddZ-32" target="ONIgFROlqLMezVSEWddZ-28" edge="1">
          <mxGeometry relative="1" as="geometry" />
        </mxCell>
        <mxCell id="ONIgFROlqLMezVSEWddZ-32" value="Tem permi. trecho 1?" style="rhombus;whiteSpace=wrap;html=1;" parent="1" vertex="1">
          <mxGeometry x="540" y="830" width="80" height="80" as="geometry" />
        </mxCell>
        <mxCell id="ONIgFROlqLMezVSEWddZ-58" value="Avançou" style="edgeStyle=orthogonalEdgeStyle;rounded=0;orthogonalLoop=1;jettySize=auto;html=1;exitX=0.5;exitY=1;exitDx=0;exitDy=0;entryX=0.5;entryY=0;entryDx=0;entryDy=0;" parent="1" source="ONIgFROlqLMezVSEWddZ-33" target="ONIgFROlqLMezVSEWddZ-35" edge="1">
          <mxGeometry relative="1" as="geometry" />
        </mxCell>
        <mxCell id="ONIgFROlqLMezVSEWddZ-33" value="Avança empurrador" style="rounded=1;whiteSpace=wrap;html=1;arcSize=24;fillColor=#ffffc0;strokeColor=#ff0000;shadow=0;comic=0;labelBackgroundColor=none;fontFamily=Verdana;fontSize=12;fontColor=#000000;align=center;" parent="1" vertex="1">
          <mxGeometry x="680" y="840" width="120" height="60" as="geometry" />
        </mxCell>
        <mxCell id="ONIgFROlqLMezVSEWddZ-59" style="edgeStyle=orthogonalEdgeStyle;rounded=0;orthogonalLoop=1;jettySize=auto;html=1;exitX=0.5;exitY=1;exitDx=0;exitDy=0;entryX=0.5;entryY=1;entryDx=0;entryDy=0;" parent="1" source="ONIgFROlqLMezVSEWddZ-35" target="ONIgFROlqLMezVSEWddZ-25" edge="1">
          <mxGeometry relative="1" as="geometry">
            <Array as="points">
              <mxPoint x="740" y="1150" />
              <mxPoint x="290" y="1150" />
            </Array>
          </mxGeometry>
        </mxCell>
        <mxCell id="ONIgFROlqLMezVSEWddZ-60" value="Recuou" style="edgeLabel;html=1;align=center;verticalAlign=middle;resizable=0;points=[];" parent="ONIgFROlqLMezVSEWddZ-59" vertex="1" connectable="0">
          <mxGeometry x="-0.8998" y="1" relative="1" as="geometry">
            <mxPoint as="offset" />
          </mxGeometry>
        </mxCell>
        <mxCell id="ONIgFROlqLMezVSEWddZ-35" value="Recua empurrador" style="rounded=1;whiteSpace=wrap;html=1;arcSize=24;fillColor=#ffffc0;strokeColor=#ff0000;shadow=0;comic=0;labelBackgroundColor=none;fontFamily=Verdana;fontSize=12;fontColor=#000000;align=center;" parent="1" vertex="1">
          <mxGeometry x="680" y="970" width="120" height="60" as="geometry" />
        </mxCell>
        <mxCell id="ONIgFROlqLMezVSEWddZ-47" value="Não" style="edgeStyle=orthogonalEdgeStyle;rounded=0;orthogonalLoop=1;jettySize=auto;html=1;" parent="1" source="ONIgFROlqLMezVSEWddZ-45" target="ONIgFROlqLMezVSEWddZ-46" edge="1">
          <mxGeometry relative="1" as="geometry" />
        </mxCell>
        <mxCell id="ONIgFROlqLMezVSEWddZ-55" value="Sim" style="edgeStyle=orthogonalEdgeStyle;rounded=0;orthogonalLoop=1;jettySize=auto;html=1;exitX=0;exitY=0.5;exitDx=0;exitDy=0;entryX=0;entryY=1;entryDx=0;entryDy=0;" parent="1" source="ONIgFROlqLMezVSEWddZ-45" target="ONIgFROlqLMezVSEWddZ-28" edge="1">
          <mxGeometry relative="1" as="geometry" />
        </mxCell>
        <mxCell id="ONIgFROlqLMezVSEWddZ-45" value="Empurrador recuado?" style="rhombus;whiteSpace=wrap;html=1;" parent="1" vertex="1">
          <mxGeometry x="414" y="940" width="80" height="80" as="geometry" />
        </mxCell>
        <mxCell id="ONIgFROlqLMezVSEWddZ-48" value="Sim" style="edgeStyle=orthogonalEdgeStyle;rounded=0;orthogonalLoop=1;jettySize=auto;html=1;exitX=1;exitY=0.5;exitDx=0;exitDy=0;entryX=0;entryY=1;entryDx=0;entryDy=0;" parent="1" source="ONIgFROlqLMezVSEWddZ-46" target="ONIgFROlqLMezVSEWddZ-32" edge="1">
          <mxGeometry relative="1" as="geometry">
            <Array as="points">
              <mxPoint x="520" y="1090" />
              <mxPoint x="520" y="890" />
            </Array>
          </mxGeometry>
        </mxCell>
        <mxCell id="ONIgFROlqLMezVSEWddZ-54" value="Não" style="edgeStyle=orthogonalEdgeStyle;rounded=0;orthogonalLoop=1;jettySize=auto;html=1;exitX=0;exitY=0.5;exitDx=0;exitDy=0;entryX=0;entryY=1;entryDx=0;entryDy=0;" parent="1" source="ONIgFROlqLMezVSEWddZ-46" target="ONIgFROlqLMezVSEWddZ-28" edge="1">
          <mxGeometry relative="1" as="geometry">
            <mxPoint x="360" y="1030" as="targetPoint" />
            <Array as="points">
              <mxPoint x="370" y="1090" />
              <mxPoint x="370" y="890" />
            </Array>
          </mxGeometry>
        </mxCell>
        <mxCell id="ONIgFROlqLMezVSEWddZ-46" value="Tem permis.est. entr?" style="rhombus;whiteSpace=wrap;html=1;" parent="1" vertex="1">
          <mxGeometry x="414" y="1050" width="80" height="80" as="geometry" />
        </mxCell>
        <mxCell id="q6xZsDLrpk0oR8_mfASB-1" value="&lt;font style=&quot;font-size: 14px;&quot;&gt;Esteira de entrada&lt;/font&gt;" style="swimlane;whiteSpace=wrap;html=1;startSize=30;" vertex="1" parent="1">
          <mxGeometry x="65" y="70" width="745" height="460" as="geometry">
            <mxRectangle x="115" y="1250" width="230" height="30" as="alternateBounds" />
          </mxGeometry>
        </mxCell>
        <mxCell id="GLf2NHUH9A1-FtGHiFys-8" value="&lt;font style=&quot;font-size: 14px;&quot;&gt;Sim&lt;/font&gt;" style="edgeStyle=orthogonalEdgeStyle;rounded=0;orthogonalLoop=1;jettySize=auto;html=1;exitX=1;exitY=0.5;exitDx=0;exitDy=0;entryX=0;entryY=0.5;entryDx=0;entryDy=0;" parent="q6xZsDLrpk0oR8_mfASB-1" source="dtB511hb-erAlPD388Ho-1" target="dtB511hb-erAlPD388Ho-4" edge="1">
          <mxGeometry relative="1" as="geometry">
            <mxPoint x="447.5" y="170" as="sourcePoint" />
            <mxPoint x="557.5" y="170" as="targetPoint" />
          </mxGeometry>
        </mxCell>
        <mxCell id="GLf2NHUH9A1-FtGHiFys-46" value="&lt;font style=&quot;font-size: 14px;&quot;&gt;Não&lt;/font&gt;" style="edgeStyle=orthogonalEdgeStyle;rounded=0;orthogonalLoop=1;jettySize=auto;html=1;exitX=0.5;exitY=0;exitDx=0;exitDy=0;entryX=0;entryY=0.5;entryDx=0;entryDy=0;" parent="q6xZsDLrpk0oR8_mfASB-1" source="dtB511hb-erAlPD388Ho-1" target="GLf2NHUH9A1-FtGHiFys-45" edge="1">
          <mxGeometry relative="1" as="geometry">
            <mxPoint x="427.5" y="250" as="sourcePoint" />
          </mxGeometry>
        </mxCell>
        <mxCell id="GLf2NHUH9A1-FtGHiFys-45" value="&lt;font style=&quot;font-size: 14px;&quot;&gt;Simula estator na entrada&lt;/font&gt;" style="rounded=1;whiteSpace=wrap;html=1;arcSize=24;fillColor=#ffffc0;strokeColor=#ff0000;shadow=0;comic=0;labelBackgroundColor=none;fontFamily=Verdana;fontSize=12;fontColor=#000000;align=center;" parent="q6xZsDLrpk0oR8_mfASB-1" vertex="1">
          <mxGeometry x="487.5" y="50" width="120" height="60" as="geometry" />
        </mxCell>
        <mxCell id="dtB511hb-erAlPD388Ho-6" style="edgeStyle=orthogonalEdgeStyle;rounded=0;orthogonalLoop=1;jettySize=auto;html=1;exitX=0.5;exitY=1;exitDx=0;exitDy=0;entryX=1;entryY=0.5;entryDx=0;entryDy=0;" edge="1" parent="q6xZsDLrpk0oR8_mfASB-1" source="q6xZsDLrpk0oR8_mfASB-88" target="GLf2NHUH9A1-FtGHiFys-15">
          <mxGeometry relative="1" as="geometry">
            <mxPoint x="658" y="380" as="sourcePoint" />
          </mxGeometry>
        </mxCell>
        <mxCell id="q6xZsDLrpk0oR8_mfASB-92" value="&lt;font style=&quot;font-size: 14px;&quot;&gt;Sim&lt;/font&gt;" style="edgeLabel;html=1;align=center;verticalAlign=middle;resizable=0;points=[];" vertex="1" connectable="0" parent="dtB511hb-erAlPD388Ho-6">
          <mxGeometry x="-0.7508" y="1" relative="1" as="geometry">
            <mxPoint as="offset" />
          </mxGeometry>
        </mxCell>
        <mxCell id="q6xZsDLrpk0oR8_mfASB-93" style="edgeStyle=orthogonalEdgeStyle;rounded=0;orthogonalLoop=1;jettySize=auto;html=1;exitX=0.5;exitY=1;exitDx=0;exitDy=0;entryX=0.5;entryY=0;entryDx=0;entryDy=0;" edge="1" parent="q6xZsDLrpk0oR8_mfASB-1" source="dtB511hb-erAlPD388Ho-4" target="q6xZsDLrpk0oR8_mfASB-88">
          <mxGeometry relative="1" as="geometry" />
        </mxCell>
        <mxCell id="q6xZsDLrpk0oR8_mfASB-94" value="&lt;font style=&quot;font-size: 14px;&quot;&gt;Em&lt;/font&gt;&lt;div&gt;&lt;font style=&quot;font-size: 14px;&quot;&gt;posição&lt;/font&gt;&lt;/div&gt;" style="edgeLabel;html=1;align=center;verticalAlign=middle;resizable=0;points=[];" vertex="1" connectable="0" parent="q6xZsDLrpk0oR8_mfASB-93">
          <mxGeometry x="-0.3859" y="3" relative="1" as="geometry">
            <mxPoint y="8" as="offset" />
          </mxGeometry>
        </mxCell>
        <mxCell id="dtB511hb-erAlPD388Ho-4" value="&lt;font style=&quot;font-size: 14px;&quot;&gt;Aguardando&lt;/font&gt;&lt;div&gt;&lt;span style=&quot;font-size: 14px;&quot;&gt;mesa e empurrador em posição&lt;/span&gt;&lt;/div&gt;" style="rounded=1;whiteSpace=wrap;html=1;arcSize=24;fillColor=#ffffc0;strokeColor=#ff0000;shadow=0;comic=0;labelBackgroundColor=none;fontFamily=Verdana;fontSize=12;fontColor=#000000;align=center;" vertex="1" parent="q6xZsDLrpk0oR8_mfASB-1">
          <mxGeometry x="597.5" y="125" width="120" height="90" as="geometry" />
        </mxCell>
        <mxCell id="dtB511hb-erAlPD388Ho-5" style="edgeStyle=orthogonalEdgeStyle;rounded=0;orthogonalLoop=1;jettySize=auto;html=1;exitX=1;exitY=0.5;exitDx=0;exitDy=0;entryX=0.5;entryY=0;entryDx=0;entryDy=0;" edge="1" parent="q6xZsDLrpk0oR8_mfASB-1" source="GLf2NHUH9A1-FtGHiFys-45" target="dtB511hb-erAlPD388Ho-4">
          <mxGeometry relative="1" as="geometry">
            <mxPoint x="657.5" y="220" as="targetPoint" />
          </mxGeometry>
        </mxCell>
        <mxCell id="dtB511hb-erAlPD388Ho-12" style="edgeStyle=orthogonalEdgeStyle;rounded=0;orthogonalLoop=1;jettySize=auto;html=1;exitX=0.5;exitY=0;exitDx=0;exitDy=0;entryX=0.25;entryY=1;entryDx=0;entryDy=0;" edge="1" parent="q6xZsDLrpk0oR8_mfASB-1" source="dtB511hb-erAlPD388Ho-9" target="dtB511hb-erAlPD388Ho-4">
          <mxGeometry relative="1" as="geometry">
            <Array as="points">
              <mxPoint x="98" y="250" />
              <mxPoint x="628" y="250" />
            </Array>
          </mxGeometry>
        </mxCell>
        <mxCell id="dtB511hb-erAlPD388Ho-13" value="&lt;font style=&quot;font-size: 14px;&quot;&gt;Desceu&lt;/font&gt;" style="edgeLabel;html=1;align=center;verticalAlign=middle;resizable=0;points=[];" vertex="1" connectable="0" parent="dtB511hb-erAlPD388Ho-12">
          <mxGeometry x="-0.5435" y="-1" relative="1" as="geometry">
            <mxPoint x="-30" y="49" as="offset" />
          </mxGeometry>
        </mxCell>
        <mxCell id="GLf2NHUH9A1-FtGHiFys-2" value="" style="ellipse;html=1;shape=startState;fillColor=#000000;strokeColor=#ff0000;rounded=1;shadow=0;comic=0;labelBackgroundColor=none;fontFamily=Verdana;fontSize=12;fontColor=#000000;align=center;direction=south;" parent="q6xZsDLrpk0oR8_mfASB-1" vertex="1">
          <mxGeometry x="62.50000000000003" y="65" width="30" height="30" as="geometry" />
        </mxCell>
        <mxCell id="GLf2NHUH9A1-FtGHiFys-5" value="&lt;font style=&quot;font-size: 14px;&quot;&gt;Aguardando comando&lt;/font&gt;" style="rounded=1;whiteSpace=wrap;html=1;arcSize=24;fillColor=#ffffc0;strokeColor=#ff0000;shadow=0;comic=0;labelBackgroundColor=none;fontFamily=Verdana;fontSize=12;fontColor=#000000;align=center;" parent="q6xZsDLrpk0oR8_mfASB-1" vertex="1">
          <mxGeometry x="45.00000000000003" y="140" width="120" height="60" as="geometry" />
        </mxCell>
        <mxCell id="GLf2NHUH9A1-FtGHiFys-7" style="edgeStyle=orthogonalEdgeStyle;html=1;labelBackgroundColor=none;endArrow=open;endSize=8;strokeColor=#ff0000;fontFamily=Verdana;fontSize=12;align=left;entryX=0.5;entryY=0;entryDx=0;entryDy=0;" parent="q6xZsDLrpk0oR8_mfASB-1" source="GLf2NHUH9A1-FtGHiFys-2" target="GLf2NHUH9A1-FtGHiFys-5" edge="1">
          <mxGeometry relative="1" as="geometry">
            <mxPoint x="115.00000000000003" y="-135" as="targetPoint" />
          </mxGeometry>
        </mxCell>
        <mxCell id="dtB511hb-erAlPD388Ho-1" value="&lt;font style=&quot;font-size: 14px;&quot;&gt;Tem estator&lt;/font&gt;&lt;div&gt;&lt;font style=&quot;font-size: 14px;&quot;&gt;nos sensores?&lt;/font&gt;&lt;/div&gt;" style="rhombus;whiteSpace=wrap;html=1;fontColor=#000000;fillColor=#ffffc0;strokeColor=#ff0000;" vertex="1" parent="q6xZsDLrpk0oR8_mfASB-1">
          <mxGeometry x="307.5" y="110" width="120" height="120" as="geometry" />
        </mxCell>
        <mxCell id="GLf2NHUH9A1-FtGHiFys-4" value="&lt;font style=&quot;font-size: 14px;&quot;&gt;Iniciou&lt;br&gt;ciclo&lt;/font&gt;" style="edgeStyle=orthogonalEdgeStyle;rounded=0;orthogonalLoop=1;jettySize=auto;html=1;exitX=1;exitY=0.5;exitDx=0;exitDy=0;entryX=0;entryY=0.5;entryDx=0;entryDy=0;" parent="q6xZsDLrpk0oR8_mfASB-1" source="GLf2NHUH9A1-FtGHiFys-5" target="dtB511hb-erAlPD388Ho-1" edge="1">
          <mxGeometry relative="1" as="geometry">
            <mxPoint x="367.5" y="170" as="targetPoint" />
          </mxGeometry>
        </mxCell>
        <mxCell id="GLf2NHUH9A1-FtGHiFys-15" value="&lt;font style=&quot;font-size: 14px;&quot;&gt;Subindo elevador&lt;/font&gt;" style="rounded=1;whiteSpace=wrap;html=1;arcSize=24;fillColor=#ffffc0;strokeColor=#ff0000;shadow=0;comic=0;labelBackgroundColor=none;fontFamily=Verdana;fontSize=12;fontColor=#000000;align=center;" parent="q6xZsDLrpk0oR8_mfASB-1" vertex="1">
          <mxGeometry x="455" y="380" width="120" height="60" as="geometry" />
        </mxCell>
        <mxCell id="GLf2NHUH9A1-FtGHiFys-37" value="&lt;font style=&quot;font-size: 14px;&quot;&gt;Transferindo estator para o empurrador&lt;/font&gt;" style="rounded=1;whiteSpace=wrap;html=1;arcSize=24;fillColor=#ffffc0;strokeColor=#ff0000;shadow=0;comic=0;labelBackgroundColor=none;fontFamily=Verdana;fontSize=12;fontColor=#000000;align=center;" parent="q6xZsDLrpk0oR8_mfASB-1" vertex="1">
          <mxGeometry x="255" y="380" width="120" height="60" as="geometry" />
        </mxCell>
        <mxCell id="GLf2NHUH9A1-FtGHiFys-38" value="&lt;font style=&quot;font-size: 14px;&quot;&gt;Subiu&lt;/font&gt;" style="edgeStyle=orthogonalEdgeStyle;rounded=0;orthogonalLoop=1;jettySize=auto;html=1;entryX=1;entryY=0.5;entryDx=0;entryDy=0;exitX=0;exitY=0.5;exitDx=0;exitDy=0;" parent="q6xZsDLrpk0oR8_mfASB-1" source="GLf2NHUH9A1-FtGHiFys-15" target="GLf2NHUH9A1-FtGHiFys-37" edge="1">
          <mxGeometry relative="1" as="geometry">
            <mxPoint x="498.5" y="410" as="sourcePoint" />
            <mxPoint x="301.5" y="410" as="targetPoint" />
          </mxGeometry>
        </mxCell>
        <mxCell id="dtB511hb-erAlPD388Ho-9" value="&lt;font style=&quot;font-size: 14px;&quot;&gt;Descendo elevador&lt;/font&gt;" style="rounded=1;whiteSpace=wrap;html=1;arcSize=24;fillColor=#ffffc0;strokeColor=#ff0000;shadow=0;comic=0;labelBackgroundColor=none;fontFamily=Verdana;fontSize=12;fontColor=#000000;align=center;" vertex="1" parent="q6xZsDLrpk0oR8_mfASB-1">
          <mxGeometry x="37.5" y="380" width="120" height="60" as="geometry" />
        </mxCell>
        <mxCell id="dtB511hb-erAlPD388Ho-10" value="" style="edgeStyle=orthogonalEdgeStyle;rounded=0;orthogonalLoop=1;jettySize=auto;html=1;" edge="1" parent="q6xZsDLrpk0oR8_mfASB-1" source="GLf2NHUH9A1-FtGHiFys-37" target="dtB511hb-erAlPD388Ho-9">
          <mxGeometry relative="1" as="geometry" />
        </mxCell>
        <mxCell id="dtB511hb-erAlPD388Ho-11" value="&lt;span style=&quot;font-size: 14px;&quot;&gt;Chegou&lt;/span&gt;" style="edgeLabel;html=1;align=center;verticalAlign=middle;resizable=0;points=[];" vertex="1" connectable="0" parent="dtB511hb-erAlPD388Ho-10">
          <mxGeometry x="0.12" y="-2" relative="1" as="geometry">
            <mxPoint x="10" as="offset" />
          </mxGeometry>
        </mxCell>
        <mxCell id="q6xZsDLrpk0oR8_mfASB-87" value="&lt;span style=&quot;font-size: 14px;&quot;&gt;Recebeu permissão&lt;/span&gt;" style="edgeLabel;html=1;align=center;verticalAlign=middle;resizable=0;points=[];" vertex="1" connectable="0" parent="q6xZsDLrpk0oR8_mfASB-1">
          <mxGeometry x="164.9967658728752" y="80" as="geometry">
            <mxPoint x="-7" y="2" as="offset" />
          </mxGeometry>
        </mxCell>
        <mxCell id="q6xZsDLrpk0oR8_mfASB-95" style="edgeStyle=orthogonalEdgeStyle;rounded=0;orthogonalLoop=1;jettySize=auto;html=1;exitX=0;exitY=0.5;exitDx=0;exitDy=0;entryX=0.75;entryY=0;entryDx=0;entryDy=0;" edge="1" parent="q6xZsDLrpk0oR8_mfASB-1" source="q6xZsDLrpk0oR8_mfASB-88" target="dtB511hb-erAlPD388Ho-9">
          <mxGeometry relative="1" as="geometry" />
        </mxCell>
        <mxCell id="q6xZsDLrpk0oR8_mfASB-96" value="&lt;font style=&quot;font-size: 14px;&quot;&gt;Não&lt;/font&gt;" style="edgeLabel;html=1;align=center;verticalAlign=middle;resizable=0;points=[];" vertex="1" connectable="0" parent="q6xZsDLrpk0oR8_mfASB-95">
          <mxGeometry x="-0.8365" relative="1" as="geometry">
            <mxPoint as="offset" />
          </mxGeometry>
        </mxCell>
        <mxCell id="q6xZsDLrpk0oR8_mfASB-88" value="&lt;span style=&quot;font-size: 14px;&quot;&gt;Tem estator&lt;/span&gt;&lt;div&gt;&lt;span style=&quot;font-size: 14px;&quot;&gt;na mesa?&lt;/span&gt;&lt;/div&gt;" style="rhombus;whiteSpace=wrap;html=1;fontColor=#000000;fillColor=#ffffc0;strokeColor=#ff0000;" vertex="1" parent="q6xZsDLrpk0oR8_mfASB-1">
          <mxGeometry x="607.5" y="290" width="100" height="100" as="geometry" />
        </mxCell>
        <mxCell id="q6xZsDLrpk0oR8_mfASB-84" style="edgeStyle=orthogonalEdgeStyle;rounded=0;orthogonalLoop=1;jettySize=auto;html=1;exitX=0.25;exitY=0;exitDx=0;exitDy=0;entryX=1;entryY=0.5;entryDx=0;entryDy=0;" edge="1" parent="1" source="q6xZsDLrpk0oR8_mfASB-1" target="q6xZsDLrpk0oR8_mfASB-86">
          <mxGeometry relative="1" as="geometry">
            <mxPoint x="1525" y="210" as="sourcePoint" />
          </mxGeometry>
        </mxCell>
        <mxCell id="q6xZsDLrpk0oR8_mfASB-85" value="&lt;font style=&quot;font-size: 14px;&quot;&gt;Sem permissão&lt;/font&gt;&lt;div&gt;&lt;font style=&quot;font-size: 14px;&quot;&gt;para ciclo&lt;/font&gt;&lt;/div&gt;" style="edgeLabel;html=1;align=center;verticalAlign=middle;resizable=0;points=[];" vertex="1" connectable="0" parent="q6xZsDLrpk0oR8_mfASB-84">
          <mxGeometry x="0.5481" y="2" relative="1" as="geometry">
            <mxPoint x="47" y="-2" as="offset" />
          </mxGeometry>
        </mxCell>
        <mxCell id="q6xZsDLrpk0oR8_mfASB-86" value="" style="ellipse;html=1;shape=endState;fillColor=#000000;strokeColor=#ff0000;" vertex="1" parent="1">
          <mxGeometry x="92" y="20" width="30" height="30" as="geometry" />
        </mxCell>
      </root>
    </mxGraphModel>
  </diagram>
  <diagram id="L5BntMaT5KIHpI3v8-da" name="GrampeamentoV2">
    <mxGraphModel dx="1969" dy="918" grid="1" gridSize="10" guides="1" tooltips="1" connect="1" arrows="1" fold="1" page="1" pageScale="1" pageWidth="827" pageHeight="1169" math="0" shadow="0">
      <root>
        <mxCell id="0" />
        <mxCell id="1" parent="0" />
        <mxCell id="iYzLhB0qEPxJf2x7pPCy-37" style="edgeStyle=orthogonalEdgeStyle;rounded=0;orthogonalLoop=1;jettySize=auto;html=1;exitX=0;exitY=0.25;exitDx=0;exitDy=0;entryX=0;entryY=0.5;entryDx=0;entryDy=0;" parent="1" source="uJ4McG1gYGhLAZSdG6iw-95" target="kTH6D9do1_uqzr2GqV5v-1" edge="1">
          <mxGeometry relative="1" as="geometry">
            <Array as="points">
              <mxPoint x="140" y="110" />
              <mxPoint x="70" y="110" />
              <mxPoint x="70" y="50" />
            </Array>
            <mxPoint x="170" y="55" as="targetPoint" />
          </mxGeometry>
        </mxCell>
        <mxCell id="iYzLhB0qEPxJf2x7pPCy-38" value="Bloqueia modo&lt;br&gt;automático" style="edgeLabel;html=1;align=center;verticalAlign=middle;resizable=0;points=[];" parent="iYzLhB0qEPxJf2x7pPCy-37" vertex="1" connectable="0">
          <mxGeometry x="0.1062" y="3" relative="1" as="geometry">
            <mxPoint x="-49" y="-33" as="offset" />
          </mxGeometry>
        </mxCell>
        <mxCell id="uJ4McG1gYGhLAZSdG6iw-95" value="Ciclo Automático Grampeamento" style="swimlane;whiteSpace=wrap;html=1;" parent="1" vertex="1">
          <mxGeometry x="140" y="100" width="1180" height="970" as="geometry">
            <mxRectangle x="140" y="100" width="230" height="30" as="alternateBounds" />
          </mxGeometry>
        </mxCell>
        <mxCell id="uJ4McG1gYGhLAZSdG6iw-4" value="3&lt;br&gt;Aguardando posicionar&lt;br&gt;mesa" style="rounded=1;whiteSpace=wrap;html=1;arcSize=24;fillColor=#ffffc0;strokeColor=#ff0000;shadow=0;comic=0;labelBackgroundColor=none;fontFamily=Verdana;fontSize=12;fontColor=#000000;align=center;" parent="uJ4McG1gYGhLAZSdG6iw-95" vertex="1">
          <mxGeometry x="610" y="90" width="120" height="60" as="geometry" />
        </mxCell>
        <mxCell id="PQt4EGH9tKSYyopVbUSj-27" value="" style="edgeStyle=orthogonalEdgeStyle;rounded=0;orthogonalLoop=1;jettySize=auto;html=1;entryX=0;entryY=0;entryDx=0;entryDy=0;" parent="uJ4McG1gYGhLAZSdG6iw-95" source="uJ4McG1gYGhLAZSdG6iw-6" target="PQt4EGH9tKSYyopVbUSj-24" edge="1">
          <mxGeometry relative="1" as="geometry">
            <Array as="points">
              <mxPoint x="500" y="655" />
              <mxPoint x="500" y="655" />
            </Array>
          </mxGeometry>
        </mxCell>
        <mxCell id="PQt4EGH9tKSYyopVbUSj-28" value="Avançou" style="edgeLabel;html=1;align=center;verticalAlign=middle;resizable=0;points=[];" parent="PQt4EGH9tKSYyopVbUSj-27" vertex="1" connectable="0">
          <mxGeometry x="0.1341" y="2" relative="1" as="geometry">
            <mxPoint as="offset" />
          </mxGeometry>
        </mxCell>
        <mxCell id="uJ4McG1gYGhLAZSdG6iw-6" value="11&lt;br&gt;Avançando&lt;br&gt;esticadores" style="rounded=1;whiteSpace=wrap;html=1;arcSize=24;fillColor=#ffffc0;strokeColor=#ff0000;shadow=0;comic=0;labelBackgroundColor=none;fontFamily=Verdana;fontSize=12;fontColor=#000000;align=center;" parent="uJ4McG1gYGhLAZSdG6iw-95" vertex="1">
          <mxGeometry x="298" y="625" width="120" height="60" as="geometry" />
        </mxCell>
        <mxCell id="uJ4McG1gYGhLAZSdG6iw-8" value="Desceu" style="edgeStyle=orthogonalEdgeStyle;rounded=0;orthogonalLoop=1;jettySize=auto;html=1;exitX=1;exitY=0;exitDx=0;exitDy=0;" parent="uJ4McG1gYGhLAZSdG6iw-95" source="SGoKiT9LM2ifL4jeXZmw-55" target="uJ4McG1gYGhLAZSdG6iw-6" edge="1">
          <mxGeometry relative="1" as="geometry">
            <mxPoint x="178" y="656.0588235294119" as="sourcePoint" />
            <Array as="points">
              <mxPoint x="180" y="655" />
            </Array>
          </mxGeometry>
        </mxCell>
        <mxCell id="uJ4McG1gYGhLAZSdG6iw-10" value="Sim" style="edgeStyle=orthogonalEdgeStyle;rounded=0;orthogonalLoop=1;jettySize=auto;html=1;startArrow=none;exitX=0.5;exitY=1;exitDx=0;exitDy=0;entryX=0.5;entryY=0;entryDx=0;entryDy=0;" parent="uJ4McG1gYGhLAZSdG6iw-95" source="uJ4McG1gYGhLAZSdG6iw-36" target="SGoKiT9LM2ifL4jeXZmw-54" edge="1">
          <mxGeometry relative="1" as="geometry">
            <mxPoint x="118" y="565" as="sourcePoint" />
            <mxPoint x="118" y="626" as="targetPoint" />
          </mxGeometry>
        </mxCell>
        <mxCell id="uJ4McG1gYGhLAZSdG6iw-13" value="6&lt;br&gt;Descendo&lt;br&gt;compactação" style="rounded=1;whiteSpace=wrap;html=1;arcSize=24;fillColor=#ffffc0;strokeColor=#ff0000;shadow=0;comic=0;labelBackgroundColor=none;fontFamily=Verdana;fontSize=12;fontColor=#000000;align=center;" parent="uJ4McG1gYGhLAZSdG6iw-95" vertex="1">
          <mxGeometry x="60" y="280" width="120" height="60" as="geometry" />
        </mxCell>
        <mxCell id="uJ4McG1gYGhLAZSdG6iw-22" style="edgeStyle=orthogonalEdgeStyle;rounded=0;orthogonalLoop=1;jettySize=auto;html=1;exitX=0.5;exitY=1;exitDx=0;exitDy=0;entryX=0.5;entryY=0;entryDx=0;entryDy=0;" parent="uJ4McG1gYGhLAZSdG6iw-95" source="uJ4McG1gYGhLAZSdG6iw-24" target="uJ4McG1gYGhLAZSdG6iw-13" edge="1">
          <mxGeometry relative="1" as="geometry">
            <Array as="points">
              <mxPoint x="1090" y="190" />
              <mxPoint x="120" y="190" />
            </Array>
            <mxPoint x="100" y="350" as="targetPoint" />
          </mxGeometry>
        </mxCell>
        <mxCell id="uJ4McG1gYGhLAZSdG6iw-23" value="Sim" style="edgeLabel;html=1;align=center;verticalAlign=middle;resizable=0;points=[];" parent="uJ4McG1gYGhLAZSdG6iw-22" vertex="1" connectable="0">
          <mxGeometry x="-0.7131" y="3" relative="1" as="geometry">
            <mxPoint as="offset" />
          </mxGeometry>
        </mxCell>
        <mxCell id="uJ4McG1gYGhLAZSdG6iw-24" value="Medição&lt;br&gt;habilitada?" style="rhombus;whiteSpace=wrap;html=1;" parent="uJ4McG1gYGhLAZSdG6iw-95" vertex="1">
          <mxGeometry x="1050" y="79.5" width="80" height="80" as="geometry" />
        </mxCell>
        <mxCell id="uJ4McG1gYGhLAZSdG6iw-7" value="Avançou" style="edgeStyle=orthogonalEdgeStyle;rounded=0;orthogonalLoop=1;jettySize=auto;html=1;startArrow=none;exitX=0;exitY=0;exitDx=0;exitDy=0;" parent="uJ4McG1gYGhLAZSdG6iw-95" source="PQt4EGH9tKSYyopVbUSj-11" target="uJ4McG1gYGhLAZSdG6iw-13" edge="1">
          <mxGeometry relative="1" as="geometry">
            <mxPoint x="500" y="240" as="sourcePoint" />
            <Array as="points">
              <mxPoint x="438" y="310" />
            </Array>
          </mxGeometry>
        </mxCell>
        <mxCell id="uJ4McG1gYGhLAZSdG6iw-21" value="Não" style="edgeStyle=orthogonalEdgeStyle;rounded=0;orthogonalLoop=1;jettySize=auto;html=1;exitX=1;exitY=0.5;exitDx=0;exitDy=0;entryX=0.25;entryY=0;entryDx=0;entryDy=0;" parent="uJ4McG1gYGhLAZSdG6iw-95" source="uJ4McG1gYGhLAZSdG6iw-24" target="PQt4EGH9tKSYyopVbUSj-10" edge="1">
          <mxGeometry relative="1" as="geometry">
            <mxPoint x="450" y="220" as="targetPoint" />
            <Array as="points">
              <mxPoint x="1150" y="119" />
              <mxPoint x="1150" y="220" />
              <mxPoint x="468" y="220" />
            </Array>
          </mxGeometry>
        </mxCell>
        <mxCell id="uJ4McG1gYGhLAZSdG6iw-29" value="Pacote&lt;br&gt;aprovado?" style="rhombus;whiteSpace=wrap;html=1;" parent="uJ4McG1gYGhLAZSdG6iw-95" vertex="1">
          <mxGeometry x="580" y="390" width="80" height="80" as="geometry" />
        </mxCell>
        <mxCell id="uJ4McG1gYGhLAZSdG6iw-30" value="Sim" style="edgeStyle=orthogonalEdgeStyle;rounded=0;orthogonalLoop=1;jettySize=auto;html=1;" parent="uJ4McG1gYGhLAZSdG6iw-95" source="uJ4McG1gYGhLAZSdG6iw-33" target="uJ4McG1gYGhLAZSdG6iw-29" edge="1">
          <mxGeometry relative="1" as="geometry" />
        </mxCell>
        <mxCell id="uJ4McG1gYGhLAZSdG6iw-31" style="edgeStyle=orthogonalEdgeStyle;rounded=0;orthogonalLoop=1;jettySize=auto;html=1;exitX=0.5;exitY=1;exitDx=0;exitDy=0;entryX=0.75;entryY=0;entryDx=0;entryDy=0;" parent="uJ4McG1gYGhLAZSdG6iw-95" source="uJ4McG1gYGhLAZSdG6iw-33" target="SGoKiT9LM2ifL4jeXZmw-54" edge="1">
          <mxGeometry relative="1" as="geometry">
            <mxPoint x="148" y="626" as="targetPoint" />
            <Array as="points">
              <mxPoint x="480" y="550" />
              <mxPoint x="150" y="550" />
            </Array>
          </mxGeometry>
        </mxCell>
        <mxCell id="uJ4McG1gYGhLAZSdG6iw-32" value="Não" style="edgeLabel;html=1;align=center;verticalAlign=middle;resizable=0;points=[];" parent="uJ4McG1gYGhLAZSdG6iw-31" vertex="1" connectable="0">
          <mxGeometry x="-0.2332" y="-1" relative="1" as="geometry">
            <mxPoint x="106" y="-52" as="offset" />
          </mxGeometry>
        </mxCell>
        <mxCell id="uJ4McG1gYGhLAZSdG6iw-33" value="Medição&lt;br&gt;habilitada?" style="rhombus;whiteSpace=wrap;html=1;" parent="uJ4McG1gYGhLAZSdG6iw-95" vertex="1">
          <mxGeometry x="438" y="390" width="80" height="80" as="geometry" />
        </mxCell>
        <mxCell id="uJ4McG1gYGhLAZSdG6iw-28" value="Sim" style="edgeStyle=orthogonalEdgeStyle;rounded=0;orthogonalLoop=1;jettySize=auto;html=1;entryX=0;entryY=0.5;entryDx=0;entryDy=0;" parent="uJ4McG1gYGhLAZSdG6iw-95" source="uJ4McG1gYGhLAZSdG6iw-29" target="PQt4EGH9tKSYyopVbUSj-6" edge="1">
          <mxGeometry relative="1" as="geometry">
            <mxPoint x="740" y="400" as="targetPoint" />
          </mxGeometry>
        </mxCell>
        <mxCell id="PQt4EGH9tKSYyopVbUSj-3" style="edgeStyle=orthogonalEdgeStyle;rounded=0;orthogonalLoop=1;jettySize=auto;html=1;exitX=1;exitY=0.5;exitDx=0;exitDy=0;entryX=0;entryY=0.25;entryDx=0;entryDy=0;" parent="uJ4McG1gYGhLAZSdG6iw-95" source="uJ4McG1gYGhLAZSdG6iw-36" target="PQt4EGH9tKSYyopVbUSj-2" edge="1">
          <mxGeometry relative="1" as="geometry" />
        </mxCell>
        <mxCell id="PQt4EGH9tKSYyopVbUSj-4" value="Não" style="edgeLabel;html=1;align=center;verticalAlign=middle;resizable=0;points=[];" parent="PQt4EGH9tKSYyopVbUSj-3" vertex="1" connectable="0">
          <mxGeometry x="-0.0027" y="-3" relative="1" as="geometry">
            <mxPoint as="offset" />
          </mxGeometry>
        </mxCell>
        <mxCell id="uJ4McG1gYGhLAZSdG6iw-36" value="Já mediu?" style="rhombus;whiteSpace=wrap;html=1;" parent="uJ4McG1gYGhLAZSdG6iw-95" vertex="1">
          <mxGeometry x="80" y="449" width="80" height="80" as="geometry" />
        </mxCell>
        <mxCell id="uJ4McG1gYGhLAZSdG6iw-12" value="Desceu" style="edgeStyle=orthogonalEdgeStyle;rounded=0;orthogonalLoop=1;jettySize=auto;html=1;" parent="uJ4McG1gYGhLAZSdG6iw-95" source="uJ4McG1gYGhLAZSdG6iw-13" target="uJ4McG1gYGhLAZSdG6iw-36" edge="1">
          <mxGeometry relative="1" as="geometry" />
        </mxCell>
        <mxCell id="uJ4McG1gYGhLAZSdG6iw-37" value="Não" style="edgeStyle=orthogonalEdgeStyle;rounded=0;orthogonalLoop=1;jettySize=auto;html=1;exitX=0.5;exitY=1;exitDx=0;exitDy=0;entryX=0.75;entryY=0;entryDx=0;entryDy=0;" parent="uJ4McG1gYGhLAZSdG6iw-95" source="uJ4McG1gYGhLAZSdG6iw-29" target="uJ4McG1gYGhLAZSdG6iw-65" edge="1">
          <mxGeometry x="-0.7938" relative="1" as="geometry">
            <Array as="points">
              <mxPoint x="620" y="510" />
              <mxPoint x="1130" y="510" />
              <mxPoint x="1130" y="830" />
              <mxPoint x="388" y="830" />
            </Array>
            <mxPoint x="620" y="550" as="sourcePoint" />
            <mxPoint as="offset" />
          </mxGeometry>
        </mxCell>
        <mxCell id="uJ4McG1gYGhLAZSdG6iw-38" style="edgeStyle=orthogonalEdgeStyle;rounded=0;orthogonalLoop=1;jettySize=auto;html=1;exitX=0;exitY=0.5;exitDx=0;exitDy=0;entryX=0;entryY=0.5;entryDx=0;entryDy=0;" parent="uJ4McG1gYGhLAZSdG6iw-95" source="uJ4McG1gYGhLAZSdG6iw-66" target="SGoKiT9LM2ifL4jeXZmw-46" edge="1">
          <mxGeometry relative="1" as="geometry">
            <Array as="points">
              <mxPoint x="20" y="900" />
              <mxPoint x="20" y="119" />
            </Array>
            <mxPoint x="180" y="180" as="targetPoint" />
          </mxGeometry>
        </mxCell>
        <mxCell id="uJ4McG1gYGhLAZSdG6iw-40" value="Operar" style="edgeStyle=orthogonalEdgeStyle;rounded=0;orthogonalLoop=1;jettySize=auto;html=1;entryX=0;entryY=0.5;entryDx=0;entryDy=0;startArrow=none;exitX=1;exitY=0.5;exitDx=0;exitDy=0;" parent="uJ4McG1gYGhLAZSdG6iw-95" source="SGoKiT9LM2ifL4jeXZmw-46" target="uJ4McG1gYGhLAZSdG6iw-42" edge="1">
          <mxGeometry relative="1" as="geometry">
            <mxPoint x="350" y="120" as="sourcePoint" />
            <mxPoint x="580" y="120" as="targetPoint" />
          </mxGeometry>
        </mxCell>
        <mxCell id="uJ4McG1gYGhLAZSdG6iw-41" value="Posicionaou" style="edgeStyle=orthogonalEdgeStyle;rounded=0;orthogonalLoop=1;jettySize=auto;html=1;" parent="uJ4McG1gYGhLAZSdG6iw-95" source="uJ4McG1gYGhLAZSdG6iw-42" target="uJ4McG1gYGhLAZSdG6iw-4" edge="1">
          <mxGeometry relative="1" as="geometry" />
        </mxCell>
        <mxCell id="uJ4McG1gYGhLAZSdG6iw-42" value="2&lt;br&gt;Posicionando&lt;br&gt;cabeçotes" style="rounded=1;whiteSpace=wrap;html=1;arcSize=24;fillColor=#ffffc0;strokeColor=#ff0000;shadow=0;comic=0;labelBackgroundColor=none;fontFamily=Verdana;fontSize=12;fontColor=#000000;align=center;" parent="uJ4McG1gYGhLAZSdG6iw-95" vertex="1">
          <mxGeometry x="390" y="90" width="120" height="60" as="geometry" />
        </mxCell>
        <mxCell id="uJ4McG1gYGhLAZSdG6iw-3" value="posicionou" style="edgeStyle=orthogonalEdgeStyle;rounded=0;orthogonalLoop=1;jettySize=auto;html=1;entryX=0;entryY=0;entryDx=0;entryDy=0;" parent="uJ4McG1gYGhLAZSdG6iw-95" source="uJ4McG1gYGhLAZSdG6iw-4" target="SGoKiT9LM2ifL4jeXZmw-50" edge="1">
          <mxGeometry relative="1" as="geometry">
            <mxPoint x="839.9999999999995" y="119.47058823529403" as="targetPoint" />
            <Array as="points">
              <mxPoint x="800" y="120" />
              <mxPoint x="800" y="120" />
            </Array>
          </mxGeometry>
        </mxCell>
        <mxCell id="uJ4McG1gYGhLAZSdG6iw-45" value="Não" style="edgeStyle=orthogonalEdgeStyle;rounded=0;orthogonalLoop=1;jettySize=auto;html=1;exitX=1;exitY=0.5;exitDx=0;exitDy=0;entryX=0.5;entryY=0;entryDx=0;entryDy=0;" parent="uJ4McG1gYGhLAZSdG6iw-95" source="uJ4McG1gYGhLAZSdG6iw-46" target="PQt4EGH9tKSYyopVbUSj-10" edge="1">
          <mxGeometry x="-0.8873" relative="1" as="geometry">
            <mxPoint as="offset" />
            <mxPoint x="670" y="255" as="targetPoint" />
            <Array as="points">
              <mxPoint x="1060" y="430" />
              <mxPoint x="1060" y="240" />
              <mxPoint x="498" y="240" />
            </Array>
          </mxGeometry>
        </mxCell>
        <mxCell id="PQt4EGH9tKSYyopVbUSj-20" style="edgeStyle=orthogonalEdgeStyle;rounded=0;orthogonalLoop=1;jettySize=auto;html=1;exitX=0.5;exitY=0;exitDx=0;exitDy=0;entryX=1;entryY=0.25;entryDx=0;entryDy=0;" parent="uJ4McG1gYGhLAZSdG6iw-95" source="uJ4McG1gYGhLAZSdG6iw-46" target="SGoKiT9LM2ifL4jeXZmw-19" edge="1">
          <mxGeometry relative="1" as="geometry" />
        </mxCell>
        <mxCell id="PQt4EGH9tKSYyopVbUSj-21" value="Sim" style="edgeLabel;html=1;align=center;verticalAlign=middle;resizable=0;points=[];" parent="PQt4EGH9tKSYyopVbUSj-20" vertex="1" connectable="0">
          <mxGeometry x="-0.4553" y="1" relative="1" as="geometry">
            <mxPoint as="offset" />
          </mxGeometry>
        </mxCell>
        <mxCell id="uJ4McG1gYGhLAZSdG6iw-46" value="Já fez o 1°&lt;br&gt;ciclo?" style="rhombus;whiteSpace=wrap;html=1;" parent="uJ4McG1gYGhLAZSdG6iw-95" vertex="1">
          <mxGeometry x="960" y="390" width="80" height="80" as="geometry" />
        </mxCell>
        <mxCell id="uJ4McG1gYGhLAZSdG6iw-34" value="Subiu" style="edgeStyle=orthogonalEdgeStyle;rounded=0;orthogonalLoop=1;jettySize=auto;html=1;exitX=1;exitY=0.5;exitDx=0;exitDy=0;" parent="uJ4McG1gYGhLAZSdG6iw-95" source="PQt4EGH9tKSYyopVbUSj-6" target="uJ4McG1gYGhLAZSdG6iw-46" edge="1">
          <mxGeometry relative="1" as="geometry">
            <mxPoint x="860" y="400" as="sourcePoint" />
          </mxGeometry>
        </mxCell>
        <mxCell id="uJ4McG1gYGhLAZSdG6iw-51" value="Já fez o 2°&lt;br&gt;ciclo?" style="rhombus;whiteSpace=wrap;html=1;" parent="uJ4McG1gYGhLAZSdG6iw-95" vertex="1">
          <mxGeometry x="898" y="615" width="80" height="80" as="geometry" />
        </mxCell>
        <mxCell id="uJ4McG1gYGhLAZSdG6iw-70" style="edgeStyle=orthogonalEdgeStyle;rounded=0;orthogonalLoop=1;jettySize=auto;html=1;exitX=1;exitY=0.5;exitDx=0;exitDy=0;entryX=0;entryY=0.5;entryDx=0;entryDy=0;" parent="uJ4McG1gYGhLAZSdG6iw-95" target="uJ4McG1gYGhLAZSdG6iw-51" edge="1">
          <mxGeometry relative="1" as="geometry">
            <mxPoint x="638" y="656" as="sourcePoint" />
          </mxGeometry>
        </mxCell>
        <mxCell id="uJ4McG1gYGhLAZSdG6iw-71" value="Avançou" style="edgeLabel;html=1;align=center;verticalAlign=middle;resizable=0;points=[];" parent="uJ4McG1gYGhLAZSdG6iw-70" vertex="1" connectable="0">
          <mxGeometry x="-0.1969" relative="1" as="geometry">
            <mxPoint as="offset" />
          </mxGeometry>
        </mxCell>
        <mxCell id="uJ4McG1gYGhLAZSdG6iw-53" value="15&lt;br&gt;Sobe com&amp;nbsp;&lt;br&gt;pacote" style="rounded=1;whiteSpace=wrap;html=1;arcSize=24;fillColor=#ffffc0;strokeColor=#ff0000;shadow=0;comic=0;labelBackgroundColor=none;fontFamily=Verdana;fontSize=12;fontColor=#000000;align=center;" parent="uJ4McG1gYGhLAZSdG6iw-95" vertex="1">
          <mxGeometry x="743" y="746" width="120" height="60" as="geometry" />
        </mxCell>
        <mxCell id="uJ4McG1gYGhLAZSdG6iw-54" value="Sim" style="edgeStyle=orthogonalEdgeStyle;rounded=0;orthogonalLoop=1;jettySize=auto;html=1;exitX=0;exitY=0.5;exitDx=0;exitDy=0;entryX=1;entryY=0.5;entryDx=0;entryDy=0;" parent="uJ4McG1gYGhLAZSdG6iw-95" source="uJ4McG1gYGhLAZSdG6iw-55" target="uJ4McG1gYGhLAZSdG6iw-53" edge="1">
          <mxGeometry relative="1" as="geometry" />
        </mxCell>
        <mxCell id="uJ4McG1gYGhLAZSdG6iw-55" value="Mandril&lt;br&gt;aberto?" style="rhombus;whiteSpace=wrap;html=1;" parent="uJ4McG1gYGhLAZSdG6iw-95" vertex="1">
          <mxGeometry x="978" y="736" width="80" height="80" as="geometry" />
        </mxCell>
        <mxCell id="uJ4McG1gYGhLAZSdG6iw-49" value="Sim" style="edgeStyle=orthogonalEdgeStyle;rounded=0;orthogonalLoop=1;jettySize=auto;html=1;exitX=1;exitY=0.5;exitDx=0;exitDy=0;entryX=1;entryY=0.5;entryDx=0;entryDy=0;" parent="uJ4McG1gYGhLAZSdG6iw-95" source="uJ4McG1gYGhLAZSdG6iw-51" target="uJ4McG1gYGhLAZSdG6iw-55" edge="1">
          <mxGeometry relative="1" as="geometry">
            <mxPoint as="offset" />
          </mxGeometry>
        </mxCell>
        <mxCell id="uJ4McG1gYGhLAZSdG6iw-56" value="Recuou" style="edgeStyle=orthogonalEdgeStyle;rounded=0;orthogonalLoop=1;jettySize=auto;html=1;exitX=0.5;exitY=0;exitDx=0;exitDy=0;entryX=0.5;entryY=1;entryDx=0;entryDy=0;" parent="uJ4McG1gYGhLAZSdG6iw-95" source="uJ4McG1gYGhLAZSdG6iw-57" target="PQt4EGH9tKSYyopVbUSj-7" edge="1">
          <mxGeometry relative="1" as="geometry">
            <mxPoint x="800" y="430" as="targetPoint" />
          </mxGeometry>
        </mxCell>
        <mxCell id="uJ4McG1gYGhLAZSdG6iw-57" value="14&lt;br&gt;Recua facas&lt;br&gt;e rolos" style="rounded=1;whiteSpace=wrap;html=1;arcSize=24;fillColor=#ffffc0;strokeColor=#ff0000;shadow=0;comic=0;labelBackgroundColor=none;fontFamily=Verdana;fontSize=12;fontColor=#000000;align=center;" parent="uJ4McG1gYGhLAZSdG6iw-95" vertex="1">
          <mxGeometry x="743" y="540" width="120" height="60" as="geometry" />
        </mxCell>
        <mxCell id="uJ4McG1gYGhLAZSdG6iw-68" style="edgeStyle=orthogonalEdgeStyle;rounded=0;orthogonalLoop=1;jettySize=auto;html=1;exitX=0.5;exitY=0;exitDx=0;exitDy=0;entryX=1;entryY=0.5;entryDx=0;entryDy=0;" parent="uJ4McG1gYGhLAZSdG6iw-95" source="uJ4McG1gYGhLAZSdG6iw-51" target="uJ4McG1gYGhLAZSdG6iw-57" edge="1">
          <mxGeometry relative="1" as="geometry" />
        </mxCell>
        <mxCell id="uJ4McG1gYGhLAZSdG6iw-69" value="Não" style="edgeLabel;html=1;align=center;verticalAlign=middle;resizable=0;points=[];" parent="uJ4McG1gYGhLAZSdG6iw-68" vertex="1" connectable="0">
          <mxGeometry x="0.0546" y="-1" relative="1" as="geometry">
            <mxPoint as="offset" />
          </mxGeometry>
        </mxCell>
        <mxCell id="uJ4McG1gYGhLAZSdG6iw-52" value="Suiu" style="edgeStyle=orthogonalEdgeStyle;rounded=0;orthogonalLoop=1;jettySize=auto;html=1;" parent="uJ4McG1gYGhLAZSdG6iw-95" source="uJ4McG1gYGhLAZSdG6iw-53" edge="1">
          <mxGeometry relative="1" as="geometry">
            <mxPoint x="638" y="776" as="targetPoint" />
          </mxGeometry>
        </mxCell>
        <mxCell id="uJ4McG1gYGhLAZSdG6iw-58" value="Recuou" style="edgeStyle=orthogonalEdgeStyle;rounded=0;orthogonalLoop=1;jettySize=auto;html=1;exitX=0;exitY=0.5;exitDx=0;exitDy=0;entryX=1;entryY=0.25;entryDx=0;entryDy=0;" parent="uJ4McG1gYGhLAZSdG6iw-95" source="PQt4EGH9tKSYyopVbUSj-29" target="PQt4EGH9tKSYyopVbUSj-35" edge="1">
          <mxGeometry relative="1" as="geometry">
            <mxPoint x="518" y="776" as="sourcePoint" />
            <mxPoint x="418" y="776" as="targetPoint" />
          </mxGeometry>
        </mxCell>
        <mxCell id="uJ4McG1gYGhLAZSdG6iw-60" value="Desceu" style="edgeStyle=orthogonalEdgeStyle;rounded=0;orthogonalLoop=1;jettySize=auto;html=1;exitX=0;exitY=0.25;exitDx=0;exitDy=0;entryX=1;entryY=0.25;entryDx=0;entryDy=0;" parent="uJ4McG1gYGhLAZSdG6iw-95" source="PQt4EGH9tKSYyopVbUSj-35" target="PQt4EGH9tKSYyopVbUSj-36" edge="1">
          <mxGeometry relative="1" as="geometry">
            <mxPoint x="298" y="776" as="sourcePoint" />
            <mxPoint x="180" y="776.0588235294119" as="targetPoint" />
          </mxGeometry>
        </mxCell>
        <mxCell id="uJ4McG1gYGhLAZSdG6iw-65" value="19&lt;br&gt;Sobe compactação&lt;br&gt;e rolagem" style="rounded=1;whiteSpace=wrap;html=1;arcSize=24;fillColor=#ffffc0;strokeColor=#ff0000;shadow=0;comic=0;labelBackgroundColor=none;fontFamily=Verdana;fontSize=12;fontColor=#000000;align=center;" parent="uJ4McG1gYGhLAZSdG6iw-95" vertex="1">
          <mxGeometry x="298" y="870" width="120" height="60" as="geometry" />
        </mxCell>
        <mxCell id="uJ4McG1gYGhLAZSdG6iw-62" value="Soltou" style="edgeStyle=orthogonalEdgeStyle;rounded=0;orthogonalLoop=1;jettySize=auto;html=1;entryX=0.5;entryY=0;entryDx=0;entryDy=0;exitX=0.5;exitY=1;exitDx=0;exitDy=0;" parent="uJ4McG1gYGhLAZSdG6iw-95" source="PQt4EGH9tKSYyopVbUSj-37" target="uJ4McG1gYGhLAZSdG6iw-65" edge="1">
          <mxGeometry relative="1" as="geometry">
            <Array as="points">
              <mxPoint x="120" y="830" />
              <mxPoint x="358" y="830" />
            </Array>
            <mxPoint x="120" y="806" as="sourcePoint" />
          </mxGeometry>
        </mxCell>
        <mxCell id="uJ4McG1gYGhLAZSdG6iw-66" value="20&lt;br&gt;Aguardando fim&lt;br&gt;de ciclo (posição inicial)" style="rounded=1;whiteSpace=wrap;html=1;arcSize=24;fillColor=#ffffc0;strokeColor=#ff0000;shadow=0;comic=0;labelBackgroundColor=none;fontFamily=Verdana;fontSize=12;fontColor=#000000;align=center;" parent="uJ4McG1gYGhLAZSdG6iw-95" vertex="1">
          <mxGeometry x="60" y="870" width="120" height="60" as="geometry" />
        </mxCell>
        <mxCell id="uJ4McG1gYGhLAZSdG6iw-64" value="Subiu" style="edgeStyle=orthogonalEdgeStyle;rounded=0;orthogonalLoop=1;jettySize=auto;html=1;" parent="uJ4McG1gYGhLAZSdG6iw-95" source="uJ4McG1gYGhLAZSdG6iw-65" target="uJ4McG1gYGhLAZSdG6iw-66" edge="1">
          <mxGeometry relative="1" as="geometry" />
        </mxCell>
        <mxCell id="PQt4EGH9tKSYyopVbUSj-19" value="" style="edgeStyle=orthogonalEdgeStyle;rounded=0;orthogonalLoop=1;jettySize=auto;html=1;entryX=1;entryY=0.5;entryDx=0;entryDy=0;exitX=0;exitY=0.5;exitDx=0;exitDy=0;" parent="uJ4McG1gYGhLAZSdG6iw-95" source="SGoKiT9LM2ifL4jeXZmw-19" target="PQt4EGH9tKSYyopVbUSj-10" edge="1">
          <mxGeometry relative="1" as="geometry">
            <mxPoint x="625" y="310" as="sourcePoint" />
          </mxGeometry>
        </mxCell>
        <mxCell id="PQt4EGH9tKSYyopVbUSj-22" value="Posicionou" style="edgeLabel;html=1;align=center;verticalAlign=middle;resizable=0;points=[];" parent="PQt4EGH9tKSYyopVbUSj-19" vertex="1" connectable="0">
          <mxGeometry x="-0.2282" y="2" relative="1" as="geometry">
            <mxPoint as="offset" />
          </mxGeometry>
        </mxCell>
        <mxCell id="SGoKiT9LM2ifL4jeXZmw-48" style="edgeStyle=orthogonalEdgeStyle;rounded=0;orthogonalLoop=1;jettySize=auto;html=1;exitX=0.5;exitY=0;exitDx=0;exitDy=0;entryX=0;entryY=0.25;entryDx=0;entryDy=0;" parent="uJ4McG1gYGhLAZSdG6iw-95" source="iYzLhB0qEPxJf2x7pPCy-31" target="SGoKiT9LM2ifL4jeXZmw-45" edge="1">
          <mxGeometry relative="1" as="geometry" />
        </mxCell>
        <mxCell id="iYzLhB0qEPxJf2x7pPCy-31" value="" style="ellipse;html=1;shape=startState;fillColor=#000000;strokeColor=#ff0000;rounded=1;shadow=0;comic=0;labelBackgroundColor=none;fontFamily=Verdana;fontSize=12;fontColor=#000000;align=center;direction=south;" parent="uJ4McG1gYGhLAZSdG6iw-95" vertex="1">
          <mxGeometry x="80" y="60" width="30" height="30" as="geometry" />
        </mxCell>
        <mxCell id="SGoKiT9LM2ifL4jeXZmw-19" value="9&#xa;Aguarda posicionar&#xa;mandril" style="swimlane;fontStyle=1;align=center;verticalAlign=middle;childLayout=stackLayout;horizontal=1;startSize=50;horizontalStack=0;resizeParent=0;resizeLast=1;container=0;fontColor=#000000;collapsible=0;rounded=1;arcSize=18;strokeColor=#ff0000;fillColor=#ffffc0;swimlaneFillColor=#ffffc0;dropTarget=0;" parent="uJ4McG1gYGhLAZSdG6iw-95" vertex="1">
          <mxGeometry x="740" y="265" width="120" height="90" as="geometry" />
        </mxCell>
        <mxCell id="SGoKiT9LM2ifL4jeXZmw-20" value="+&amp;nbsp; Recua esticadores" style="text;html=1;strokeColor=none;fillColor=none;align=center;verticalAlign=middle;spacingLeft=4;spacingRight=4;whiteSpace=wrap;overflow=hidden;rotatable=0;fontColor=#000000;" parent="SGoKiT9LM2ifL4jeXZmw-19" vertex="1">
          <mxGeometry y="50" width="120" height="40" as="geometry" />
        </mxCell>
        <mxCell id="SGoKiT9LM2ifL4jeXZmw-45" value="1&#xa;Aguarda comando" style="swimlane;fontStyle=1;align=center;verticalAlign=middle;childLayout=stackLayout;horizontal=1;startSize=40;horizontalStack=0;resizeParent=0;resizeLast=1;container=0;fontColor=#000000;collapsible=0;rounded=1;arcSize=13;strokeColor=#ff0000;fillColor=#ffffc0;swimlaneFillColor=#ffffc0;dropTarget=0;" parent="uJ4McG1gYGhLAZSdG6iw-95" vertex="1">
          <mxGeometry x="180" y="50" width="140" height="120" as="geometry" />
        </mxCell>
        <mxCell id="SGoKiT9LM2ifL4jeXZmw-46" value="+&amp;nbsp; Recua compactação&lt;br&gt;+ Recua rolagem&lt;br&gt;+ Aguarda start&lt;br&gt;+ Libera mov. mesa" style="text;html=1;strokeColor=none;fillColor=none;align=center;verticalAlign=middle;spacingLeft=4;spacingRight=4;whiteSpace=wrap;overflow=hidden;rotatable=0;fontColor=#000000;" parent="SGoKiT9LM2ifL4jeXZmw-45" vertex="1">
          <mxGeometry y="40" width="140" height="80" as="geometry" />
        </mxCell>
        <mxCell id="SGoKiT9LM2ifL4jeXZmw-49" value="4&#xa;Recuando&#xa;esticadores" style="swimlane;fontStyle=1;align=center;verticalAlign=middle;childLayout=stackLayout;horizontal=1;startSize=50;horizontalStack=0;resizeParent=0;resizeLast=1;container=0;fontColor=#000000;collapsible=0;rounded=1;arcSize=8;strokeColor=#ff0000;fillColor=#ffffc0;swimlaneFillColor=#ffffc0;dropTarget=0;" parent="uJ4McG1gYGhLAZSdG6iw-95" vertex="1">
          <mxGeometry x="830" y="69.5" width="140" height="80.5" as="geometry" />
        </mxCell>
        <mxCell id="SGoKiT9LM2ifL4jeXZmw-50" value="+ Bloqueia mov. mesa" style="text;html=1;strokeColor=none;fillColor=none;align=center;verticalAlign=middle;spacingLeft=4;spacingRight=4;whiteSpace=wrap;overflow=hidden;rotatable=0;fontColor=#000000;" parent="SGoKiT9LM2ifL4jeXZmw-49" vertex="1">
          <mxGeometry y="50" width="140" height="30.5" as="geometry" />
        </mxCell>
        <mxCell id="SGoKiT9LM2ifL4jeXZmw-52" style="edgeStyle=orthogonalEdgeStyle;rounded=0;orthogonalLoop=1;jettySize=auto;html=1;exitX=1;exitY=0;exitDx=0;exitDy=0;entryX=0;entryY=0.5;entryDx=0;entryDy=0;" parent="uJ4McG1gYGhLAZSdG6iw-95" source="SGoKiT9LM2ifL4jeXZmw-50" target="uJ4McG1gYGhLAZSdG6iw-24" edge="1">
          <mxGeometry relative="1" as="geometry">
            <Array as="points">
              <mxPoint x="990" y="120" />
              <mxPoint x="990" y="120" />
            </Array>
          </mxGeometry>
        </mxCell>
        <mxCell id="SGoKiT9LM2ifL4jeXZmw-53" value="Recuou" style="edgeLabel;html=1;align=center;verticalAlign=middle;resizable=0;points=[];" parent="SGoKiT9LM2ifL4jeXZmw-52" vertex="1" connectable="0">
          <mxGeometry x="-0.3" y="4" relative="1" as="geometry">
            <mxPoint as="offset" />
          </mxGeometry>
        </mxCell>
        <mxCell id="SGoKiT9LM2ifL4jeXZmw-54" value="10&#xa;Descendo rolagem" style="swimlane;fontStyle=1;align=center;verticalAlign=middle;childLayout=stackLayout;horizontal=1;startSize=34;horizontalStack=0;resizeParent=0;resizeLast=1;container=0;fontColor=#000000;collapsible=0;rounded=1;arcSize=14;strokeColor=#ff0000;fillColor=#ffffc0;swimlaneFillColor=#ffffc0;dropTarget=0;" parent="uJ4McG1gYGhLAZSdG6iw-95" vertex="1">
          <mxGeometry x="60" y="616" width="120" height="94" as="geometry" />
        </mxCell>
        <mxCell id="SGoKiT9LM2ifL4jeXZmw-55" value="+&amp;nbsp; Desliga esticadores&lt;br&gt;+Recua facas" style="text;html=1;strokeColor=none;fillColor=none;align=center;verticalAlign=middle;spacingLeft=4;spacingRight=4;whiteSpace=wrap;overflow=hidden;rotatable=0;fontColor=#000000;" parent="SGoKiT9LM2ifL4jeXZmw-54" vertex="1">
          <mxGeometry y="34" width="120" height="60" as="geometry" />
        </mxCell>
        <mxCell id="PQt4EGH9tKSYyopVbUSj-1" value="7&#xa;Medindo pacote" style="swimlane;fontStyle=1;align=center;verticalAlign=middle;childLayout=stackLayout;horizontal=1;startSize=34;horizontalStack=0;resizeParent=0;resizeLast=1;container=0;fontColor=#000000;collapsible=0;rounded=1;arcSize=14;strokeColor=#ff0000;fillColor=#ffffc0;swimlaneFillColor=#ffffc0;dropTarget=0;" parent="uJ4McG1gYGhLAZSdG6iw-95" vertex="1">
          <mxGeometry x="240" y="395" width="120" height="70" as="geometry" />
        </mxCell>
        <mxCell id="PQt4EGH9tKSYyopVbUSj-2" value="+&amp;nbsp; Salva tamanho&lt;br&gt;+ Aprova ou reprova" style="text;html=1;strokeColor=none;fillColor=none;align=center;verticalAlign=middle;spacingLeft=4;spacingRight=4;whiteSpace=wrap;overflow=hidden;rotatable=0;fontColor=#000000;" parent="PQt4EGH9tKSYyopVbUSj-1" vertex="1">
          <mxGeometry y="34" width="120" height="36" as="geometry" />
        </mxCell>
        <mxCell id="PQt4EGH9tKSYyopVbUSj-5" value="Mediu" style="edgeStyle=orthogonalEdgeStyle;rounded=0;orthogonalLoop=1;jettySize=auto;html=1;exitX=1;exitY=0;exitDx=0;exitDy=0;entryX=0;entryY=0.5;entryDx=0;entryDy=0;" parent="uJ4McG1gYGhLAZSdG6iw-95" source="PQt4EGH9tKSYyopVbUSj-2" target="uJ4McG1gYGhLAZSdG6iw-33" edge="1">
          <mxGeometry relative="1" as="geometry">
            <Array as="points">
              <mxPoint x="405" y="430" />
            </Array>
          </mxGeometry>
        </mxCell>
        <mxCell id="PQt4EGH9tKSYyopVbUSj-6" value="8&#xa;Subindo para iniciar&#xa;grampeamento" style="swimlane;fontStyle=1;align=center;verticalAlign=middle;childLayout=stackLayout;horizontal=1;startSize=50;horizontalStack=0;resizeParent=0;resizeLast=1;container=0;fontColor=#000000;collapsible=0;rounded=1;arcSize=14;strokeColor=#ff0000;fillColor=#ffffc0;swimlaneFillColor=#ffffc0;dropTarget=0;" parent="uJ4McG1gYGhLAZSdG6iw-95" vertex="1">
          <mxGeometry x="743" y="390" width="120" height="80" as="geometry" />
        </mxCell>
        <mxCell id="PQt4EGH9tKSYyopVbUSj-7" value="+&amp;nbsp; Recua rolagem" style="text;html=1;strokeColor=none;fillColor=none;align=center;verticalAlign=middle;spacingLeft=4;spacingRight=4;whiteSpace=wrap;overflow=hidden;rotatable=0;fontColor=#000000;" parent="PQt4EGH9tKSYyopVbUSj-6" vertex="1">
          <mxGeometry y="50" width="120" height="30" as="geometry" />
        </mxCell>
        <mxCell id="PQt4EGH9tKSYyopVbUSj-10" value="5&#xa;Avançando rolos" style="swimlane;fontStyle=1;align=center;verticalAlign=middle;childLayout=stackLayout;horizontal=1;startSize=40;horizontalStack=0;resizeParent=0;resizeLast=1;container=0;fontColor=#000000;collapsible=0;rounded=1;arcSize=13;strokeColor=#ff0000;fillColor=#ffffc0;swimlaneFillColor=#ffffc0;dropTarget=0;" parent="uJ4McG1gYGhLAZSdG6iw-95" vertex="1">
          <mxGeometry x="438" y="275" width="120" height="70" as="geometry" />
        </mxCell>
        <mxCell id="PQt4EGH9tKSYyopVbUSj-11" value="+&amp;nbsp; Recua facas" style="text;html=1;strokeColor=none;fillColor=none;align=center;verticalAlign=middle;spacingLeft=4;spacingRight=4;whiteSpace=wrap;overflow=hidden;rotatable=0;fontColor=#000000;" parent="PQt4EGH9tKSYyopVbUSj-10" vertex="1">
          <mxGeometry y="40" width="120" height="30" as="geometry" />
        </mxCell>
        <mxCell id="PQt4EGH9tKSYyopVbUSj-12" value="+&amp;nbsp; Recua esticadores" style="text;html=1;strokeColor=none;fillColor=none;align=center;verticalAlign=middle;spacingLeft=4;spacingRight=4;whiteSpace=wrap;overflow=hidden;rotatable=0;fontColor=#000000;" parent="PQt4EGH9tKSYyopVbUSj-10" vertex="1">
          <mxGeometry y="70" width="120" as="geometry" />
        </mxCell>
        <mxCell id="PQt4EGH9tKSYyopVbUSj-23" value="12&#xa;Avançando facas" style="swimlane;fontStyle=1;align=center;verticalAlign=middle;childLayout=stackLayout;horizontal=1;startSize=34;horizontalStack=0;resizeParent=0;resizeLast=1;container=0;fontColor=#000000;collapsible=0;rounded=1;arcSize=14;strokeColor=#ff0000;fillColor=#ffffc0;swimlaneFillColor=#ffffc0;dropTarget=0;" parent="uJ4McG1gYGhLAZSdG6iw-95" vertex="1">
          <mxGeometry x="518" y="621" width="120" height="68" as="geometry" />
        </mxCell>
        <mxCell id="PQt4EGH9tKSYyopVbUSj-24" value="+&amp;nbsp; Desce rolagem&lt;br&gt;+ Avança rolos" style="text;html=1;strokeColor=none;fillColor=none;align=center;verticalAlign=middle;spacingLeft=4;spacingRight=4;whiteSpace=wrap;overflow=hidden;rotatable=0;fontColor=#000000;" parent="PQt4EGH9tKSYyopVbUSj-23" vertex="1">
          <mxGeometry y="34" width="120" height="34" as="geometry" />
        </mxCell>
        <mxCell id="PQt4EGH9tKSYyopVbUSj-29" value="16&#xa;Aguardando recuar&#xa;mesa" style="swimlane;fontStyle=1;align=center;verticalAlign=middle;childLayout=stackLayout;horizontal=1;startSize=50;horizontalStack=0;resizeParent=0;resizeLast=1;container=0;fontColor=#000000;collapsible=0;rounded=1;arcSize=9;strokeColor=#ff0000;fillColor=#ffffc0;swimlaneFillColor=#ffffc0;dropTarget=0;" parent="uJ4McG1gYGhLAZSdG6iw-95" vertex="1">
          <mxGeometry x="518" y="741" width="120" height="70" as="geometry" />
        </mxCell>
        <mxCell id="PQt4EGH9tKSYyopVbUSj-30" value="+&amp;nbsp; Libera mov. mesa" style="text;html=1;strokeColor=none;fillColor=none;align=center;verticalAlign=middle;spacingLeft=4;spacingRight=4;whiteSpace=wrap;overflow=hidden;rotatable=0;fontColor=#000000;" parent="PQt4EGH9tKSYyopVbUSj-29" vertex="1">
          <mxGeometry y="50" width="120" height="20" as="geometry" />
        </mxCell>
        <mxCell id="PQt4EGH9tKSYyopVbUSj-34" value="17&#xa;Desce para soltar &#xa;estator" style="swimlane;fontStyle=1;align=center;verticalAlign=middle;childLayout=stackLayout;horizontal=1;startSize=50;horizontalStack=0;resizeParent=0;resizeLast=1;container=0;fontColor=#000000;collapsible=0;rounded=1;arcSize=9;strokeColor=#ff0000;fillColor=#ffffc0;swimlaneFillColor=#ffffc0;dropTarget=0;" parent="uJ4McG1gYGhLAZSdG6iw-95" vertex="1">
          <mxGeometry x="298" y="706" width="120" height="105" as="geometry" />
        </mxCell>
        <mxCell id="PQt4EGH9tKSYyopVbUSj-35" value="+&amp;nbsp; Avança compactação&lt;br&gt;+ Aproxima rolagem&lt;div&gt;&lt;br/&gt;&lt;/div&gt;" style="text;html=1;strokeColor=none;fillColor=none;align=center;verticalAlign=middle;spacingLeft=4;spacingRight=4;whiteSpace=wrap;overflow=hidden;rotatable=0;fontColor=#000000;" parent="PQt4EGH9tKSYyopVbUSj-34" vertex="1">
          <mxGeometry y="50" width="120" height="55" as="geometry" />
        </mxCell>
        <mxCell id="PQt4EGH9tKSYyopVbUSj-36" value="18&#xa;Soltando estator" style="swimlane;fontStyle=1;align=center;verticalAlign=middle;childLayout=stackLayout;horizontal=1;startSize=34;horizontalStack=0;resizeParent=0;resizeLast=1;container=0;fontColor=#000000;collapsible=0;rounded=1;arcSize=14;strokeColor=#ff0000;fillColor=#ffffc0;swimlaneFillColor=#ffffc0;dropTarget=0;" parent="uJ4McG1gYGhLAZSdG6iw-95" vertex="1">
          <mxGeometry x="60" y="738" width="120" height="68" as="geometry" />
        </mxCell>
        <mxCell id="PQt4EGH9tKSYyopVbUSj-37" value="+&amp;nbsp; Recua facas&lt;br&gt;+ Recua rolos" style="text;html=1;strokeColor=none;fillColor=none;align=center;verticalAlign=middle;spacingLeft=4;spacingRight=4;whiteSpace=wrap;overflow=hidden;rotatable=0;fontColor=#000000;" parent="PQt4EGH9tKSYyopVbUSj-36" vertex="1">
          <mxGeometry y="34" width="120" height="34" as="geometry" />
        </mxCell>
        <mxCell id="iYzLhB0qEPxJf2x7pPCy-19" value="" style="edgeStyle=orthogonalEdgeStyle;rounded=0;orthogonalLoop=1;jettySize=auto;html=1;entryX=0.175;entryY=-0.002;entryDx=0;entryDy=0;entryPerimeter=0;exitX=1;exitY=0.25;exitDx=0;exitDy=0;" parent="1" source="kTH6D9do1_uqzr2GqV5v-1" target="uJ4McG1gYGhLAZSdG6iw-95" edge="1">
          <mxGeometry relative="1" as="geometry">
            <mxPoint x="390" y="100" as="targetPoint" />
            <mxPoint x="290" y="40.05882352941171" as="sourcePoint" />
            <Array as="points">
              <mxPoint x="346" y="30" />
            </Array>
          </mxGeometry>
        </mxCell>
        <mxCell id="iYzLhB0qEPxJf2x7pPCy-30" value="Permissão OK" style="edgeLabel;html=1;align=center;verticalAlign=middle;resizable=0;points=[];" parent="iYzLhB0qEPxJf2x7pPCy-19" vertex="1" connectable="0">
          <mxGeometry x="-0.0608" relative="1" as="geometry">
            <mxPoint as="offset" />
          </mxGeometry>
        </mxCell>
        <mxCell id="iYzLhB0qEPxJf2x7pPCy-20" style="edgeStyle=orthogonalEdgeStyle;rounded=0;orthogonalLoop=1;jettySize=auto;html=1;exitX=0.5;exitY=0;exitDx=0;exitDy=0;entryX=0;entryY=0.25;entryDx=0;entryDy=0;" parent="1" source="uJ4McG1gYGhLAZSdG6iw-1" target="kTH6D9do1_uqzr2GqV5v-1" edge="1">
          <mxGeometry relative="1" as="geometry">
            <mxPoint x="170" y="25" as="targetPoint" />
          </mxGeometry>
        </mxCell>
        <mxCell id="uJ4McG1gYGhLAZSdG6iw-1" value="" style="ellipse;html=1;shape=startState;fillColor=#000000;strokeColor=#ff0000;rounded=1;shadow=0;comic=0;labelBackgroundColor=none;fontFamily=Verdana;fontSize=12;fontColor=#000000;align=center;direction=south;" parent="1" vertex="1">
          <mxGeometry x="80" y="15" width="30" height="30" as="geometry" />
        </mxCell>
        <mxCell id="kTH6D9do1_uqzr2GqV5v-1" value="0&#xa;Sem permissão&#xa;para ciclo" style="swimlane;fontStyle=1;align=center;verticalAlign=middle;childLayout=stackLayout;horizontal=1;startSize=50;horizontalStack=0;resizeParent=0;resizeLast=1;container=0;fontColor=#000000;collapsible=0;rounded=1;arcSize=8;strokeColor=#ff0000;fillColor=#ffffc0;swimlaneFillColor=#ffffc0;dropTarget=0;" parent="1" vertex="1">
          <mxGeometry x="150" y="10" width="130" height="80.5" as="geometry" />
        </mxCell>
        <mxCell id="kTH6D9do1_uqzr2GqV5v-2" value="+ Bloqueia mov. mesa" style="text;html=1;strokeColor=none;fillColor=none;align=center;verticalAlign=middle;spacingLeft=4;spacingRight=4;whiteSpace=wrap;overflow=hidden;rotatable=0;fontColor=#000000;" parent="kTH6D9do1_uqzr2GqV5v-1" vertex="1">
          <mxGeometry y="50" width="130" height="30.5" as="geometry" />
        </mxCell>
        <mxCell id="kTH6D9do1_uqzr2GqV5v-3" value="+ Bloqueia mov. mesa" style="text;html=1;strokeColor=none;fillColor=none;align=center;verticalAlign=middle;spacingLeft=4;spacingRight=4;whiteSpace=wrap;overflow=hidden;rotatable=0;fontColor=#000000;" parent="kTH6D9do1_uqzr2GqV5v-1" vertex="1">
          <mxGeometry y="80.5" width="130" as="geometry" />
        </mxCell>
      </root>
    </mxGraphModel>
  </diagram>
  <diagram id="oaP8fSJOOE39_sWfcLyn" name="MesaV3">
    <mxGraphModel dx="2796" dy="918" grid="1" gridSize="10" guides="1" tooltips="1" connect="1" arrows="1" fold="1" page="1" pageScale="1" pageWidth="827" pageHeight="1169" math="0" shadow="0">
      <root>
        <mxCell id="0" />
        <mxCell id="1" parent="0" />
        <mxCell id="0x7zI7fZM2jy_gg8qVNA-90" style="edgeStyle=orthogonalEdgeStyle;rounded=0;orthogonalLoop=1;jettySize=auto;html=1;exitX=0;exitY=0.25;exitDx=0;exitDy=0;entryX=0;entryY=0.75;entryDx=0;entryDy=0;" parent="1" source="0x7zI7fZM2jy_gg8qVNA-92" target="0x7zI7fZM2jy_gg8qVNA-174" edge="1">
          <mxGeometry relative="1" as="geometry">
            <Array as="points">
              <mxPoint x="99.86" y="120" />
              <mxPoint x="29.86" y="120" />
              <mxPoint x="29.86" y="65" />
            </Array>
          </mxGeometry>
        </mxCell>
        <mxCell id="0x7zI7fZM2jy_gg8qVNA-91" value="Bloqueia modo&lt;br&gt;automático" style="edgeLabel;html=1;align=center;verticalAlign=middle;resizable=0;points=[];" parent="0x7zI7fZM2jy_gg8qVNA-90" vertex="1" connectable="0">
          <mxGeometry x="0.1062" y="3" relative="1" as="geometry">
            <mxPoint x="-49" y="-33" as="offset" />
          </mxGeometry>
        </mxCell>
        <mxCell id="0x7zI7fZM2jy_gg8qVNA-92" value="Ciclo Automático Mesa" style="swimlane;whiteSpace=wrap;html=1;" parent="1" vertex="1">
          <mxGeometry x="99.86" y="110" width="1180" height="920" as="geometry">
            <mxRectangle x="115" y="1250" width="230" height="30" as="alternateBounds" />
          </mxGeometry>
        </mxCell>
        <mxCell id="kYp0fLCExw43RTJGJkSH-5" style="edgeStyle=orthogonalEdgeStyle;rounded=0;orthogonalLoop=1;jettySize=auto;html=1;exitX=1;exitY=0.5;exitDx=0;exitDy=0;entryX=0;entryY=0.5;entryDx=0;entryDy=0;" parent="0x7zI7fZM2jy_gg8qVNA-92" source="KuBNZnhi7Ist9UkGT_8b-7" target="KuBNZnhi7Ist9UkGT_8b-11" edge="1">
          <mxGeometry relative="1" as="geometry" />
        </mxCell>
        <mxCell id="kYp0fLCExw43RTJGJkSH-6" value="Não" style="edgeLabel;html=1;align=center;verticalAlign=middle;resizable=0;points=[];" parent="kYp0fLCExw43RTJGJkSH-5" vertex="1" connectable="0">
          <mxGeometry x="-0.062" y="3" relative="1" as="geometry">
            <mxPoint x="1" as="offset" />
          </mxGeometry>
        </mxCell>
        <mxCell id="KuBNZnhi7Ist9UkGT_8b-7" value="Ciclo de remoção da saída ativo?" style="rhombus;whiteSpace=wrap;html=1;" parent="0x7zI7fZM2jy_gg8qVNA-92" vertex="1">
          <mxGeometry x="585" y="140" width="80" height="80" as="geometry" />
        </mxCell>
        <mxCell id="KuBNZnhi7Ist9UkGT_8b-9" value="2&lt;br&gt;Expandindo&lt;br&gt;Mandril" style="rounded=1;whiteSpace=wrap;html=1;arcSize=24;fillColor=#ffffc0;strokeColor=#ff0000;shadow=0;comic=0;labelBackgroundColor=none;fontFamily=Verdana;fontSize=12;fontColor=#000000;align=center;" parent="0x7zI7fZM2jy_gg8qVNA-92" vertex="1">
          <mxGeometry x="375" y="150" width="120" height="60" as="geometry" />
        </mxCell>
        <mxCell id="KuBNZnhi7Ist9UkGT_8b-11" value="3&lt;br&gt;Posiciona servo para gramp. 1" style="rounded=1;whiteSpace=wrap;html=1;arcSize=24;fillColor=#ffffc0;strokeColor=#ff0000;shadow=0;comic=0;labelBackgroundColor=none;fontFamily=Verdana;fontSize=12;fontColor=#000000;align=center;" parent="0x7zI7fZM2jy_gg8qVNA-92" vertex="1">
          <mxGeometry x="785" y="150" width="120" height="60" as="geometry" />
        </mxCell>
        <mxCell id="KuBNZnhi7Ist9UkGT_8b-8" value="Expandiu" style="edgeStyle=orthogonalEdgeStyle;rounded=0;orthogonalLoop=1;jettySize=auto;html=1;entryX=0;entryY=0.5;entryDx=0;entryDy=0;" parent="0x7zI7fZM2jy_gg8qVNA-92" source="KuBNZnhi7Ist9UkGT_8b-9" target="KuBNZnhi7Ist9UkGT_8b-7" edge="1">
          <mxGeometry relative="1" as="geometry">
            <mxPoint x="590.14" y="180" as="targetPoint" />
          </mxGeometry>
        </mxCell>
        <mxCell id="KuBNZnhi7Ist9UkGT_8b-10" value="Posicionou" style="edgeStyle=orthogonalEdgeStyle;rounded=0;orthogonalLoop=1;jettySize=auto;html=1;entryX=0;entryY=0.25;entryDx=0;entryDy=0;" parent="0x7zI7fZM2jy_gg8qVNA-92" source="KuBNZnhi7Ist9UkGT_8b-11" target="kYp0fLCExw43RTJGJkSH-7" edge="1">
          <mxGeometry relative="1" as="geometry">
            <mxPoint x="1014.9999999999997" y="180" as="targetPoint" />
          </mxGeometry>
        </mxCell>
        <mxCell id="KuBNZnhi7Ist9UkGT_8b-15" value="5&lt;br style=&quot;border-color: var(--border-color);&quot;&gt;Avançando mesa" style="rounded=1;whiteSpace=wrap;html=1;arcSize=24;fillColor=#ffffc0;strokeColor=#ff0000;shadow=0;comic=0;labelBackgroundColor=none;fontFamily=Verdana;fontSize=12;fontColor=#000000;align=center;" parent="0x7zI7fZM2jy_gg8qVNA-92" vertex="1">
          <mxGeometry x="1030" y="380" width="120" height="60" as="geometry" />
        </mxCell>
        <mxCell id="KuBNZnhi7Ist9UkGT_8b-19" value="Ciclo de remoção da saída ativo?" style="rhombus;whiteSpace=wrap;html=1;" parent="0x7zI7fZM2jy_gg8qVNA-92" vertex="1">
          <mxGeometry x="875" y="370" width="80" height="80" as="geometry" />
        </mxCell>
        <mxCell id="KuBNZnhi7Ist9UkGT_8b-14" value="Avancou" style="edgeStyle=orthogonalEdgeStyle;rounded=0;orthogonalLoop=1;jettySize=auto;html=1;" parent="0x7zI7fZM2jy_gg8qVNA-92" source="KuBNZnhi7Ist9UkGT_8b-15" target="KuBNZnhi7Ist9UkGT_8b-19" edge="1">
          <mxGeometry relative="1" as="geometry" />
        </mxCell>
        <mxCell id="KuBNZnhi7Ist9UkGT_8b-21" value="7&lt;br style=&quot;border-color: var(--border-color);&quot;&gt;Aguarda grampeamento 1" style="rounded=1;whiteSpace=wrap;html=1;arcSize=24;fillColor=#ffffc0;strokeColor=#ff0000;shadow=0;comic=0;labelBackgroundColor=none;fontFamily=Verdana;fontSize=12;fontColor=#000000;align=center;" parent="0x7zI7fZM2jy_gg8qVNA-92" vertex="1">
          <mxGeometry x="675" y="430" width="120" height="60" as="geometry" />
        </mxCell>
        <mxCell id="KuBNZnhi7Ist9UkGT_8b-23" value="13&lt;br style=&quot;border-color: var(--border-color);&quot;&gt;Aguarda esteira remover estator" style="rounded=1;whiteSpace=wrap;html=1;arcSize=24;fillColor=#ffffc0;strokeColor=#ff0000;shadow=0;comic=0;labelBackgroundColor=none;fontFamily=Verdana;fontSize=12;fontColor=#000000;align=center;" parent="0x7zI7fZM2jy_gg8qVNA-92" vertex="1">
          <mxGeometry x="605" y="550" width="120" height="60" as="geometry" />
        </mxCell>
        <mxCell id="KuBNZnhi7Ist9UkGT_8b-17" style="edgeStyle=orthogonalEdgeStyle;rounded=0;orthogonalLoop=1;jettySize=auto;html=1;exitX=0.5;exitY=1;exitDx=0;exitDy=0;entryX=1;entryY=0.5;entryDx=0;entryDy=0;" parent="0x7zI7fZM2jy_gg8qVNA-92" source="KuBNZnhi7Ist9UkGT_8b-19" target="KuBNZnhi7Ist9UkGT_8b-23" edge="1">
          <mxGeometry relative="1" as="geometry" />
        </mxCell>
        <mxCell id="KuBNZnhi7Ist9UkGT_8b-18" value="Sim" style="edgeLabel;html=1;align=center;verticalAlign=middle;resizable=0;points=[];" parent="KuBNZnhi7Ist9UkGT_8b-17" vertex="1" connectable="0">
          <mxGeometry x="0.1217" y="-3" relative="1" as="geometry">
            <mxPoint x="-1" as="offset" />
          </mxGeometry>
        </mxCell>
        <mxCell id="KuBNZnhi7Ist9UkGT_8b-25" value="8&lt;br style=&quot;border-color: var(--border-color);&quot;&gt;Aguarda subir a grampeadeira&lt;br&gt;(não implem.)" style="rounded=1;whiteSpace=wrap;html=1;arcSize=24;fillColor=#ffffc0;strokeColor=#ff0000;shadow=0;comic=0;labelBackgroundColor=none;fontFamily=Verdana;fontSize=12;fontColor=#000000;align=center;" parent="0x7zI7fZM2jy_gg8qVNA-92" vertex="1">
          <mxGeometry x="465" y="430" width="120" height="60" as="geometry" />
        </mxCell>
        <mxCell id="KuBNZnhi7Ist9UkGT_8b-20" value="Grampeou" style="edgeStyle=orthogonalEdgeStyle;rounded=0;orthogonalLoop=1;jettySize=auto;html=1;" parent="0x7zI7fZM2jy_gg8qVNA-92" source="KuBNZnhi7Ist9UkGT_8b-21" target="KuBNZnhi7Ist9UkGT_8b-25" edge="1">
          <mxGeometry relative="1" as="geometry" />
        </mxCell>
        <mxCell id="KuBNZnhi7Ist9UkGT_8b-27" value="9&lt;br style=&quot;border-color: var(--border-color);&quot;&gt;&amp;nbsp;Posiciona servo para gramp. 2" style="rounded=1;whiteSpace=wrap;html=1;arcSize=24;fillColor=#ffffc0;strokeColor=#ff0000;shadow=0;comic=0;labelBackgroundColor=none;fontFamily=Verdana;fontSize=12;fontColor=#000000;align=center;" parent="0x7zI7fZM2jy_gg8qVNA-92" vertex="1">
          <mxGeometry x="255" y="430" width="120" height="60" as="geometry" />
        </mxCell>
        <mxCell id="KuBNZnhi7Ist9UkGT_8b-24" value="Subiu" style="edgeStyle=orthogonalEdgeStyle;rounded=0;orthogonalLoop=1;jettySize=auto;html=1;" parent="0x7zI7fZM2jy_gg8qVNA-92" source="KuBNZnhi7Ist9UkGT_8b-25" target="KuBNZnhi7Ist9UkGT_8b-27" edge="1">
          <mxGeometry relative="1" as="geometry" />
        </mxCell>
        <mxCell id="KuBNZnhi7Ist9UkGT_8b-29" value="10&lt;br style=&quot;border-color: var(--border-color);&quot;&gt;&amp;nbsp;Aguarda grampeamento 2" style="rounded=1;whiteSpace=wrap;html=1;arcSize=24;fillColor=#ffffc0;strokeColor=#ff0000;shadow=0;comic=0;labelBackgroundColor=none;fontFamily=Verdana;fontSize=12;fontColor=#000000;align=center;" parent="0x7zI7fZM2jy_gg8qVNA-92" vertex="1">
          <mxGeometry x="45" y="430" width="120" height="60" as="geometry" />
        </mxCell>
        <mxCell id="KuBNZnhi7Ist9UkGT_8b-26" value="Posicionou" style="edgeStyle=orthogonalEdgeStyle;rounded=0;orthogonalLoop=1;jettySize=auto;html=1;" parent="0x7zI7fZM2jy_gg8qVNA-92" source="KuBNZnhi7Ist9UkGT_8b-27" target="KuBNZnhi7Ist9UkGT_8b-29" edge="1">
          <mxGeometry relative="1" as="geometry" />
        </mxCell>
        <mxCell id="KuBNZnhi7Ist9UkGT_8b-31" value="11&lt;br style=&quot;border-color: var(--border-color);&quot;&gt;&amp;nbsp;Retrai mandril" style="rounded=1;whiteSpace=wrap;html=1;arcSize=24;fillColor=#ffffc0;strokeColor=#ff0000;shadow=0;comic=0;labelBackgroundColor=none;fontFamily=Verdana;fontSize=12;fontColor=#000000;align=center;" parent="0x7zI7fZM2jy_gg8qVNA-92" vertex="1">
          <mxGeometry x="45" y="550" width="120" height="60" as="geometry" />
        </mxCell>
        <mxCell id="KuBNZnhi7Ist9UkGT_8b-28" value="Grampeou" style="edgeStyle=orthogonalEdgeStyle;rounded=0;orthogonalLoop=1;jettySize=auto;html=1;" parent="0x7zI7fZM2jy_gg8qVNA-92" source="KuBNZnhi7Ist9UkGT_8b-29" target="KuBNZnhi7Ist9UkGT_8b-31" edge="1">
          <mxGeometry relative="1" as="geometry" />
        </mxCell>
        <mxCell id="KuBNZnhi7Ist9UkGT_8b-33" value="12&lt;br style=&quot;border-color: var(--border-color);&quot;&gt;&amp;nbsp;Aguarda grampeadeira retirar o pacote" style="rounded=1;whiteSpace=wrap;html=1;arcSize=24;fillColor=#ffffc0;strokeColor=#ff0000;shadow=0;comic=0;labelBackgroundColor=none;fontFamily=Verdana;fontSize=12;fontColor=#000000;align=center;" parent="0x7zI7fZM2jy_gg8qVNA-92" vertex="1">
          <mxGeometry x="45" y="680" width="120" height="60" as="geometry" />
        </mxCell>
        <mxCell id="KuBNZnhi7Ist9UkGT_8b-30" value="Retraiu" style="edgeStyle=orthogonalEdgeStyle;rounded=0;orthogonalLoop=1;jettySize=auto;html=1;" parent="0x7zI7fZM2jy_gg8qVNA-92" source="KuBNZnhi7Ist9UkGT_8b-31" target="KuBNZnhi7Ist9UkGT_8b-33" edge="1">
          <mxGeometry relative="1" as="geometry" />
        </mxCell>
        <mxCell id="KuBNZnhi7Ist9UkGT_8b-22" value="Rmoveu" style="edgeStyle=orthogonalEdgeStyle;rounded=0;orthogonalLoop=1;jettySize=auto;html=1;exitX=0.5;exitY=1;exitDx=0;exitDy=0;entryX=0.75;entryY=0;entryDx=0;entryDy=0;" parent="0x7zI7fZM2jy_gg8qVNA-92" source="KuBNZnhi7Ist9UkGT_8b-23" target="kYp0fLCExw43RTJGJkSH-10" edge="1">
          <mxGeometry relative="1" as="geometry">
            <Array as="points">
              <mxPoint x="665" y="640" />
              <mxPoint x="343" y="640" />
            </Array>
          </mxGeometry>
        </mxCell>
        <mxCell id="KuBNZnhi7Ist9UkGT_8b-34" value="Recebeu" style="edgeStyle=orthogonalEdgeStyle;rounded=0;orthogonalLoop=1;jettySize=auto;html=1;exitX=1;exitY=0.5;exitDx=0;exitDy=0;entryX=0;entryY=0.25;entryDx=0;entryDy=0;" parent="0x7zI7fZM2jy_gg8qVNA-92" source="kYp0fLCExw43RTJGJkSH-11" target="kYp0fLCExw43RTJGJkSH-16" edge="1">
          <mxGeometry relative="1" as="geometry">
            <mxPoint x="365.0000000000001" y="710" as="sourcePoint" />
            <mxPoint x="465.0000000000001" y="760.0588235294117" as="targetPoint" />
          </mxGeometry>
        </mxCell>
        <mxCell id="KuBNZnhi7Ist9UkGT_8b-37" style="edgeStyle=orthogonalEdgeStyle;rounded=0;orthogonalLoop=1;jettySize=auto;html=1;exitX=0.5;exitY=0;exitDx=0;exitDy=0;entryX=0.75;entryY=0;entryDx=0;entryDy=0;" parent="0x7zI7fZM2jy_gg8qVNA-92" source="KuBNZnhi7Ist9UkGT_8b-38" target="7WHahsVQ7fj9vmplg43g-1" edge="1">
          <mxGeometry relative="1" as="geometry">
            <Array as="points">
              <mxPoint x="1075" y="490" />
              <mxPoint x="1165" y="490" />
              <mxPoint x="1165" y="80" />
              <mxPoint x="235" y="80" />
            </Array>
            <mxPoint x="210.14" y="120" as="targetPoint" />
          </mxGeometry>
        </mxCell>
        <mxCell id="kYp0fLCExw43RTJGJkSH-31" value="Recuou" style="edgeLabel;html=1;align=center;verticalAlign=middle;resizable=0;points=[];" parent="KuBNZnhi7Ist9UkGT_8b-37" vertex="1" connectable="0">
          <mxGeometry x="-0.8862" y="4" relative="1" as="geometry">
            <mxPoint as="offset" />
          </mxGeometry>
        </mxCell>
        <mxCell id="KuBNZnhi7Ist9UkGT_8b-38" value="19&lt;br&gt;Aguardando recuar grampeadeira" style="rounded=1;whiteSpace=wrap;html=1;arcSize=24;fillColor=#ffffc0;strokeColor=#ff0000;shadow=0;comic=0;labelBackgroundColor=none;fontFamily=Verdana;fontSize=12;fontColor=#000000;align=center;" parent="0x7zI7fZM2jy_gg8qVNA-92" vertex="1">
          <mxGeometry x="1015" y="550" width="120" height="60" as="geometry" />
        </mxCell>
        <mxCell id="KuBNZnhi7Ist9UkGT_8b-40" value="Não" style="edgeStyle=orthogonalEdgeStyle;rounded=0;orthogonalLoop=1;jettySize=auto;html=1;exitX=0.5;exitY=0;exitDx=0;exitDy=0;entryX=0.5;entryY=1;entryDx=0;entryDy=0;" parent="0x7zI7fZM2jy_gg8qVNA-92" source="KuBNZnhi7Ist9UkGT_8b-41" target="KuBNZnhi7Ist9UkGT_8b-9" edge="1">
          <mxGeometry relative="1" as="geometry" />
        </mxCell>
        <mxCell id="KuBNZnhi7Ist9UkGT_8b-41" value="Em posição para grampear?" style="rhombus;whiteSpace=wrap;html=1;" parent="0x7zI7fZM2jy_gg8qVNA-92" vertex="1">
          <mxGeometry x="805" y="260" width="80" height="80" as="geometry" />
        </mxCell>
        <mxCell id="KuBNZnhi7Ist9UkGT_8b-16" value="Não" style="edgeStyle=orthogonalEdgeStyle;rounded=0;orthogonalLoop=1;jettySize=auto;html=1;entryX=0.5;entryY=1;entryDx=0;entryDy=0;exitX=0;exitY=0.5;exitDx=0;exitDy=0;" parent="0x7zI7fZM2jy_gg8qVNA-92" source="KuBNZnhi7Ist9UkGT_8b-19" target="KuBNZnhi7Ist9UkGT_8b-41" edge="1">
          <mxGeometry relative="1" as="geometry" />
        </mxCell>
        <mxCell id="KuBNZnhi7Ist9UkGT_8b-42" style="edgeStyle=orthogonalEdgeStyle;rounded=0;orthogonalLoop=1;jettySize=auto;html=1;exitX=0.5;exitY=1;exitDx=0;exitDy=0;entryX=0.5;entryY=0;entryDx=0;entryDy=0;" parent="0x7zI7fZM2jy_gg8qVNA-92" source="KuBNZnhi7Ist9UkGT_8b-48" target="KuBNZnhi7Ist9UkGT_8b-21" edge="1">
          <mxGeometry relative="1" as="geometry" />
        </mxCell>
        <mxCell id="KuBNZnhi7Ist9UkGT_8b-43" value="Não" style="edgeLabel;html=1;align=center;verticalAlign=middle;resizable=0;points=[];" parent="KuBNZnhi7Ist9UkGT_8b-42" vertex="1" connectable="0">
          <mxGeometry x="0.2354" y="1" relative="1" as="geometry">
            <mxPoint x="-1" as="offset" />
          </mxGeometry>
        </mxCell>
        <mxCell id="KuBNZnhi7Ist9UkGT_8b-45" value="6&lt;br style=&quot;border-color: var(--border-color);&quot;&gt;Aguarda medição" style="rounded=1;whiteSpace=wrap;html=1;arcSize=24;fillColor=#ffffc0;strokeColor=#ff0000;shadow=0;comic=0;labelBackgroundColor=none;fontFamily=Verdana;fontSize=12;fontColor=#000000;align=center;" parent="0x7zI7fZM2jy_gg8qVNA-92" vertex="1">
          <mxGeometry x="595" y="270" width="120" height="60" as="geometry" />
        </mxCell>
        <mxCell id="KuBNZnhi7Ist9UkGT_8b-39" value="Sim" style="edgeStyle=orthogonalEdgeStyle;rounded=0;orthogonalLoop=1;jettySize=auto;html=1;exitX=0;exitY=0.5;exitDx=0;exitDy=0;entryX=1;entryY=0.5;entryDx=0;entryDy=0;" parent="0x7zI7fZM2jy_gg8qVNA-92" source="KuBNZnhi7Ist9UkGT_8b-41" target="KuBNZnhi7Ist9UkGT_8b-45" edge="1">
          <mxGeometry relative="1" as="geometry" />
        </mxCell>
        <mxCell id="kYp0fLCExw43RTJGJkSH-26" style="edgeStyle=orthogonalEdgeStyle;rounded=0;orthogonalLoop=1;jettySize=auto;html=1;exitX=0;exitY=0.5;exitDx=0;exitDy=0;entryX=0;entryY=0.5;entryDx=0;entryDy=0;" parent="0x7zI7fZM2jy_gg8qVNA-92" source="KuBNZnhi7Ist9UkGT_8b-48" target="kYp0fLCExw43RTJGJkSH-11" edge="1">
          <mxGeometry relative="1" as="geometry">
            <Array as="points">
              <mxPoint x="20" y="300" />
              <mxPoint x="20" y="815" />
            </Array>
          </mxGeometry>
        </mxCell>
        <mxCell id="kYp0fLCExw43RTJGJkSH-27" value="Sim" style="edgeLabel;html=1;align=center;verticalAlign=middle;resizable=0;points=[];" parent="kYp0fLCExw43RTJGJkSH-26" vertex="1" connectable="0">
          <mxGeometry x="-0.883" y="-5" relative="1" as="geometry">
            <mxPoint as="offset" />
          </mxGeometry>
        </mxCell>
        <mxCell id="KuBNZnhi7Ist9UkGT_8b-48" value="Necessário correção?" style="rhombus;whiteSpace=wrap;html=1;" parent="0x7zI7fZM2jy_gg8qVNA-92" vertex="1">
          <mxGeometry x="445" y="260" width="80" height="80" as="geometry" />
        </mxCell>
        <mxCell id="KuBNZnhi7Ist9UkGT_8b-44" value="Mediu" style="edgeStyle=orthogonalEdgeStyle;rounded=0;orthogonalLoop=1;jettySize=auto;html=1;" parent="0x7zI7fZM2jy_gg8qVNA-92" source="KuBNZnhi7Ist9UkGT_8b-45" target="KuBNZnhi7Ist9UkGT_8b-48" edge="1">
          <mxGeometry relative="1" as="geometry" />
        </mxCell>
        <mxCell id="KuBNZnhi7Ist9UkGT_8b-50" value="Soltou" style="edgeStyle=orthogonalEdgeStyle;rounded=0;orthogonalLoop=1;jettySize=auto;html=1;" parent="0x7zI7fZM2jy_gg8qVNA-92" source="KuBNZnhi7Ist9UkGT_8b-51" target="KuBNZnhi7Ist9UkGT_8b-38" edge="1">
          <mxGeometry relative="1" as="geometry" />
        </mxCell>
        <mxCell id="KuBNZnhi7Ist9UkGT_8b-51" value="18&lt;br&gt;Aguarda a grampeadeira soltar o pacote" style="rounded=1;whiteSpace=wrap;html=1;arcSize=24;fillColor=#ffffc0;strokeColor=#ff0000;shadow=0;comic=0;labelBackgroundColor=none;fontFamily=Verdana;fontSize=12;fontColor=#000000;align=center;" parent="0x7zI7fZM2jy_gg8qVNA-92" vertex="1">
          <mxGeometry x="1015" y="760" width="120" height="60" as="geometry" />
        </mxCell>
        <mxCell id="KuBNZnhi7Ist9UkGT_8b-53" value="Não" style="edgeStyle=orthogonalEdgeStyle;rounded=0;orthogonalLoop=1;jettySize=auto;html=1;exitX=0.5;exitY=0;exitDx=0;exitDy=0;entryX=0.25;entryY=1;entryDx=0;entryDy=0;" parent="0x7zI7fZM2jy_gg8qVNA-92" source="KuBNZnhi7Ist9UkGT_8b-54" target="KuBNZnhi7Ist9UkGT_8b-38" edge="1">
          <mxGeometry relative="1" as="geometry" />
        </mxCell>
        <mxCell id="KuBNZnhi7Ist9UkGT_8b-54" value="Tem estator na grampeadeira?" style="rhombus;whiteSpace=wrap;html=1;" parent="0x7zI7fZM2jy_gg8qVNA-92" vertex="1">
          <mxGeometry x="875" y="750" width="80" height="80" as="geometry" />
        </mxCell>
        <mxCell id="KuBNZnhi7Ist9UkGT_8b-49" value="Sim" style="edgeStyle=orthogonalEdgeStyle;rounded=0;orthogonalLoop=1;jettySize=auto;html=1;" parent="0x7zI7fZM2jy_gg8qVNA-92" source="KuBNZnhi7Ist9UkGT_8b-54" target="KuBNZnhi7Ist9UkGT_8b-51" edge="1">
          <mxGeometry relative="1" as="geometry">
            <mxPoint x="605" y="790" as="sourcePoint" />
            <mxPoint x="875" y="790" as="targetPoint" />
          </mxGeometry>
        </mxCell>
        <mxCell id="KuBNZnhi7Ist9UkGT_8b-55" value="Não" style="edgeStyle=orthogonalEdgeStyle;rounded=0;orthogonalLoop=1;jettySize=auto;html=1;exitX=0.5;exitY=1;exitDx=0;exitDy=0;entryX=0.5;entryY=0;entryDx=0;entryDy=0;" parent="0x7zI7fZM2jy_gg8qVNA-92" source="KuBNZnhi7Ist9UkGT_8b-57" target="kYp0fLCExw43RTJGJkSH-10" edge="1">
          <mxGeometry relative="1" as="geometry" />
        </mxCell>
        <mxCell id="KuBNZnhi7Ist9UkGT_8b-56" value="Sim" style="edgeStyle=orthogonalEdgeStyle;rounded=0;orthogonalLoop=1;jettySize=auto;html=1;exitX=1;exitY=0.5;exitDx=0;exitDy=0;entryX=0;entryY=0.5;entryDx=0;entryDy=0;" parent="0x7zI7fZM2jy_gg8qVNA-92" source="KuBNZnhi7Ist9UkGT_8b-57" target="KuBNZnhi7Ist9UkGT_8b-23" edge="1">
          <mxGeometry relative="1" as="geometry" />
        </mxCell>
        <mxCell id="KuBNZnhi7Ist9UkGT_8b-57" value="Tem pacote na saída?" style="rhombus;whiteSpace=wrap;html=1;" parent="0x7zI7fZM2jy_gg8qVNA-92" vertex="1">
          <mxGeometry x="265" y="540" width="80" height="80" as="geometry" />
        </mxCell>
        <mxCell id="KuBNZnhi7Ist9UkGT_8b-32" value="Retirou" style="edgeStyle=orthogonalEdgeStyle;rounded=0;orthogonalLoop=1;jettySize=auto;html=1;entryX=0;entryY=0.5;entryDx=0;entryDy=0;" parent="0x7zI7fZM2jy_gg8qVNA-92" source="KuBNZnhi7Ist9UkGT_8b-33" target="KuBNZnhi7Ist9UkGT_8b-57" edge="1">
          <mxGeometry relative="1" as="geometry" />
        </mxCell>
        <mxCell id="KuBNZnhi7Ist9UkGT_8b-58" value="Recuou" style="edgeStyle=orthogonalEdgeStyle;rounded=0;orthogonalLoop=1;jettySize=auto;html=1;entryX=0.5;entryY=1;entryDx=0;entryDy=0;exitX=1;exitY=0.25;exitDx=0;exitDy=0;" parent="0x7zI7fZM2jy_gg8qVNA-92" source="kYp0fLCExw43RTJGJkSH-16" target="kYp0fLCExw43RTJGJkSH-19" edge="1">
          <mxGeometry relative="1" as="geometry">
            <mxPoint x="585.0000000000001" y="790" as="sourcePoint" />
            <mxPoint x="865" y="790" as="targetPoint" />
          </mxGeometry>
        </mxCell>
        <mxCell id="kYp0fLCExw43RTJGJkSH-30" style="edgeStyle=orthogonalEdgeStyle;rounded=0;orthogonalLoop=1;jettySize=auto;html=1;exitX=0.25;exitY=0;exitDx=0;exitDy=0;entryX=1;entryY=1;entryDx=0;entryDy=0;" parent="0x7zI7fZM2jy_gg8qVNA-92" source="KuBNZnhi7Ist9UkGT_8b-59" target="kYp0fLCExw43RTJGJkSH-19" edge="1">
          <mxGeometry relative="1" as="geometry">
            <Array as="points">
              <mxPoint x="735" y="720" />
            </Array>
          </mxGeometry>
        </mxCell>
        <mxCell id="KuBNZnhi7Ist9UkGT_8b-59" value="17&lt;br&gt;Retrai o mandril na entrada" style="rounded=1;whiteSpace=wrap;html=1;arcSize=24;fillColor=#ffffc0;strokeColor=#ff0000;shadow=0;comic=0;labelBackgroundColor=none;fontFamily=Verdana;fontSize=12;fontColor=#000000;align=center;" parent="0x7zI7fZM2jy_gg8qVNA-92" vertex="1">
          <mxGeometry x="705" y="810" width="120" height="60" as="geometry" />
        </mxCell>
        <mxCell id="KuBNZnhi7Ist9UkGT_8b-52" value="Retraiu" style="edgeStyle=orthogonalEdgeStyle;rounded=0;orthogonalLoop=1;jettySize=auto;html=1;entryX=0;entryY=0.5;entryDx=0;entryDy=0;exitX=1;exitY=0.5;exitDx=0;exitDy=0;" parent="0x7zI7fZM2jy_gg8qVNA-92" source="KuBNZnhi7Ist9UkGT_8b-59" target="KuBNZnhi7Ist9UkGT_8b-54" edge="1">
          <mxGeometry relative="1" as="geometry">
            <mxPoint x="625" y="790" as="sourcePoint" />
            <mxPoint x="664" y="790" as="targetPoint" />
          </mxGeometry>
        </mxCell>
        <mxCell id="kYp0fLCExw43RTJGJkSH-1" value="" style="edgeStyle=orthogonalEdgeStyle;rounded=0;orthogonalLoop=1;jettySize=auto;html=1;entryX=0;entryY=0.25;entryDx=0;entryDy=0;" parent="0x7zI7fZM2jy_gg8qVNA-92" source="0x7zI7fZM2jy_gg8qVNA-179" target="7WHahsVQ7fj9vmplg43g-3" edge="1">
          <mxGeometry relative="1" as="geometry" />
        </mxCell>
        <mxCell id="0x7zI7fZM2jy_gg8qVNA-179" value="" style="ellipse;html=1;shape=startState;fillColor=#000000;strokeColor=#ff0000;rounded=1;shadow=0;comic=0;labelBackgroundColor=none;fontFamily=Verdana;fontSize=12;fontColor=#000000;align=center;direction=south;" parent="0x7zI7fZM2jy_gg8qVNA-92" vertex="1">
          <mxGeometry x="44.999999999999986" y="172" width="30" height="30" as="geometry" />
        </mxCell>
        <mxCell id="7WHahsVQ7fj9vmplg43g-1" value="1&#xa;Aguardando&#xa;comando" style="swimlane;fontStyle=1;align=center;verticalAlign=middle;childLayout=stackLayout;horizontal=1;startSize=45;horizontalStack=0;resizeParent=0;resizeLast=1;container=0;fontColor=#000000;collapsible=0;rounded=1;arcSize=13;strokeColor=#ff0000;fillColor=#ffffc0;swimlaneFillColor=#ffffc0;dropTarget=0;" parent="0x7zI7fZM2jy_gg8qVNA-92" vertex="1">
          <mxGeometry x="145.14" y="125" width="119.86" height="115" as="geometry" />
        </mxCell>
        <mxCell id="7WHahsVQ7fj9vmplg43g-3" value="+&amp;nbsp; Retrai mandril&lt;br&gt;+ Aguarda robô fora&amp;nbsp;&lt;br&gt;da grampeadeira" style="text;html=1;strokeColor=none;fillColor=none;align=center;verticalAlign=middle;spacingLeft=4;spacingRight=4;whiteSpace=wrap;overflow=hidden;rotatable=0;fontColor=#000000;" parent="7WHahsVQ7fj9vmplg43g-1" vertex="1">
          <mxGeometry y="45" width="119.86" height="70" as="geometry" />
        </mxCell>
        <mxCell id="kYp0fLCExw43RTJGJkSH-2" style="edgeStyle=orthogonalEdgeStyle;rounded=0;orthogonalLoop=1;jettySize=auto;html=1;exitX=1;exitY=0.25;exitDx=0;exitDy=0;entryX=0;entryY=0.5;entryDx=0;entryDy=0;" parent="0x7zI7fZM2jy_gg8qVNA-92" source="7WHahsVQ7fj9vmplg43g-3" target="KuBNZnhi7Ist9UkGT_8b-9" edge="1">
          <mxGeometry relative="1" as="geometry" />
        </mxCell>
        <mxCell id="kYp0fLCExw43RTJGJkSH-3" value="Iniciar" style="edgeLabel;html=1;align=center;verticalAlign=middle;resizable=0;points=[];" parent="kYp0fLCExw43RTJGJkSH-2" vertex="1" connectable="0">
          <mxGeometry x="-0.1065" relative="1" as="geometry">
            <mxPoint x="1" as="offset" />
          </mxGeometry>
        </mxCell>
        <mxCell id="kYp0fLCExw43RTJGJkSH-7" value="4&#xa;Aguardando permissão&#xa;para avançar mesa" style="swimlane;fontStyle=1;align=center;verticalAlign=middle;childLayout=stackLayout;horizontal=1;startSize=50;horizontalStack=0;resizeParent=0;resizeLast=1;container=0;fontColor=#000000;collapsible=0;rounded=1;arcSize=13;strokeColor=#ff0000;fillColor=#ffffc0;swimlaneFillColor=#ffffc0;dropTarget=0;" parent="0x7zI7fZM2jy_gg8qVNA-92" vertex="1">
          <mxGeometry x="1000.0000000000001" y="150" width="150" height="140" as="geometry" />
        </mxCell>
        <mxCell id="kYp0fLCExw43RTJGJkSH-8" value="+&amp;nbsp; Aguarda robô fora&lt;br&gt;+ Aguarda grampeadeira em cima&lt;br&gt;+ Aguarda esteira embaixo e sem pacote" style="text;html=1;strokeColor=none;fillColor=none;align=center;verticalAlign=middle;spacingLeft=4;spacingRight=4;whiteSpace=wrap;overflow=hidden;rotatable=0;fontColor=#000000;" parent="kYp0fLCExw43RTJGJkSH-7" vertex="1">
          <mxGeometry y="50" width="150" height="90" as="geometry" />
        </mxCell>
        <mxCell id="KuBNZnhi7Ist9UkGT_8b-12" value="" style="edgeStyle=orthogonalEdgeStyle;rounded=0;orthogonalLoop=1;jettySize=auto;html=1;exitX=0.5;exitY=1;exitDx=0;exitDy=0;" parent="0x7zI7fZM2jy_gg8qVNA-92" source="kYp0fLCExw43RTJGJkSH-8" target="KuBNZnhi7Ist9UkGT_8b-15" edge="1">
          <mxGeometry relative="1" as="geometry" />
        </mxCell>
        <mxCell id="kYp0fLCExw43RTJGJkSH-9" value="Tem permissão" style="edgeLabel;html=1;align=center;verticalAlign=middle;resizable=0;points=[];" parent="KuBNZnhi7Ist9UkGT_8b-12" vertex="1" connectable="0">
          <mxGeometry x="-0.1397" y="1" relative="1" as="geometry">
            <mxPoint as="offset" />
          </mxGeometry>
        </mxCell>
        <mxCell id="KuBNZnhi7Ist9UkGT_8b-6" style="edgeStyle=orthogonalEdgeStyle;rounded=0;orthogonalLoop=1;jettySize=auto;html=1;exitX=0.5;exitY=0;exitDx=0;exitDy=0;entryX=0.5;entryY=0;entryDx=0;entryDy=0;" parent="0x7zI7fZM2jy_gg8qVNA-92" source="KuBNZnhi7Ist9UkGT_8b-7" target="kYp0fLCExw43RTJGJkSH-7" edge="1">
          <mxGeometry relative="1" as="geometry" />
        </mxCell>
        <mxCell id="kYp0fLCExw43RTJGJkSH-4" value="Sim" style="edgeLabel;html=1;align=center;verticalAlign=middle;resizable=0;points=[];" parent="KuBNZnhi7Ist9UkGT_8b-6" vertex="1" connectable="0">
          <mxGeometry x="-0.0777" y="3" relative="1" as="geometry">
            <mxPoint x="1" as="offset" />
          </mxGeometry>
        </mxCell>
        <mxCell id="kYp0fLCExw43RTJGJkSH-10" value="14&#xa;Aguardando permissão&#xa;para recuar mesa" style="swimlane;fontStyle=1;align=center;verticalAlign=middle;childLayout=stackLayout;horizontal=1;startSize=50;horizontalStack=0;resizeParent=0;resizeLast=1;container=0;fontColor=#000000;collapsible=0;rounded=1;arcSize=11;strokeColor=#ff0000;fillColor=#ffffc0;swimlaneFillColor=#ffffc0;dropTarget=0;" parent="0x7zI7fZM2jy_gg8qVNA-92" vertex="1">
          <mxGeometry x="230" y="710" width="150" height="160" as="geometry" />
        </mxCell>
        <mxCell id="kYp0fLCExw43RTJGJkSH-11" value="+&amp;nbsp; Aguarda robô fora&lt;br&gt;+ Aguarda grampeadeira em cima&lt;br&gt;+ Aguarda esteira remover estator&lt;br&gt;+ Recua expansores de mandril" style="text;html=1;strokeColor=none;fillColor=none;align=center;verticalAlign=middle;spacingLeft=4;spacingRight=4;whiteSpace=wrap;overflow=hidden;rotatable=0;fontColor=#000000;" parent="kYp0fLCExw43RTJGJkSH-10" vertex="1">
          <mxGeometry y="50" width="150" height="110" as="geometry" />
        </mxCell>
        <mxCell id="kYp0fLCExw43RTJGJkSH-16" value="15&#xa;Recuando mesa" style="swimlane;fontStyle=1;align=center;verticalAlign=middle;childLayout=stackLayout;horizontal=1;startSize=50;horizontalStack=0;resizeParent=0;resizeLast=1;container=0;fontColor=#000000;collapsible=0;rounded=1;arcSize=7;strokeColor=#ff0000;fillColor=#ffffc0;swimlaneFillColor=#ffffc0;dropTarget=0;" parent="0x7zI7fZM2jy_gg8qVNA-92" vertex="1">
          <mxGeometry x="450.14" y="770" width="120" height="100" as="geometry" />
        </mxCell>
        <mxCell id="kYp0fLCExw43RTJGJkSH-17" value="+ Recua expansores de mandril" style="text;html=1;strokeColor=none;fillColor=none;align=center;verticalAlign=middle;spacingLeft=4;spacingRight=4;whiteSpace=wrap;overflow=hidden;rotatable=0;fontColor=#000000;" parent="kYp0fLCExw43RTJGJkSH-16" vertex="1">
          <mxGeometry y="50" width="120" height="50" as="geometry" />
        </mxCell>
        <mxCell id="kYp0fLCExw43RTJGJkSH-21" value="Não" style="edgeStyle=orthogonalEdgeStyle;rounded=0;orthogonalLoop=1;jettySize=auto;html=1;" parent="0x7zI7fZM2jy_gg8qVNA-92" source="kYp0fLCExw43RTJGJkSH-19" target="kYp0fLCExw43RTJGJkSH-20" edge="1">
          <mxGeometry relative="1" as="geometry" />
        </mxCell>
        <mxCell id="kYp0fLCExw43RTJGJkSH-28" style="edgeStyle=orthogonalEdgeStyle;rounded=0;orthogonalLoop=1;jettySize=auto;html=1;exitX=1;exitY=0.5;exitDx=0;exitDy=0;entryX=0.5;entryY=0;entryDx=0;entryDy=0;" parent="0x7zI7fZM2jy_gg8qVNA-92" source="kYp0fLCExw43RTJGJkSH-19" target="KuBNZnhi7Ist9UkGT_8b-59" edge="1">
          <mxGeometry relative="1" as="geometry" />
        </mxCell>
        <mxCell id="kYp0fLCExw43RTJGJkSH-29" value="Sim" style="edgeLabel;html=1;align=center;verticalAlign=middle;resizable=0;points=[];" parent="kYp0fLCExw43RTJGJkSH-28" vertex="1" connectable="0">
          <mxGeometry x="-0.6232" y="1" relative="1" as="geometry">
            <mxPoint as="offset" />
          </mxGeometry>
        </mxCell>
        <mxCell id="kYp0fLCExw43RTJGJkSH-19" value="&amp;nbsp;Giro em posição de entrada?" style="rhombus;whiteSpace=wrap;html=1;" parent="0x7zI7fZM2jy_gg8qVNA-92" vertex="1">
          <mxGeometry x="625" y="660" width="80" height="80" as="geometry" />
        </mxCell>
        <mxCell id="kYp0fLCExw43RTJGJkSH-24" style="edgeStyle=orthogonalEdgeStyle;rounded=0;orthogonalLoop=1;jettySize=auto;html=1;exitX=0.5;exitY=1;exitDx=0;exitDy=0;entryX=0.5;entryY=0;entryDx=0;entryDy=0;" parent="0x7zI7fZM2jy_gg8qVNA-92" source="kYp0fLCExw43RTJGJkSH-20" target="kYp0fLCExw43RTJGJkSH-16" edge="1">
          <mxGeometry relative="1" as="geometry" />
        </mxCell>
        <mxCell id="kYp0fLCExw43RTJGJkSH-25" value="Posicionou" style="edgeLabel;html=1;align=center;verticalAlign=middle;resizable=0;points=[];" parent="kYp0fLCExw43RTJGJkSH-24" vertex="1" connectable="0">
          <mxGeometry x="-0.2971" y="1" relative="1" as="geometry">
            <mxPoint as="offset" />
          </mxGeometry>
        </mxCell>
        <mxCell id="kYp0fLCExw43RTJGJkSH-20" value="16&lt;br&gt;Girando servo para entrada" style="rounded=1;whiteSpace=wrap;html=1;arcSize=24;fillColor=#ffffc0;strokeColor=#ff0000;shadow=0;comic=0;labelBackgroundColor=none;fontFamily=Verdana;fontSize=12;fontColor=#000000;align=center;" parent="0x7zI7fZM2jy_gg8qVNA-92" vertex="1">
          <mxGeometry x="450.14" y="670" width="120" height="60" as="geometry" />
        </mxCell>
        <mxCell id="0x7zI7fZM2jy_gg8qVNA-174" value="0&lt;br&gt;Sem permissão&lt;br&gt;para ciclo" style="rounded=1;whiteSpace=wrap;html=1;arcSize=24;fillColor=#ffffc0;strokeColor=#ff0000;shadow=0;comic=0;labelBackgroundColor=none;fontFamily=Verdana;fontSize=12;fontColor=#000000;align=center;" parent="1" vertex="1">
          <mxGeometry x="129.86" y="20" width="120" height="60" as="geometry" />
        </mxCell>
        <mxCell id="0x7zI7fZM2jy_gg8qVNA-175" value="" style="edgeStyle=orthogonalEdgeStyle;rounded=0;orthogonalLoop=1;jettySize=auto;html=1;entryX=0.175;entryY=-0.002;entryDx=0;entryDy=0;entryPerimeter=0;" parent="1" source="0x7zI7fZM2jy_gg8qVNA-174" target="0x7zI7fZM2jy_gg8qVNA-92" edge="1">
          <mxGeometry relative="1" as="geometry">
            <mxPoint x="349.86" y="110" as="targetPoint" />
            <Array as="points">
              <mxPoint x="305.86" y="50" />
            </Array>
          </mxGeometry>
        </mxCell>
        <mxCell id="0x7zI7fZM2jy_gg8qVNA-176" value="Permissão OK" style="edgeLabel;html=1;align=center;verticalAlign=middle;resizable=0;points=[];" parent="0x7zI7fZM2jy_gg8qVNA-175" vertex="1" connectable="0">
          <mxGeometry x="-0.0608" relative="1" as="geometry">
            <mxPoint as="offset" />
          </mxGeometry>
        </mxCell>
        <mxCell id="0x7zI7fZM2jy_gg8qVNA-177" style="edgeStyle=orthogonalEdgeStyle;rounded=0;orthogonalLoop=1;jettySize=auto;html=1;exitX=0.5;exitY=0;exitDx=0;exitDy=0;entryX=0;entryY=0.25;entryDx=0;entryDy=0;" parent="1" source="0x7zI7fZM2jy_gg8qVNA-178" target="0x7zI7fZM2jy_gg8qVNA-174" edge="1">
          <mxGeometry relative="1" as="geometry" />
        </mxCell>
        <mxCell id="0x7zI7fZM2jy_gg8qVNA-178" value="" style="ellipse;html=1;shape=startState;fillColor=#000000;strokeColor=#ff0000;rounded=1;shadow=0;comic=0;labelBackgroundColor=none;fontFamily=Verdana;fontSize=12;fontColor=#000000;align=center;direction=south;" parent="1" vertex="1">
          <mxGeometry x="39.86" y="20" width="30" height="30" as="geometry" />
        </mxCell>
      </root>
    </mxGraphModel>
  </diagram>
  <diagram id="CXbRj9zyZ983vYRtzm-L" name="PosBas">
    <mxGraphModel dx="1674" dy="780" grid="1" gridSize="10" guides="1" tooltips="1" connect="1" arrows="1" fold="1" page="1" pageScale="1" pageWidth="827" pageHeight="1169" math="0" shadow="0">
      <root>
        <mxCell id="0" />
        <mxCell id="1" parent="0" />
        <mxCell id="_BQeQWQ_mlzuI1BdjxCd-157" style="edgeStyle=orthogonalEdgeStyle;rounded=0;orthogonalLoop=1;jettySize=auto;html=1;exitX=0.25;exitY=0;exitDx=0;exitDy=0;entryX=1;entryY=0.5;entryDx=0;entryDy=0;" edge="1" parent="1" source="_BQeQWQ_mlzuI1BdjxCd-3" target="_BQeQWQ_mlzuI1BdjxCd-152">
          <mxGeometry relative="1" as="geometry">
            <Array as="points">
              <mxPoint x="213" y="100" />
              <mxPoint x="213" y="100" />
              <mxPoint x="213" y="85" />
            </Array>
          </mxGeometry>
        </mxCell>
        <mxCell id="_BQeQWQ_mlzuI1BdjxCd-159" value="&lt;font style=&quot;font-size: 14px;&quot;&gt;Sem permissão&lt;/font&gt;&lt;div&gt;&lt;font style=&quot;font-size: 14px;&quot;&gt;para ciclo&lt;/font&gt;&lt;/div&gt;" style="edgeLabel;html=1;align=center;verticalAlign=middle;resizable=0;points=[];" vertex="1" connectable="0" parent="_BQeQWQ_mlzuI1BdjxCd-157">
          <mxGeometry x="-0.0124" y="2" relative="1" as="geometry">
            <mxPoint x="-8" y="-1" as="offset" />
          </mxGeometry>
        </mxCell>
        <mxCell id="_BQeQWQ_mlzuI1BdjxCd-3" value="&lt;font style=&quot;font-size: 14px;&quot;&gt;Ciclo de Busca de Posição Básica&lt;/font&gt;" style="swimlane;whiteSpace=wrap;html=1;" vertex="1" parent="1">
          <mxGeometry x="10" y="130" width="810" height="500" as="geometry">
            <mxRectangle x="10" y="130" width="230" height="30" as="alternateBounds" />
          </mxGeometry>
        </mxCell>
        <mxCell id="_BQeQWQ_mlzuI1BdjxCd-100" value="" style="edgeStyle=orthogonalEdgeStyle;rounded=0;orthogonalLoop=1;jettySize=auto;html=1;" edge="1" parent="_BQeQWQ_mlzuI1BdjxCd-3" source="_BQeQWQ_mlzuI1BdjxCd-4" target="_BQeQWQ_mlzuI1BdjxCd-95">
          <mxGeometry relative="1" as="geometry" />
        </mxCell>
        <mxCell id="_BQeQWQ_mlzuI1BdjxCd-101" value="&lt;font style=&quot;font-size: 14px;&quot;&gt;Abriu&lt;/font&gt;" style="edgeLabel;html=1;align=center;verticalAlign=middle;resizable=0;points=[];" vertex="1" connectable="0" parent="_BQeQWQ_mlzuI1BdjxCd-100">
          <mxGeometry x="0.1411" y="-2" relative="1" as="geometry">
            <mxPoint x="-7" y="-1" as="offset" />
          </mxGeometry>
        </mxCell>
        <mxCell id="_BQeQWQ_mlzuI1BdjxCd-4" value="&lt;div&gt;&lt;font style=&quot;font-size: 14px;&quot;&gt;Abrindo rolos&lt;/font&gt;&lt;/div&gt;" style="rounded=1;whiteSpace=wrap;html=1;arcSize=24;fillColor=#ffffc0;strokeColor=#ff0000;shadow=0;comic=0;labelBackgroundColor=none;fontFamily=Verdana;fontSize=12;fontColor=#000000;align=center;" vertex="1" parent="_BQeQWQ_mlzuI1BdjxCd-3">
          <mxGeometry x="477" y="98" width="120" height="60" as="geometry" />
        </mxCell>
        <mxCell id="_BQeQWQ_mlzuI1BdjxCd-27" style="edgeStyle=orthogonalEdgeStyle;rounded=0;orthogonalLoop=1;jettySize=auto;html=1;exitX=0.5;exitY=1;exitDx=0;exitDy=0;entryX=0;entryY=0.5;entryDx=0;entryDy=0;" edge="1" parent="_BQeQWQ_mlzuI1BdjxCd-3" source="_BQeQWQ_mlzuI1BdjxCd-148" target="_BQeQWQ_mlzuI1BdjxCd-92">
          <mxGeometry relative="1" as="geometry">
            <Array as="points">
              <mxPoint x="727" y="469" />
              <mxPoint x="17" y="469" />
              <mxPoint x="17" y="128" />
            </Array>
            <mxPoint x="177" y="130" as="targetPoint" />
            <mxPoint x="47" y="1118.94" as="sourcePoint" />
          </mxGeometry>
        </mxCell>
        <mxCell id="_BQeQWQ_mlzuI1BdjxCd-28" value="&lt;span style=&quot;font-size: 14px;&quot;&gt;Busca&lt;/span&gt;&lt;div&gt;&lt;span style=&quot;font-size: 14px;&quot;&gt;posição&lt;/span&gt;&lt;/div&gt;&lt;div&gt;&lt;span style=&quot;font-size: 14px;&quot;&gt;básica&lt;/span&gt;&lt;/div&gt;" style="edgeStyle=orthogonalEdgeStyle;rounded=0;orthogonalLoop=1;jettySize=auto;html=1;entryX=0;entryY=0.5;entryDx=0;entryDy=0;startArrow=none;exitX=1;exitY=0.5;exitDx=0;exitDy=0;" edge="1" parent="_BQeQWQ_mlzuI1BdjxCd-3" source="_BQeQWQ_mlzuI1BdjxCd-92" target="_BQeQWQ_mlzuI1BdjxCd-30">
          <mxGeometry x="0.0116" relative="1" as="geometry">
            <mxPoint x="316.99999999999955" y="138" as="sourcePoint" />
            <mxPoint x="577" y="128" as="targetPoint" />
            <mxPoint as="offset" />
          </mxGeometry>
        </mxCell>
        <mxCell id="_BQeQWQ_mlzuI1BdjxCd-29" value="&lt;font style=&quot;font-size: 14px;&quot;&gt;Abriu&lt;/font&gt;" style="edgeStyle=orthogonalEdgeStyle;rounded=0;orthogonalLoop=1;jettySize=auto;html=1;" edge="1" parent="_BQeQWQ_mlzuI1BdjxCd-3" source="_BQeQWQ_mlzuI1BdjxCd-30" target="_BQeQWQ_mlzuI1BdjxCd-4">
          <mxGeometry x="0.0105" relative="1" as="geometry">
            <mxPoint as="offset" />
          </mxGeometry>
        </mxCell>
        <mxCell id="_BQeQWQ_mlzuI1BdjxCd-30" value="&lt;font style=&quot;font-size: 14px;&quot;&gt;Abrindo facas&lt;/font&gt;" style="rounded=1;whiteSpace=wrap;html=1;arcSize=24;fillColor=#ffffc0;strokeColor=#ff0000;shadow=0;comic=0;labelBackgroundColor=none;fontFamily=Verdana;fontSize=12;fontColor=#000000;align=center;" vertex="1" parent="_BQeQWQ_mlzuI1BdjxCd-3">
          <mxGeometry x="261" y="98" width="120" height="60" as="geometry" />
        </mxCell>
        <mxCell id="_BQeQWQ_mlzuI1BdjxCd-57" style="edgeStyle=orthogonalEdgeStyle;rounded=0;orthogonalLoop=1;jettySize=auto;html=1;exitX=0.5;exitY=0;exitDx=0;exitDy=0;entryX=0.5;entryY=0;entryDx=0;entryDy=0;" edge="1" parent="_BQeQWQ_mlzuI1BdjxCd-3" source="_BQeQWQ_mlzuI1BdjxCd-58" target="_BQeQWQ_mlzuI1BdjxCd-92">
          <mxGeometry relative="1" as="geometry">
            <mxPoint x="177" y="88" as="targetPoint" />
          </mxGeometry>
        </mxCell>
        <mxCell id="_BQeQWQ_mlzuI1BdjxCd-58" value="" style="ellipse;html=1;shape=startState;fillColor=#000000;strokeColor=#ff0000;rounded=1;shadow=0;comic=0;labelBackgroundColor=none;fontFamily=Verdana;fontSize=12;fontColor=#000000;align=center;direction=south;" vertex="1" parent="_BQeQWQ_mlzuI1BdjxCd-3">
          <mxGeometry x="17" y="47.5" width="30" height="30" as="geometry" />
        </mxCell>
        <mxCell id="_BQeQWQ_mlzuI1BdjxCd-92" value="&lt;div&gt;&lt;font style=&quot;font-size: 14px;&quot;&gt;Aguardando&lt;/font&gt;&lt;/div&gt;&lt;div&gt;&lt;font style=&quot;font-size: 14px;&quot;&gt;comando&lt;/font&gt;&lt;/div&gt;" style="rounded=1;whiteSpace=wrap;html=1;arcSize=24;fillColor=#ffffc0;strokeColor=#ff0000;shadow=0;comic=0;labelBackgroundColor=none;fontFamily=Verdana;fontSize=12;fontColor=#000000;align=center;" vertex="1" parent="_BQeQWQ_mlzuI1BdjxCd-3">
          <mxGeometry x="57" y="98" width="120" height="60" as="geometry" />
        </mxCell>
        <mxCell id="_BQeQWQ_mlzuI1BdjxCd-104" value="" style="edgeStyle=orthogonalEdgeStyle;rounded=0;orthogonalLoop=1;jettySize=auto;html=1;" edge="1" parent="_BQeQWQ_mlzuI1BdjxCd-3" source="_BQeQWQ_mlzuI1BdjxCd-95" target="_BQeQWQ_mlzuI1BdjxCd-103">
          <mxGeometry relative="1" as="geometry" />
        </mxCell>
        <mxCell id="_BQeQWQ_mlzuI1BdjxCd-105" value="&lt;font style=&quot;font-size: 14px;&quot;&gt;Recuou&lt;/font&gt;" style="edgeLabel;html=1;align=center;verticalAlign=middle;resizable=0;points=[];" vertex="1" connectable="0" parent="_BQeQWQ_mlzuI1BdjxCd-104">
          <mxGeometry x="-0.25" y="-2" relative="1" as="geometry">
            <mxPoint y="2" as="offset" />
          </mxGeometry>
        </mxCell>
        <mxCell id="_BQeQWQ_mlzuI1BdjxCd-95" value="&lt;div&gt;&lt;span style=&quot;font-size: 14px;&quot;&gt;Recuando&lt;/span&gt;&lt;/div&gt;&lt;div&gt;&lt;span style=&quot;font-size: 14px;&quot;&gt;esticadores&lt;/span&gt;&lt;/div&gt;" style="rounded=1;whiteSpace=wrap;html=1;arcSize=24;fillColor=#ffffc0;strokeColor=#ff0000;shadow=0;comic=0;labelBackgroundColor=none;fontFamily=Verdana;fontSize=12;fontColor=#000000;align=center;" vertex="1" parent="_BQeQWQ_mlzuI1BdjxCd-3">
          <mxGeometry x="677" y="98" width="120" height="60" as="geometry" />
        </mxCell>
        <mxCell id="_BQeQWQ_mlzuI1BdjxCd-113" value="" style="edgeStyle=orthogonalEdgeStyle;rounded=0;orthogonalLoop=1;jettySize=auto;html=1;" edge="1" parent="_BQeQWQ_mlzuI1BdjxCd-3" source="_BQeQWQ_mlzuI1BdjxCd-103" target="_BQeQWQ_mlzuI1BdjxCd-108">
          <mxGeometry relative="1" as="geometry" />
        </mxCell>
        <mxCell id="_BQeQWQ_mlzuI1BdjxCd-114" value="&lt;font style=&quot;font-size: 14px;&quot;&gt;Recuou&lt;/font&gt;" style="edgeLabel;html=1;align=center;verticalAlign=middle;resizable=0;points=[];" vertex="1" connectable="0" parent="_BQeQWQ_mlzuI1BdjxCd-113">
          <mxGeometry x="-0.0103" y="1" relative="1" as="geometry">
            <mxPoint as="offset" />
          </mxGeometry>
        </mxCell>
        <mxCell id="_BQeQWQ_mlzuI1BdjxCd-103" value="&lt;div&gt;&lt;span style=&quot;font-size: 14px;&quot;&gt;Recuando&lt;/span&gt;&lt;/div&gt;&lt;div&gt;&lt;span style=&quot;font-size: 14px;&quot;&gt;rolagem e&amp;nbsp;&lt;/span&gt;&lt;/div&gt;&lt;div&gt;&lt;span style=&quot;font-size: 14px;&quot;&gt;compactação&lt;/span&gt;&lt;/div&gt;" style="rounded=1;whiteSpace=wrap;html=1;arcSize=24;fillColor=#ffffc0;strokeColor=#ff0000;shadow=0;comic=0;labelBackgroundColor=none;fontFamily=Verdana;fontSize=12;fontColor=#000000;align=center;" vertex="1" parent="_BQeQWQ_mlzuI1BdjxCd-3">
          <mxGeometry x="677" y="207" width="120" height="79" as="geometry" />
        </mxCell>
        <mxCell id="_BQeQWQ_mlzuI1BdjxCd-118" value="" style="edgeStyle=orthogonalEdgeStyle;rounded=0;orthogonalLoop=1;jettySize=auto;html=1;" edge="1" parent="_BQeQWQ_mlzuI1BdjxCd-3" source="_BQeQWQ_mlzuI1BdjxCd-108" target="_BQeQWQ_mlzuI1BdjxCd-117">
          <mxGeometry relative="1" as="geometry" />
        </mxCell>
        <mxCell id="_BQeQWQ_mlzuI1BdjxCd-119" value="&lt;span style=&quot;font-size: 14px;&quot;&gt;Posicionou&lt;/span&gt;" style="edgeLabel;html=1;align=center;verticalAlign=middle;resizable=0;points=[];" vertex="1" connectable="0" parent="_BQeQWQ_mlzuI1BdjxCd-118">
          <mxGeometry x="0.1281" relative="1" as="geometry">
            <mxPoint x="7" as="offset" />
          </mxGeometry>
        </mxCell>
        <mxCell id="_BQeQWQ_mlzuI1BdjxCd-108" value="&lt;div&gt;&lt;span style=&quot;font-size: 14px; background-color: initial;&quot;&gt;Movendo&lt;/span&gt;&lt;br&gt;&lt;/div&gt;&lt;div&gt;&lt;font style=&quot;font-size: 14px;&quot;&gt;posicionadores&lt;/font&gt;&lt;/div&gt;" style="rounded=1;whiteSpace=wrap;html=1;arcSize=24;fillColor=#ffffc0;strokeColor=#ff0000;shadow=0;comic=0;labelBackgroundColor=none;fontFamily=Verdana;fontSize=12;fontColor=#000000;align=center;" vertex="1" parent="_BQeQWQ_mlzuI1BdjxCd-3">
          <mxGeometry x="477" y="217.25" width="120" height="56.75" as="geometry" />
        </mxCell>
        <mxCell id="_BQeQWQ_mlzuI1BdjxCd-123" value="" style="edgeStyle=orthogonalEdgeStyle;rounded=0;orthogonalLoop=1;jettySize=auto;html=1;" edge="1" parent="_BQeQWQ_mlzuI1BdjxCd-3" source="_BQeQWQ_mlzuI1BdjxCd-117" target="_BQeQWQ_mlzuI1BdjxCd-122">
          <mxGeometry relative="1" as="geometry" />
        </mxCell>
        <mxCell id="_BQeQWQ_mlzuI1BdjxCd-125" value="&lt;font style=&quot;font-size: 14px;&quot;&gt;Recuou&lt;/font&gt;" style="edgeLabel;html=1;align=center;verticalAlign=middle;resizable=0;points=[];" vertex="1" connectable="0" parent="_BQeQWQ_mlzuI1BdjxCd-123">
          <mxGeometry x="-0.1037" y="-1" relative="1" as="geometry">
            <mxPoint as="offset" />
          </mxGeometry>
        </mxCell>
        <mxCell id="_BQeQWQ_mlzuI1BdjxCd-117" value="&lt;div&gt;&lt;span style=&quot;font-size: 14px; background-color: initial;&quot;&gt;Recuando&lt;/span&gt;&lt;/div&gt;&lt;div&gt;&lt;span style=&quot;font-size: 14px; background-color: initial;&quot;&gt;mesa&lt;/span&gt;&lt;br&gt;&lt;/div&gt;" style="rounded=1;whiteSpace=wrap;html=1;arcSize=24;fillColor=#ffffc0;strokeColor=#ff0000;shadow=0;comic=0;labelBackgroundColor=none;fontFamily=Verdana;fontSize=12;fontColor=#000000;align=center;" vertex="1" parent="_BQeQWQ_mlzuI1BdjxCd-3">
          <mxGeometry x="261" y="217.25" width="120" height="56.75" as="geometry" />
        </mxCell>
        <mxCell id="_BQeQWQ_mlzuI1BdjxCd-130" style="edgeStyle=orthogonalEdgeStyle;rounded=0;orthogonalLoop=1;jettySize=auto;html=1;exitX=0.5;exitY=1;exitDx=0;exitDy=0;entryX=0;entryY=0.5;entryDx=0;entryDy=0;" edge="1" parent="_BQeQWQ_mlzuI1BdjxCd-3" source="_BQeQWQ_mlzuI1BdjxCd-122" target="_BQeQWQ_mlzuI1BdjxCd-126">
          <mxGeometry relative="1" as="geometry" />
        </mxCell>
        <mxCell id="_BQeQWQ_mlzuI1BdjxCd-131" value="&lt;font style=&quot;font-size: 14px;&quot;&gt;Não&lt;/font&gt;" style="edgeLabel;html=1;align=center;verticalAlign=middle;resizable=0;points=[];" vertex="1" connectable="0" parent="_BQeQWQ_mlzuI1BdjxCd-130">
          <mxGeometry x="-0.0613" y="-1" relative="1" as="geometry">
            <mxPoint as="offset" />
          </mxGeometry>
        </mxCell>
        <mxCell id="_BQeQWQ_mlzuI1BdjxCd-135" style="edgeStyle=orthogonalEdgeStyle;rounded=0;orthogonalLoop=1;jettySize=auto;html=1;exitX=0;exitY=0.5;exitDx=0;exitDy=0;entryX=0;entryY=0.5;entryDx=0;entryDy=0;" edge="1" parent="_BQeQWQ_mlzuI1BdjxCd-3" source="_BQeQWQ_mlzuI1BdjxCd-122" target="_BQeQWQ_mlzuI1BdjxCd-134">
          <mxGeometry relative="1" as="geometry" />
        </mxCell>
        <mxCell id="_BQeQWQ_mlzuI1BdjxCd-136" value="&lt;font style=&quot;font-size: 14px;&quot;&gt;Sim&lt;/font&gt;" style="edgeLabel;html=1;align=center;verticalAlign=middle;resizable=0;points=[];" vertex="1" connectable="0" parent="_BQeQWQ_mlzuI1BdjxCd-135">
          <mxGeometry x="-0.1612" relative="1" as="geometry">
            <mxPoint y="-1" as="offset" />
          </mxGeometry>
        </mxCell>
        <mxCell id="_BQeQWQ_mlzuI1BdjxCd-122" value="&lt;span style=&quot;font-size: 14px;&quot;&gt;Compactação&lt;/span&gt;&lt;div&gt;&lt;span style=&quot;font-size: 14px;&quot;&gt;referenciada?&lt;/span&gt;&lt;/div&gt;" style="rhombus;whiteSpace=wrap;html=1;" vertex="1" parent="_BQeQWQ_mlzuI1BdjxCd-3">
          <mxGeometry x="57" y="186" width="120" height="121" as="geometry" />
        </mxCell>
        <mxCell id="_BQeQWQ_mlzuI1BdjxCd-132" style="edgeStyle=orthogonalEdgeStyle;rounded=0;orthogonalLoop=1;jettySize=auto;html=1;exitX=1;exitY=0.5;exitDx=0;exitDy=0;entryX=0.5;entryY=1;entryDx=0;entryDy=0;" edge="1" parent="_BQeQWQ_mlzuI1BdjxCd-3" source="_BQeQWQ_mlzuI1BdjxCd-126" target="_BQeQWQ_mlzuI1BdjxCd-103">
          <mxGeometry relative="1" as="geometry" />
        </mxCell>
        <mxCell id="_BQeQWQ_mlzuI1BdjxCd-133" value="&lt;font style=&quot;font-size: 14px;&quot;&gt;Referenciou&lt;/font&gt;" style="edgeLabel;html=1;align=center;verticalAlign=middle;resizable=0;points=[];" vertex="1" connectable="0" parent="_BQeQWQ_mlzuI1BdjxCd-132">
          <mxGeometry x="-0.2653" y="2" relative="1" as="geometry">
            <mxPoint as="offset" />
          </mxGeometry>
        </mxCell>
        <mxCell id="_BQeQWQ_mlzuI1BdjxCd-126" value="&lt;font style=&quot;font-size: 14px;&quot;&gt;Referenciando&lt;/font&gt;&lt;div&gt;&lt;font style=&quot;font-size: 14px;&quot;&gt;compactação&lt;/font&gt;&lt;/div&gt;" style="rounded=1;whiteSpace=wrap;html=1;arcSize=24;fillColor=#ffffc0;strokeColor=#ff0000;shadow=0;comic=0;labelBackgroundColor=none;fontFamily=Verdana;fontSize=12;fontColor=#000000;align=center;" vertex="1" parent="_BQeQWQ_mlzuI1BdjxCd-3">
          <mxGeometry x="370" y="310.00000000000006" width="120" height="60" as="geometry" />
        </mxCell>
        <mxCell id="_BQeQWQ_mlzuI1BdjxCd-138" value="" style="edgeStyle=orthogonalEdgeStyle;rounded=0;orthogonalLoop=1;jettySize=auto;html=1;" edge="1" parent="_BQeQWQ_mlzuI1BdjxCd-3" source="_BQeQWQ_mlzuI1BdjxCd-134" target="_BQeQWQ_mlzuI1BdjxCd-137">
          <mxGeometry relative="1" as="geometry" />
        </mxCell>
        <mxCell id="_BQeQWQ_mlzuI1BdjxCd-139" value="&lt;font style=&quot;font-size: 14px;&quot;&gt;Referenciou&lt;/font&gt;" style="edgeLabel;html=1;align=center;verticalAlign=middle;resizable=0;points=[];" vertex="1" connectable="0" parent="_BQeQWQ_mlzuI1BdjxCd-138">
          <mxGeometry x="-0.0779" y="2" relative="1" as="geometry">
            <mxPoint as="offset" />
          </mxGeometry>
        </mxCell>
        <mxCell id="_BQeQWQ_mlzuI1BdjxCd-134" value="&lt;font style=&quot;font-size: 14px;&quot;&gt;Referenciando&lt;/font&gt;&lt;div&gt;&lt;font style=&quot;font-size: 14px;&quot;&gt;mandril&lt;/font&gt;&lt;/div&gt;" style="rounded=1;whiteSpace=wrap;html=1;arcSize=24;fillColor=#ffffc0;strokeColor=#ff0000;shadow=0;comic=0;labelBackgroundColor=none;fontFamily=Verdana;fontSize=12;fontColor=#000000;align=center;" vertex="1" parent="_BQeQWQ_mlzuI1BdjxCd-3">
          <mxGeometry x="57" y="397" width="110" height="60" as="geometry" />
        </mxCell>
        <mxCell id="_BQeQWQ_mlzuI1BdjxCd-143" value="" style="edgeStyle=orthogonalEdgeStyle;rounded=0;orthogonalLoop=1;jettySize=auto;html=1;" edge="1" parent="_BQeQWQ_mlzuI1BdjxCd-3" source="_BQeQWQ_mlzuI1BdjxCd-137" target="_BQeQWQ_mlzuI1BdjxCd-142">
          <mxGeometry relative="1" as="geometry" />
        </mxCell>
        <mxCell id="_BQeQWQ_mlzuI1BdjxCd-144" value="&lt;font style=&quot;font-size: 14px;&quot;&gt;Moveu&lt;/font&gt;" style="edgeLabel;html=1;align=center;verticalAlign=middle;resizable=0;points=[];" vertex="1" connectable="0" parent="_BQeQWQ_mlzuI1BdjxCd-143">
          <mxGeometry x="0.1905" y="2" relative="1" as="geometry">
            <mxPoint x="-10" as="offset" />
          </mxGeometry>
        </mxCell>
        <mxCell id="_BQeQWQ_mlzuI1BdjxCd-137" value="&lt;span style=&quot;font-size: 14px;&quot;&gt;Movendo mandril para&lt;/span&gt;&lt;div&gt;&lt;span style=&quot;font-size: 14px;&quot;&gt;zero&lt;/span&gt;&lt;/div&gt;" style="rounded=1;whiteSpace=wrap;html=1;arcSize=24;fillColor=#ffffc0;strokeColor=#ff0000;shadow=0;comic=0;labelBackgroundColor=none;fontFamily=Verdana;fontSize=12;fontColor=#000000;align=center;" vertex="1" parent="_BQeQWQ_mlzuI1BdjxCd-3">
          <mxGeometry x="261" y="397.00000000000006" width="120" height="60" as="geometry" />
        </mxCell>
        <mxCell id="_BQeQWQ_mlzuI1BdjxCd-149" value="" style="edgeStyle=orthogonalEdgeStyle;rounded=0;orthogonalLoop=1;jettySize=auto;html=1;" edge="1" parent="_BQeQWQ_mlzuI1BdjxCd-3" source="_BQeQWQ_mlzuI1BdjxCd-142" target="_BQeQWQ_mlzuI1BdjxCd-148">
          <mxGeometry relative="1" as="geometry" />
        </mxCell>
        <mxCell id="_BQeQWQ_mlzuI1BdjxCd-150" value="&lt;font style=&quot;font-size: 14px;&quot;&gt;Retraiu&lt;/font&gt;" style="edgeLabel;html=1;align=center;verticalAlign=middle;resizable=0;points=[];" vertex="1" connectable="0" parent="_BQeQWQ_mlzuI1BdjxCd-149">
          <mxGeometry y="4" relative="1" as="geometry">
            <mxPoint as="offset" />
          </mxGeometry>
        </mxCell>
        <mxCell id="_BQeQWQ_mlzuI1BdjxCd-142" value="&lt;span style=&quot;font-size: 14px;&quot;&gt;Retraindo mandril&lt;/span&gt;" style="rounded=1;whiteSpace=wrap;html=1;arcSize=24;fillColor=#ffffc0;strokeColor=#ff0000;shadow=0;comic=0;labelBackgroundColor=none;fontFamily=Verdana;fontSize=12;fontColor=#000000;align=center;" vertex="1" parent="_BQeQWQ_mlzuI1BdjxCd-3">
          <mxGeometry x="477" y="397.00000000000006" width="120" height="60" as="geometry" />
        </mxCell>
        <mxCell id="_BQeQWQ_mlzuI1BdjxCd-148" value="&lt;span style=&quot;font-size: 14px;&quot;&gt;Finalizou ciclo&lt;/span&gt;" style="rounded=1;whiteSpace=wrap;html=1;arcSize=24;fillColor=#ffffc0;strokeColor=#ff0000;shadow=0;comic=0;labelBackgroundColor=none;fontFamily=Verdana;fontSize=12;fontColor=#000000;align=center;" vertex="1" parent="_BQeQWQ_mlzuI1BdjxCd-3">
          <mxGeometry x="667" y="397.00000000000006" width="120" height="60" as="geometry" />
        </mxCell>
        <mxCell id="_BQeQWQ_mlzuI1BdjxCd-153" value="&lt;span style=&quot;font-size: 14px;&quot;&gt;Tem permissão&lt;/span&gt;" style="edgeLabel;html=1;align=center;verticalAlign=middle;resizable=0;points=[];" vertex="1" connectable="0" parent="_BQeQWQ_mlzuI1BdjxCd-3">
          <mxGeometry x="57" y="40" as="geometry" />
        </mxCell>
        <mxCell id="_BQeQWQ_mlzuI1BdjxCd-152" value="" style="ellipse;html=1;shape=endState;fillColor=#000000;strokeColor=#ff0000;" vertex="1" parent="1">
          <mxGeometry x="30" y="70" width="30" height="30" as="geometry" />
        </mxCell>
      </root>
    </mxGraphModel>
  </diagram>
  <diagram id="NM-GPdnKK9kTAUkd-nAO" name="Gramp Resumido">
    <mxGraphModel dx="2575" dy="1200" grid="1" gridSize="10" guides="1" tooltips="1" connect="1" arrows="1" fold="1" page="1" pageScale="1" pageWidth="827" pageHeight="1169" math="0" shadow="0">
      <root>
        <mxCell id="0" />
        <mxCell id="1" parent="0" />
        <mxCell id="pWmWbSm3bh4cEy1T6yb1-7" style="edgeStyle=orthogonalEdgeStyle;rounded=0;orthogonalLoop=1;jettySize=auto;html=1;exitX=0.25;exitY=0;exitDx=0;exitDy=0;entryX=1;entryY=0.5;entryDx=0;entryDy=0;" edge="1" parent="1" source="66lcz6Rl48qsmQs1efQV-3" target="5akyIXq0Z7urSAb7SMgS-3">
          <mxGeometry relative="1" as="geometry" />
        </mxCell>
        <mxCell id="pWmWbSm3bh4cEy1T6yb1-10" value="&lt;font style=&quot;font-size: 14px;&quot;&gt;Sem permissão&lt;/font&gt;&lt;div&gt;&lt;font style=&quot;font-size: 14px;&quot;&gt;para ciclo&lt;/font&gt;&lt;/div&gt;" style="edgeLabel;html=1;align=center;verticalAlign=middle;resizable=0;points=[];" vertex="1" connectable="0" parent="pWmWbSm3bh4cEy1T6yb1-7">
          <mxGeometry x="0.5481" y="2" relative="1" as="geometry">
            <mxPoint x="47" y="-2" as="offset" />
          </mxGeometry>
        </mxCell>
        <mxCell id="66lcz6Rl48qsmQs1efQV-3" value="&lt;font style=&quot;font-size: 14px;&quot;&gt;Ciclo Automático Grampeamento&lt;/font&gt;" style="swimlane;whiteSpace=wrap;html=1;" vertex="1" parent="1">
          <mxGeometry x="130" y="130" width="1190" height="1020" as="geometry">
            <mxRectangle x="140" y="100" width="230" height="30" as="alternateBounds" />
          </mxGeometry>
        </mxCell>
        <mxCell id="66lcz6Rl48qsmQs1efQV-4" value="&lt;font style=&quot;font-size: 14px;&quot;&gt;Aguardando posicionar&lt;br&gt;mesa&lt;/font&gt;" style="rounded=1;whiteSpace=wrap;html=1;arcSize=24;fillColor=#ffffc0;strokeColor=#ff0000;shadow=0;comic=0;labelBackgroundColor=none;fontFamily=Verdana;fontSize=12;fontColor=#000000;align=center;" vertex="1" parent="66lcz6Rl48qsmQs1efQV-3">
          <mxGeometry x="571" y="90" width="120" height="60" as="geometry" />
        </mxCell>
        <mxCell id="z7vLh8hN3t4oGFZOxy9W-19" style="edgeStyle=orthogonalEdgeStyle;rounded=0;orthogonalLoop=1;jettySize=auto;html=1;exitX=1;exitY=0.5;exitDx=0;exitDy=0;entryX=0;entryY=0.5;entryDx=0;entryDy=0;" edge="1" parent="66lcz6Rl48qsmQs1efQV-3" source="66lcz6Rl48qsmQs1efQV-7" target="tN4NDZCizigh9g_TL_tZ-2">
          <mxGeometry relative="1" as="geometry" />
        </mxCell>
        <mxCell id="z7vLh8hN3t4oGFZOxy9W-20" value="&lt;font style=&quot;font-size: 14px;&quot;&gt;Avançou&lt;/font&gt;" style="edgeLabel;html=1;align=center;verticalAlign=middle;resizable=0;points=[];" vertex="1" connectable="0" parent="z7vLh8hN3t4oGFZOxy9W-19">
          <mxGeometry x="-0.7497" y="-2" relative="1" as="geometry">
            <mxPoint x="22" y="-2" as="offset" />
          </mxGeometry>
        </mxCell>
        <mxCell id="66lcz6Rl48qsmQs1efQV-7" value="&lt;font style=&quot;font-size: 14px;&quot;&gt;Avançando&lt;br&gt;esticadores&lt;/font&gt;" style="rounded=1;whiteSpace=wrap;html=1;arcSize=24;fillColor=#ffffc0;strokeColor=#ff0000;shadow=0;comic=0;labelBackgroundColor=none;fontFamily=Verdana;fontSize=12;fontColor=#000000;align=center;" vertex="1" parent="66lcz6Rl48qsmQs1efQV-3">
          <mxGeometry x="423.5" y="625" width="120" height="60" as="geometry" />
        </mxCell>
        <mxCell id="66lcz6Rl48qsmQs1efQV-8" value="&lt;font style=&quot;font-size: 14px;&quot;&gt;Desceu&lt;/font&gt;" style="edgeStyle=orthogonalEdgeStyle;rounded=0;orthogonalLoop=1;jettySize=auto;html=1;exitX=1;exitY=0;exitDx=0;exitDy=0;" edge="1" parent="66lcz6Rl48qsmQs1efQV-3" target="66lcz6Rl48qsmQs1efQV-7">
          <mxGeometry relative="1" as="geometry">
            <mxPoint x="191" y="649.9999999999998" as="sourcePoint" />
            <Array as="points">
              <mxPoint x="191" y="655" />
            </Array>
          </mxGeometry>
        </mxCell>
        <mxCell id="66lcz6Rl48qsmQs1efQV-10" value="&lt;font style=&quot;font-size: 14px;&quot;&gt;Descendo&lt;br&gt;compactação&lt;/font&gt;" style="rounded=1;whiteSpace=wrap;html=1;arcSize=24;fillColor=#ffffc0;strokeColor=#ff0000;shadow=0;comic=0;labelBackgroundColor=none;fontFamily=Verdana;fontSize=12;fontColor=#000000;align=center;" vertex="1" parent="66lcz6Rl48qsmQs1efQV-3">
          <mxGeometry x="71" y="280" width="120" height="60" as="geometry" />
        </mxCell>
        <mxCell id="66lcz6Rl48qsmQs1efQV-11" style="edgeStyle=orthogonalEdgeStyle;rounded=0;orthogonalLoop=1;jettySize=auto;html=1;exitX=0.5;exitY=1;exitDx=0;exitDy=0;entryX=0.5;entryY=0;entryDx=0;entryDy=0;" edge="1" parent="66lcz6Rl48qsmQs1efQV-3" source="66lcz6Rl48qsmQs1efQV-13" target="66lcz6Rl48qsmQs1efQV-10">
          <mxGeometry relative="1" as="geometry">
            <Array as="points">
              <mxPoint x="1096" y="190" />
              <mxPoint x="131" y="190" />
            </Array>
            <mxPoint x="111" y="350" as="targetPoint" />
          </mxGeometry>
        </mxCell>
        <mxCell id="66lcz6Rl48qsmQs1efQV-12" value="&lt;font style=&quot;font-size: 14px;&quot;&gt;Sim&lt;/font&gt;" style="edgeLabel;html=1;align=center;verticalAlign=middle;resizable=0;points=[];" vertex="1" connectable="0" parent="66lcz6Rl48qsmQs1efQV-11">
          <mxGeometry x="-0.7131" y="3" relative="1" as="geometry">
            <mxPoint as="offset" />
          </mxGeometry>
        </mxCell>
        <mxCell id="66lcz6Rl48qsmQs1efQV-13" value="&lt;font style=&quot;font-size: 14px;&quot;&gt;Medição&lt;br&gt;habilitada?&lt;/font&gt;" style="rhombus;whiteSpace=wrap;html=1;" vertex="1" parent="66lcz6Rl48qsmQs1efQV-3">
          <mxGeometry x="1041" y="64.75" width="110" height="109.5" as="geometry" />
        </mxCell>
        <mxCell id="66lcz6Rl48qsmQs1efQV-14" value="&lt;font style=&quot;font-size: 14px;&quot;&gt;Avançou&lt;/font&gt;" style="edgeStyle=orthogonalEdgeStyle;rounded=0;orthogonalLoop=1;jettySize=auto;html=1;startArrow=none;exitX=0;exitY=0.5;exitDx=0;exitDy=0;" edge="1" parent="66lcz6Rl48qsmQs1efQV-3" source="6RH7VO2fdScSDyHaxsTl-2" target="66lcz6Rl48qsmQs1efQV-10">
          <mxGeometry relative="1" as="geometry">
            <mxPoint x="449" y="315" as="sourcePoint" />
            <Array as="points">
              <mxPoint x="411" y="310" />
              <mxPoint x="411" y="310" />
            </Array>
          </mxGeometry>
        </mxCell>
        <mxCell id="66lcz6Rl48qsmQs1efQV-15" value="&lt;font style=&quot;font-size: 14px;&quot;&gt;Não&lt;/font&gt;" style="edgeStyle=orthogonalEdgeStyle;rounded=0;orthogonalLoop=1;jettySize=auto;html=1;exitX=1;exitY=0.5;exitDx=0;exitDy=0;entryX=0.25;entryY=0;entryDx=0;entryDy=0;" edge="1" parent="66lcz6Rl48qsmQs1efQV-3" source="66lcz6Rl48qsmQs1efQV-13" target="6RH7VO2fdScSDyHaxsTl-2">
          <mxGeometry relative="1" as="geometry">
            <mxPoint x="479" y="275" as="targetPoint" />
            <Array as="points">
              <mxPoint x="1161" y="120" />
              <mxPoint x="1161" y="220" />
              <mxPoint x="461" y="220" />
            </Array>
          </mxGeometry>
        </mxCell>
        <mxCell id="6RH7VO2fdScSDyHaxsTl-8" value="" style="edgeStyle=orthogonalEdgeStyle;rounded=0;orthogonalLoop=1;jettySize=auto;html=1;" edge="1" parent="66lcz6Rl48qsmQs1efQV-3" source="66lcz6Rl48qsmQs1efQV-16" target="6RH7VO2fdScSDyHaxsTl-7">
          <mxGeometry relative="1" as="geometry" />
        </mxCell>
        <mxCell id="6RH7VO2fdScSDyHaxsTl-9" value="&lt;span style=&quot;font-size: 14px;&quot;&gt;Sim&lt;/span&gt;" style="edgeLabel;html=1;align=center;verticalAlign=middle;resizable=0;points=[];" vertex="1" connectable="0" parent="6RH7VO2fdScSDyHaxsTl-8">
          <mxGeometry x="-0.3353" y="-1" relative="1" as="geometry">
            <mxPoint x="7" y="-2" as="offset" />
          </mxGeometry>
        </mxCell>
        <mxCell id="z7vLh8hN3t4oGFZOxy9W-13" style="edgeStyle=orthogonalEdgeStyle;rounded=0;orthogonalLoop=1;jettySize=auto;html=1;exitX=0.5;exitY=1;exitDx=0;exitDy=0;entryX=1;entryY=0.5;entryDx=0;entryDy=0;" edge="1" parent="66lcz6Rl48qsmQs1efQV-3" source="66lcz6Rl48qsmQs1efQV-16" target="pWmWbSm3bh4cEy1T6yb1-4">
          <mxGeometry relative="1" as="geometry">
            <mxPoint x="551" y="954" as="targetPoint" />
          </mxGeometry>
        </mxCell>
        <mxCell id="z7vLh8hN3t4oGFZOxy9W-14" value="&lt;font style=&quot;font-size: 14px;&quot;&gt;Não&lt;/font&gt;" style="edgeLabel;html=1;align=center;verticalAlign=middle;resizable=0;points=[];" vertex="1" connectable="0" parent="z7vLh8hN3t4oGFZOxy9W-13">
          <mxGeometry x="-0.8573" y="-2" relative="1" as="geometry">
            <mxPoint as="offset" />
          </mxGeometry>
        </mxCell>
        <mxCell id="66lcz6Rl48qsmQs1efQV-16" value="&lt;font style=&quot;font-size: 14px;&quot;&gt;Pacote&lt;br&gt;aprovado?&lt;/font&gt;" style="rhombus;whiteSpace=wrap;html=1;" vertex="1" parent="66lcz6Rl48qsmQs1efQV-3">
          <mxGeometry x="611" y="385" width="100" height="100" as="geometry" />
        </mxCell>
        <mxCell id="66lcz6Rl48qsmQs1efQV-17" value="&lt;font style=&quot;font-size: 14px;&quot;&gt;Sim&lt;/font&gt;" style="edgeStyle=orthogonalEdgeStyle;rounded=0;orthogonalLoop=1;jettySize=auto;html=1;" edge="1" parent="66lcz6Rl48qsmQs1efQV-3" source="66lcz6Rl48qsmQs1efQV-20" target="66lcz6Rl48qsmQs1efQV-16">
          <mxGeometry relative="1" as="geometry" />
        </mxCell>
        <mxCell id="66lcz6Rl48qsmQs1efQV-18" style="edgeStyle=orthogonalEdgeStyle;rounded=0;orthogonalLoop=1;jettySize=auto;html=1;exitX=0.5;exitY=1;exitDx=0;exitDy=0;entryX=0.75;entryY=0;entryDx=0;entryDy=0;" edge="1" parent="66lcz6Rl48qsmQs1efQV-3" source="66lcz6Rl48qsmQs1efQV-20" target="6RH7VO2fdScSDyHaxsTl-17">
          <mxGeometry relative="1" as="geometry">
            <mxPoint x="161" y="616" as="targetPoint" />
            <Array as="points">
              <mxPoint x="491" y="550" />
              <mxPoint x="161" y="550" />
            </Array>
          </mxGeometry>
        </mxCell>
        <mxCell id="66lcz6Rl48qsmQs1efQV-19" value="&lt;font style=&quot;font-size: 14px;&quot;&gt;Não&lt;/font&gt;" style="edgeLabel;html=1;align=center;verticalAlign=middle;resizable=0;points=[];" vertex="1" connectable="0" parent="66lcz6Rl48qsmQs1efQV-18">
          <mxGeometry x="-0.2332" y="-1" relative="1" as="geometry">
            <mxPoint x="114" y="-36" as="offset" />
          </mxGeometry>
        </mxCell>
        <mxCell id="66lcz6Rl48qsmQs1efQV-20" value="&lt;font style=&quot;font-size: 14px;&quot;&gt;Medição&lt;br&gt;habilitada?&lt;/font&gt;" style="rhombus;whiteSpace=wrap;html=1;" vertex="1" parent="66lcz6Rl48qsmQs1efQV-3">
          <mxGeometry x="438.5" y="383.75" width="105" height="102.5" as="geometry" />
        </mxCell>
        <mxCell id="66lcz6Rl48qsmQs1efQV-22" style="edgeStyle=orthogonalEdgeStyle;rounded=0;orthogonalLoop=1;jettySize=auto;html=1;exitX=1;exitY=0.5;exitDx=0;exitDy=0;entryX=0;entryY=0.5;entryDx=0;entryDy=0;" edge="1" parent="66lcz6Rl48qsmQs1efQV-3" source="66lcz6Rl48qsmQs1efQV-24" target="6RH7VO2fdScSDyHaxsTl-4">
          <mxGeometry relative="1" as="geometry">
            <mxPoint x="251" y="438" as="targetPoint" />
          </mxGeometry>
        </mxCell>
        <mxCell id="66lcz6Rl48qsmQs1efQV-23" value="&lt;font style=&quot;font-size: 14px;&quot;&gt;Não&lt;/font&gt;" style="edgeLabel;html=1;align=center;verticalAlign=middle;resizable=0;points=[];" vertex="1" connectable="0" parent="66lcz6Rl48qsmQs1efQV-22">
          <mxGeometry x="-0.0027" y="-3" relative="1" as="geometry">
            <mxPoint x="-3" y="-4" as="offset" />
          </mxGeometry>
        </mxCell>
        <mxCell id="6RH7VO2fdScSDyHaxsTl-15" style="edgeStyle=orthogonalEdgeStyle;rounded=0;orthogonalLoop=1;jettySize=auto;html=1;exitX=0.5;exitY=1;exitDx=0;exitDy=0;entryX=0.5;entryY=0;entryDx=0;entryDy=0;" edge="1" parent="66lcz6Rl48qsmQs1efQV-3" source="66lcz6Rl48qsmQs1efQV-24" target="6RH7VO2fdScSDyHaxsTl-17">
          <mxGeometry relative="1" as="geometry">
            <mxPoint x="131" y="616" as="targetPoint" />
          </mxGeometry>
        </mxCell>
        <mxCell id="6RH7VO2fdScSDyHaxsTl-16" value="&lt;font style=&quot;font-size: 14px;&quot;&gt;Sim&lt;/font&gt;" style="edgeLabel;html=1;align=center;verticalAlign=middle;resizable=0;points=[];" vertex="1" connectable="0" parent="6RH7VO2fdScSDyHaxsTl-15">
          <mxGeometry x="-0.4532" relative="1" as="geometry">
            <mxPoint as="offset" />
          </mxGeometry>
        </mxCell>
        <mxCell id="66lcz6Rl48qsmQs1efQV-24" value="&lt;font style=&quot;font-size: 14px;&quot;&gt;Já mediu?&lt;/font&gt;" style="rhombus;whiteSpace=wrap;html=1;" vertex="1" parent="66lcz6Rl48qsmQs1efQV-3">
          <mxGeometry x="86" y="387.5" width="90" height="95" as="geometry" />
        </mxCell>
        <mxCell id="66lcz6Rl48qsmQs1efQV-25" value="&lt;font style=&quot;font-size: 14px;&quot;&gt;Desceu&lt;/font&gt;" style="edgeStyle=orthogonalEdgeStyle;rounded=0;orthogonalLoop=1;jettySize=auto;html=1;" edge="1" parent="66lcz6Rl48qsmQs1efQV-3" source="66lcz6Rl48qsmQs1efQV-10" target="66lcz6Rl48qsmQs1efQV-24">
          <mxGeometry relative="1" as="geometry" />
        </mxCell>
        <mxCell id="66lcz6Rl48qsmQs1efQV-27" style="edgeStyle=orthogonalEdgeStyle;rounded=0;orthogonalLoop=1;jettySize=auto;html=1;exitX=0;exitY=0.5;exitDx=0;exitDy=0;entryX=0;entryY=0.5;entryDx=0;entryDy=0;" edge="1" parent="66lcz6Rl48qsmQs1efQV-3" source="pWmWbSm3bh4cEy1T6yb1-12" target="6iGoQ4rEna0kRSFvJEom-4">
          <mxGeometry relative="1" as="geometry">
            <Array as="points">
              <mxPoint x="31" y="954" />
              <mxPoint x="31" y="120" />
            </Array>
            <mxPoint x="191" y="130" as="targetPoint" />
            <mxPoint x="81" y="954" as="sourcePoint" />
          </mxGeometry>
        </mxCell>
        <mxCell id="pWmWbSm3bh4cEy1T6yb1-13" value="&lt;font style=&quot;font-size: 14px;&quot;&gt;Finalizou&lt;/font&gt;" style="edgeLabel;html=1;align=center;verticalAlign=middle;resizable=0;points=[];" vertex="1" connectable="0" parent="66lcz6Rl48qsmQs1efQV-27">
          <mxGeometry x="-0.7424" relative="1" as="geometry">
            <mxPoint x="16" y="14" as="offset" />
          </mxGeometry>
        </mxCell>
        <mxCell id="66lcz6Rl48qsmQs1efQV-28" value="&lt;span style=&quot;font-size: 14px;&quot;&gt;Comando&lt;/span&gt;&lt;div&gt;&lt;span style=&quot;font-size: 14px;&quot;&gt;de ciclo&lt;/span&gt;&lt;/div&gt;" style="edgeStyle=orthogonalEdgeStyle;rounded=0;orthogonalLoop=1;jettySize=auto;html=1;entryX=0;entryY=0.5;entryDx=0;entryDy=0;startArrow=none;exitX=1;exitY=0.5;exitDx=0;exitDy=0;" edge="1" parent="66lcz6Rl48qsmQs1efQV-3" source="6iGoQ4rEna0kRSFvJEom-4" target="66lcz6Rl48qsmQs1efQV-30">
          <mxGeometry relative="1" as="geometry">
            <mxPoint x="330.99999999999955" y="130" as="sourcePoint" />
            <mxPoint x="591" y="120" as="targetPoint" />
          </mxGeometry>
        </mxCell>
        <mxCell id="66lcz6Rl48qsmQs1efQV-29" value="&lt;font style=&quot;font-size: 14px;&quot;&gt;Posicionou&lt;/font&gt;" style="edgeStyle=orthogonalEdgeStyle;rounded=0;orthogonalLoop=1;jettySize=auto;html=1;" edge="1" parent="66lcz6Rl48qsmQs1efQV-3" source="66lcz6Rl48qsmQs1efQV-30" target="66lcz6Rl48qsmQs1efQV-4">
          <mxGeometry relative="1" as="geometry" />
        </mxCell>
        <mxCell id="66lcz6Rl48qsmQs1efQV-30" value="&lt;font style=&quot;font-size: 14px;&quot;&gt;Posicionando&lt;br&gt;cabeçotes&lt;/font&gt;" style="rounded=1;whiteSpace=wrap;html=1;arcSize=24;fillColor=#ffffc0;strokeColor=#ff0000;shadow=0;comic=0;labelBackgroundColor=none;fontFamily=Verdana;fontSize=12;fontColor=#000000;align=center;" vertex="1" parent="66lcz6Rl48qsmQs1efQV-3">
          <mxGeometry x="321" y="89.5" width="120" height="60" as="geometry" />
        </mxCell>
        <mxCell id="66lcz6Rl48qsmQs1efQV-31" value="" style="edgeStyle=orthogonalEdgeStyle;rounded=0;orthogonalLoop=1;jettySize=auto;html=1;entryX=0;entryY=0.5;entryDx=0;entryDy=0;" edge="1" parent="66lcz6Rl48qsmQs1efQV-3" source="66lcz6Rl48qsmQs1efQV-4" target="6iGoQ4rEna0kRSFvJEom-5">
          <mxGeometry relative="1" as="geometry">
            <mxPoint x="801.0000000000009" y="119.5" as="targetPoint" />
            <Array as="points">
              <mxPoint x="791" y="120" />
              <mxPoint x="791" y="120" />
            </Array>
          </mxGeometry>
        </mxCell>
        <mxCell id="6iGoQ4rEna0kRSFvJEom-6" value="&lt;font style=&quot;font-size: 14px;&quot;&gt;Posicionou&lt;/font&gt;" style="edgeLabel;html=1;align=center;verticalAlign=middle;resizable=0;points=[];" vertex="1" connectable="0" parent="66lcz6Rl48qsmQs1efQV-31">
          <mxGeometry x="-0.4732" y="-3" relative="1" as="geometry">
            <mxPoint x="19" y="-4" as="offset" />
          </mxGeometry>
        </mxCell>
        <mxCell id="66lcz6Rl48qsmQs1efQV-32" value="&lt;font style=&quot;font-size: 14px;&quot;&gt;Não&lt;/font&gt;" style="edgeStyle=orthogonalEdgeStyle;rounded=0;orthogonalLoop=1;jettySize=auto;html=1;exitX=1;exitY=0.5;exitDx=0;exitDy=0;entryX=0.75;entryY=0;entryDx=0;entryDy=0;" edge="1" parent="66lcz6Rl48qsmQs1efQV-3" source="66lcz6Rl48qsmQs1efQV-35" target="6RH7VO2fdScSDyHaxsTl-2">
          <mxGeometry x="-0.8873" relative="1" as="geometry">
            <mxPoint as="offset" />
            <mxPoint x="509" y="275" as="targetPoint" />
            <Array as="points">
              <mxPoint x="1141" y="430" />
              <mxPoint x="1141" y="240" />
              <mxPoint x="521" y="240" />
            </Array>
          </mxGeometry>
        </mxCell>
        <mxCell id="66lcz6Rl48qsmQs1efQV-33" style="edgeStyle=orthogonalEdgeStyle;rounded=0;orthogonalLoop=1;jettySize=auto;html=1;exitX=0.5;exitY=0;exitDx=0;exitDy=0;entryX=1;entryY=0.5;entryDx=0;entryDy=0;" edge="1" parent="66lcz6Rl48qsmQs1efQV-3" source="66lcz6Rl48qsmQs1efQV-35" target="6RH7VO2fdScSDyHaxsTl-10">
          <mxGeometry relative="1" as="geometry">
            <mxPoint x="901" y="287.5" as="targetPoint" />
          </mxGeometry>
        </mxCell>
        <mxCell id="66lcz6Rl48qsmQs1efQV-34" value="&lt;font style=&quot;font-size: 14px;&quot;&gt;Sim&lt;/font&gt;" style="edgeLabel;html=1;align=center;verticalAlign=middle;resizable=0;points=[];" vertex="1" connectable="0" parent="66lcz6Rl48qsmQs1efQV-33">
          <mxGeometry x="-0.4553" y="1" relative="1" as="geometry">
            <mxPoint y="22" as="offset" />
          </mxGeometry>
        </mxCell>
        <mxCell id="66lcz6Rl48qsmQs1efQV-35" value="&lt;font style=&quot;font-size: 14px;&quot;&gt;Já fez o 1°&lt;br&gt;ciclo?&lt;/font&gt;" style="rhombus;whiteSpace=wrap;html=1;" vertex="1" parent="66lcz6Rl48qsmQs1efQV-3">
          <mxGeometry x="1011" y="376.25" width="110" height="103.75" as="geometry" />
        </mxCell>
        <mxCell id="66lcz6Rl48qsmQs1efQV-36" value="&lt;font style=&quot;font-size: 14px;&quot;&gt;Subiu&lt;/font&gt;" style="edgeStyle=orthogonalEdgeStyle;rounded=0;orthogonalLoop=1;jettySize=auto;html=1;exitX=1;exitY=0.5;exitDx=0;exitDy=0;" edge="1" parent="66lcz6Rl48qsmQs1efQV-3" target="66lcz6Rl48qsmQs1efQV-35">
          <mxGeometry relative="1" as="geometry">
            <mxPoint x="901" y="430" as="sourcePoint" />
          </mxGeometry>
        </mxCell>
        <mxCell id="66lcz6Rl48qsmQs1efQV-37" value="&lt;font style=&quot;font-size: 14px;&quot;&gt;Já fez o 2°&lt;br&gt;ciclo?&lt;/font&gt;" style="rhombus;whiteSpace=wrap;html=1;" vertex="1" parent="66lcz6Rl48qsmQs1efQV-3">
          <mxGeometry x="1015" y="608.5" width="102" height="93" as="geometry" />
        </mxCell>
        <mxCell id="66lcz6Rl48qsmQs1efQV-38" style="edgeStyle=orthogonalEdgeStyle;rounded=0;orthogonalLoop=1;jettySize=auto;html=1;exitX=1;exitY=0.5;exitDx=0;exitDy=0;entryX=0;entryY=0.5;entryDx=0;entryDy=0;" edge="1" parent="66lcz6Rl48qsmQs1efQV-3" target="66lcz6Rl48qsmQs1efQV-37" source="tN4NDZCizigh9g_TL_tZ-2">
          <mxGeometry relative="1" as="geometry">
            <mxPoint x="649" y="656" as="sourcePoint" />
          </mxGeometry>
        </mxCell>
        <mxCell id="66lcz6Rl48qsmQs1efQV-39" value="&lt;font style=&quot;font-size: 14px;&quot;&gt;Avançou&lt;/font&gt;" style="edgeLabel;html=1;align=center;verticalAlign=middle;resizable=0;points=[];" vertex="1" connectable="0" parent="66lcz6Rl48qsmQs1efQV-38">
          <mxGeometry x="-0.1969" relative="1" as="geometry">
            <mxPoint as="offset" />
          </mxGeometry>
        </mxCell>
        <mxCell id="66lcz6Rl48qsmQs1efQV-40" value="&lt;font style=&quot;font-size: 14px;&quot;&gt;Subindo com&amp;nbsp;&lt;br&gt;estator&lt;/font&gt;" style="rounded=1;whiteSpace=wrap;html=1;arcSize=24;fillColor=#ffffc0;strokeColor=#ff0000;shadow=0;comic=0;labelBackgroundColor=none;fontFamily=Verdana;fontSize=12;fontColor=#000000;align=center;" vertex="1" parent="66lcz6Rl48qsmQs1efQV-3">
          <mxGeometry x="1011" y="782.5" width="120" height="60" as="geometry" />
        </mxCell>
        <mxCell id="66lcz6Rl48qsmQs1efQV-43" value="&lt;font style=&quot;font-size: 14px;&quot;&gt;Sim&lt;/font&gt;" style="edgeStyle=orthogonalEdgeStyle;rounded=0;orthogonalLoop=1;jettySize=auto;html=1;exitX=0.5;exitY=1;exitDx=0;exitDy=0;entryX=0.5;entryY=0;entryDx=0;entryDy=0;" edge="1" parent="66lcz6Rl48qsmQs1efQV-3" source="66lcz6Rl48qsmQs1efQV-37" target="66lcz6Rl48qsmQs1efQV-40">
          <mxGeometry relative="1" as="geometry">
            <mxPoint as="offset" />
            <mxPoint x="1029" y="746.0000000000002" as="targetPoint" />
          </mxGeometry>
        </mxCell>
        <mxCell id="66lcz6Rl48qsmQs1efQV-44" value="&lt;font style=&quot;font-size: 14px;&quot;&gt;Recuou&lt;/font&gt;" style="edgeStyle=orthogonalEdgeStyle;rounded=0;orthogonalLoop=1;jettySize=auto;html=1;exitX=0.5;exitY=0;exitDx=0;exitDy=0;entryX=0.5;entryY=1;entryDx=0;entryDy=0;" edge="1" parent="66lcz6Rl48qsmQs1efQV-3" source="66lcz6Rl48qsmQs1efQV-45" target="6RH7VO2fdScSDyHaxsTl-7">
          <mxGeometry relative="1" as="geometry">
            <mxPoint x="841" y="470" as="targetPoint" />
          </mxGeometry>
        </mxCell>
        <mxCell id="66lcz6Rl48qsmQs1efQV-45" value="&lt;font style=&quot;font-size: 14px;&quot;&gt;Recuando&lt;/font&gt;&lt;div&gt;&lt;span style=&quot;font-size: 14px; background-color: initial;&quot;&gt;facas&amp;nbsp;&lt;/span&gt;&lt;span style=&quot;font-size: 14px; background-color: initial;&quot;&gt;e rolos&lt;/span&gt;&lt;/div&gt;" style="rounded=1;whiteSpace=wrap;html=1;arcSize=24;fillColor=#ffffc0;strokeColor=#ff0000;shadow=0;comic=0;labelBackgroundColor=none;fontFamily=Verdana;fontSize=12;fontColor=#000000;align=center;" vertex="1" parent="66lcz6Rl48qsmQs1efQV-3">
          <mxGeometry x="781" y="520" width="120" height="60" as="geometry" />
        </mxCell>
        <mxCell id="66lcz6Rl48qsmQs1efQV-46" style="edgeStyle=orthogonalEdgeStyle;rounded=0;orthogonalLoop=1;jettySize=auto;html=1;exitX=0.5;exitY=0;exitDx=0;exitDy=0;entryX=1;entryY=0.5;entryDx=0;entryDy=0;" edge="1" parent="66lcz6Rl48qsmQs1efQV-3" source="66lcz6Rl48qsmQs1efQV-37" target="66lcz6Rl48qsmQs1efQV-45">
          <mxGeometry relative="1" as="geometry" />
        </mxCell>
        <mxCell id="66lcz6Rl48qsmQs1efQV-47" value="&lt;font style=&quot;font-size: 14px;&quot;&gt;Não&lt;/font&gt;" style="edgeLabel;html=1;align=center;verticalAlign=middle;resizable=0;points=[];" vertex="1" connectable="0" parent="66lcz6Rl48qsmQs1efQV-46">
          <mxGeometry x="0.0546" y="-1" relative="1" as="geometry">
            <mxPoint as="offset" />
          </mxGeometry>
        </mxCell>
        <mxCell id="66lcz6Rl48qsmQs1efQV-48" value="&lt;font style=&quot;font-size: 14px;&quot;&gt;Subiu&lt;/font&gt;" style="edgeStyle=orthogonalEdgeStyle;rounded=0;orthogonalLoop=1;jettySize=auto;html=1;entryX=1;entryY=0.5;entryDx=0;entryDy=0;" edge="1" parent="66lcz6Rl48qsmQs1efQV-3" source="66lcz6Rl48qsmQs1efQV-40" target="z7vLh8hN3t4oGFZOxy9W-12">
          <mxGeometry relative="1" as="geometry">
            <mxPoint x="649" y="812.5" as="targetPoint" />
          </mxGeometry>
        </mxCell>
        <mxCell id="66lcz6Rl48qsmQs1efQV-52" value="&lt;font style=&quot;font-size: 14px;&quot;&gt;Soltou&lt;/font&gt;" style="edgeStyle=orthogonalEdgeStyle;rounded=0;orthogonalLoop=1;jettySize=auto;html=1;entryX=0.5;entryY=0;entryDx=0;entryDy=0;exitX=0.5;exitY=1;exitDx=0;exitDy=0;" edge="1" parent="66lcz6Rl48qsmQs1efQV-3" source="pWmWbSm3bh4cEy1T6yb1-1" target="pWmWbSm3bh4cEy1T6yb1-4">
          <mxGeometry relative="1" as="geometry">
            <Array as="points">
              <mxPoint x="131" y="884" />
              <mxPoint x="491" y="884" />
            </Array>
            <mxPoint x="131" y="860.0000000000002" as="sourcePoint" />
            <mxPoint x="491" y="924" as="targetPoint" />
          </mxGeometry>
        </mxCell>
        <mxCell id="66lcz6Rl48qsmQs1efQV-54" value="&lt;font style=&quot;font-size: 14px;&quot;&gt;Subiu&lt;/font&gt;" style="edgeStyle=orthogonalEdgeStyle;rounded=0;orthogonalLoop=1;jettySize=auto;html=1;exitX=0;exitY=0.5;exitDx=0;exitDy=0;entryX=1;entryY=0.5;entryDx=0;entryDy=0;" edge="1" parent="66lcz6Rl48qsmQs1efQV-3" source="pWmWbSm3bh4cEy1T6yb1-4" target="pWmWbSm3bh4cEy1T6yb1-12">
          <mxGeometry relative="1" as="geometry">
            <mxPoint x="431" y="954" as="sourcePoint" />
            <mxPoint x="201" y="954" as="targetPoint" />
          </mxGeometry>
        </mxCell>
        <mxCell id="66lcz6Rl48qsmQs1efQV-55" value="" style="edgeStyle=orthogonalEdgeStyle;rounded=0;orthogonalLoop=1;jettySize=auto;html=1;entryX=1;entryY=0.5;entryDx=0;entryDy=0;exitX=0;exitY=0.5;exitDx=0;exitDy=0;" edge="1" parent="66lcz6Rl48qsmQs1efQV-3" target="6RH7VO2fdScSDyHaxsTl-2">
          <mxGeometry relative="1" as="geometry">
            <mxPoint x="781" y="310" as="sourcePoint" />
            <mxPoint x="569" y="310" as="targetPoint" />
          </mxGeometry>
        </mxCell>
        <mxCell id="66lcz6Rl48qsmQs1efQV-56" value="&lt;font style=&quot;font-size: 14px;&quot;&gt;Posicionou&lt;/font&gt;" style="edgeLabel;html=1;align=center;verticalAlign=middle;resizable=0;points=[];" vertex="1" connectable="0" parent="66lcz6Rl48qsmQs1efQV-55">
          <mxGeometry x="-0.2282" y="2" relative="1" as="geometry">
            <mxPoint x="-12" y="-2" as="offset" />
          </mxGeometry>
        </mxCell>
        <mxCell id="66lcz6Rl48qsmQs1efQV-65" style="edgeStyle=orthogonalEdgeStyle;rounded=0;orthogonalLoop=1;jettySize=auto;html=1;exitX=1;exitY=0.5;exitDx=0;exitDy=0;entryX=0;entryY=0.5;entryDx=0;entryDy=0;" edge="1" parent="66lcz6Rl48qsmQs1efQV-3" source="6iGoQ4rEna0kRSFvJEom-5" target="66lcz6Rl48qsmQs1efQV-13">
          <mxGeometry relative="1" as="geometry">
            <Array as="points">
              <mxPoint x="921" y="120" />
            </Array>
            <mxPoint x="940.9999999999995" y="119.5" as="sourcePoint" />
          </mxGeometry>
        </mxCell>
        <mxCell id="6iGoQ4rEna0kRSFvJEom-8" value="&lt;font style=&quot;font-size: 14px;&quot;&gt;Recuou&lt;/font&gt;" style="edgeLabel;html=1;align=center;verticalAlign=middle;resizable=0;points=[];" vertex="1" connectable="0" parent="66lcz6Rl48qsmQs1efQV-65">
          <mxGeometry x="-0.0765" y="-1" relative="1" as="geometry">
            <mxPoint x="26" y="-1" as="offset" />
          </mxGeometry>
        </mxCell>
        <mxCell id="6iGoQ4rEna0kRSFvJEom-4" value="&lt;font style=&quot;font-size: 14px;&quot;&gt;Aguardando&lt;/font&gt;&lt;div&gt;&lt;font style=&quot;font-size: 14px;&quot;&gt;comando&lt;/font&gt;&lt;/div&gt;" style="rounded=1;whiteSpace=wrap;html=1;arcSize=24;fillColor=#ffffc0;strokeColor=#ff0000;shadow=0;comic=0;labelBackgroundColor=none;fontFamily=Verdana;fontSize=12;fontColor=#000000;align=center;" vertex="1" parent="66lcz6Rl48qsmQs1efQV-3">
          <mxGeometry x="71" y="90" width="120" height="60" as="geometry" />
        </mxCell>
        <mxCell id="6iGoQ4rEna0kRSFvJEom-1" style="edgeStyle=orthogonalEdgeStyle;rounded=0;orthogonalLoop=1;jettySize=auto;html=1;exitX=0.5;exitY=0;exitDx=0;exitDy=0;entryX=0.75;entryY=0;entryDx=0;entryDy=0;" edge="1" parent="66lcz6Rl48qsmQs1efQV-3" source="6iGoQ4rEna0kRSFvJEom-2" target="6iGoQ4rEna0kRSFvJEom-4">
          <mxGeometry relative="1" as="geometry">
            <mxPoint x="156" y="90.5" as="targetPoint" />
          </mxGeometry>
        </mxCell>
        <mxCell id="6iGoQ4rEna0kRSFvJEom-2" value="" style="ellipse;html=1;shape=startState;fillColor=#000000;strokeColor=#ff0000;rounded=1;shadow=0;comic=0;labelBackgroundColor=none;fontFamily=Verdana;fontSize=12;fontColor=#000000;align=center;direction=south;" vertex="1" parent="66lcz6Rl48qsmQs1efQV-3">
          <mxGeometry x="31" y="39.5" width="30" height="30" as="geometry" />
        </mxCell>
        <mxCell id="6iGoQ4rEna0kRSFvJEom-3" value="&lt;span style=&quot;font-size: 14px;&quot;&gt;Tem&lt;/span&gt;&lt;div&gt;&lt;span style=&quot;font-size: 14px;&quot;&gt;permissão&lt;/span&gt;&lt;/div&gt;" style="edgeLabel;html=1;align=center;verticalAlign=middle;resizable=0;points=[];" vertex="1" connectable="0" parent="66lcz6Rl48qsmQs1efQV-3">
          <mxGeometry x="101" y="60" as="geometry">
            <mxPoint x="8" y="-9" as="offset" />
          </mxGeometry>
        </mxCell>
        <mxCell id="6iGoQ4rEna0kRSFvJEom-5" value="&lt;span style=&quot;font-size: 14px;&quot;&gt;Recuando esticadores&lt;/span&gt;" style="rounded=1;whiteSpace=wrap;html=1;arcSize=24;fillColor=#ffffc0;strokeColor=#ff0000;shadow=0;comic=0;labelBackgroundColor=none;fontFamily=Verdana;fontSize=12;fontColor=#000000;align=center;" vertex="1" parent="66lcz6Rl48qsmQs1efQV-3">
          <mxGeometry x="821" y="89.5" width="120" height="60" as="geometry" />
        </mxCell>
        <mxCell id="6RH7VO2fdScSDyHaxsTl-2" value="&lt;span style=&quot;font-size: 14px;&quot;&gt;Avançando&lt;/span&gt;&lt;div&gt;&lt;span style=&quot;font-size: 14px;&quot;&gt;rolos&lt;/span&gt;&lt;/div&gt;" style="rounded=1;whiteSpace=wrap;html=1;arcSize=24;fillColor=#ffffc0;strokeColor=#ff0000;shadow=0;comic=0;labelBackgroundColor=none;fontFamily=Verdana;fontSize=12;fontColor=#000000;align=center;" vertex="1" parent="66lcz6Rl48qsmQs1efQV-3">
          <mxGeometry x="431" y="280" width="120" height="60" as="geometry" />
        </mxCell>
        <mxCell id="6RH7VO2fdScSDyHaxsTl-5" value="" style="edgeStyle=orthogonalEdgeStyle;rounded=0;orthogonalLoop=1;jettySize=auto;html=1;" edge="1" parent="66lcz6Rl48qsmQs1efQV-3" source="6RH7VO2fdScSDyHaxsTl-4" target="66lcz6Rl48qsmQs1efQV-20">
          <mxGeometry relative="1" as="geometry" />
        </mxCell>
        <mxCell id="6RH7VO2fdScSDyHaxsTl-6" value="&lt;font style=&quot;font-size: 14px;&quot;&gt;Mediu&lt;/font&gt;" style="edgeLabel;html=1;align=center;verticalAlign=middle;resizable=0;points=[];" vertex="1" connectable="0" parent="6RH7VO2fdScSDyHaxsTl-5">
          <mxGeometry x="-0.044" relative="1" as="geometry">
            <mxPoint as="offset" />
          </mxGeometry>
        </mxCell>
        <mxCell id="6RH7VO2fdScSDyHaxsTl-4" value="&lt;span style=&quot;font-size: 14px;&quot;&gt;Medindo&lt;/span&gt;&lt;div&gt;&lt;span style=&quot;font-size: 14px;&quot;&gt;pacote&lt;/span&gt;&lt;/div&gt;" style="rounded=1;whiteSpace=wrap;html=1;arcSize=24;fillColor=#ffffc0;strokeColor=#ff0000;shadow=0;comic=0;labelBackgroundColor=none;fontFamily=Verdana;fontSize=12;fontColor=#000000;align=center;" vertex="1" parent="66lcz6Rl48qsmQs1efQV-3">
          <mxGeometry x="241" y="405" width="120" height="60" as="geometry" />
        </mxCell>
        <mxCell id="6RH7VO2fdScSDyHaxsTl-7" value="&lt;span style=&quot;font-size: 14px;&quot;&gt;Subindo para&amp;nbsp;&lt;/span&gt;&lt;span style=&quot;font-size: 14px; background-color: initial;&quot;&gt;iniciar grampeamento&lt;/span&gt;" style="rounded=1;whiteSpace=wrap;html=1;arcSize=24;fillColor=#ffffc0;strokeColor=#ff0000;shadow=0;comic=0;labelBackgroundColor=none;fontFamily=Verdana;fontSize=12;fontColor=#000000;align=center;" vertex="1" parent="66lcz6Rl48qsmQs1efQV-3">
          <mxGeometry x="781" y="405" width="120" height="60" as="geometry" />
        </mxCell>
        <mxCell id="6RH7VO2fdScSDyHaxsTl-10" value="&lt;span style=&quot;font-size: 14px;&quot;&gt;Aguardando posicionar mandril&lt;/span&gt;" style="rounded=1;whiteSpace=wrap;html=1;arcSize=24;fillColor=#ffffc0;strokeColor=#ff0000;shadow=0;comic=0;labelBackgroundColor=none;fontFamily=Verdana;fontSize=12;fontColor=#000000;align=center;" vertex="1" parent="66lcz6Rl48qsmQs1efQV-3">
          <mxGeometry x="781" y="280" width="120" height="60" as="geometry" />
        </mxCell>
        <mxCell id="6RH7VO2fdScSDyHaxsTl-17" value="&lt;span style=&quot;font-size: 14px;&quot;&gt;Descendo rolagem&lt;/span&gt;" style="rounded=1;whiteSpace=wrap;html=1;arcSize=24;fillColor=#ffffc0;strokeColor=#ff0000;shadow=0;comic=0;labelBackgroundColor=none;fontFamily=Verdana;fontSize=12;fontColor=#000000;align=center;" vertex="1" parent="66lcz6Rl48qsmQs1efQV-3">
          <mxGeometry x="71" y="625" width="120" height="60" as="geometry" />
        </mxCell>
        <mxCell id="tN4NDZCizigh9g_TL_tZ-2" value="&lt;font style=&quot;font-size: 14px;&quot;&gt;Avançando&lt;br&gt;facas&lt;/font&gt;" style="rounded=1;whiteSpace=wrap;html=1;arcSize=24;fillColor=#ffffc0;strokeColor=#ff0000;shadow=0;comic=0;labelBackgroundColor=none;fontFamily=Verdana;fontSize=12;fontColor=#000000;align=center;" vertex="1" parent="66lcz6Rl48qsmQs1efQV-3">
          <mxGeometry x="781" y="625" width="120" height="60" as="geometry" />
        </mxCell>
        <mxCell id="z7vLh8hN3t4oGFZOxy9W-17" style="edgeStyle=orthogonalEdgeStyle;rounded=0;orthogonalLoop=1;jettySize=auto;html=1;exitX=0;exitY=0.5;exitDx=0;exitDy=0;entryX=1;entryY=0.5;entryDx=0;entryDy=0;" edge="1" parent="66lcz6Rl48qsmQs1efQV-3" source="z7vLh8hN3t4oGFZOxy9W-12" target="z7vLh8hN3t4oGFZOxy9W-15">
          <mxGeometry relative="1" as="geometry" />
        </mxCell>
        <mxCell id="z7vLh8hN3t4oGFZOxy9W-18" value="&lt;span style=&quot;font-size: 14px;&quot;&gt;Recuou&lt;/span&gt;" style="edgeLabel;html=1;align=center;verticalAlign=middle;resizable=0;points=[];" vertex="1" connectable="0" parent="z7vLh8hN3t4oGFZOxy9W-17">
          <mxGeometry x="-0.4622" y="2" relative="1" as="geometry">
            <mxPoint y="-3" as="offset" />
          </mxGeometry>
        </mxCell>
        <mxCell id="z7vLh8hN3t4oGFZOxy9W-12" value="&lt;span style=&quot;font-size: 14px;&quot;&gt;Aguardando&lt;/span&gt;&lt;div&gt;&lt;span style=&quot;font-size: 14px;&quot;&gt;recuar a mesa&lt;/span&gt;&lt;/div&gt;" style="rounded=1;whiteSpace=wrap;html=1;arcSize=24;fillColor=#ffffc0;strokeColor=#ff0000;shadow=0;comic=0;labelBackgroundColor=none;fontFamily=Verdana;fontSize=12;fontColor=#000000;align=center;" vertex="1" parent="66lcz6Rl48qsmQs1efQV-3">
          <mxGeometry x="781" y="782.5" width="120" height="60" as="geometry" />
        </mxCell>
        <mxCell id="pWmWbSm3bh4cEy1T6yb1-2" style="edgeStyle=orthogonalEdgeStyle;rounded=0;orthogonalLoop=1;jettySize=auto;html=1;exitX=0;exitY=0.5;exitDx=0;exitDy=0;entryX=1;entryY=0.5;entryDx=0;entryDy=0;" edge="1" parent="66lcz6Rl48qsmQs1efQV-3" source="z7vLh8hN3t4oGFZOxy9W-15" target="pWmWbSm3bh4cEy1T6yb1-1">
          <mxGeometry relative="1" as="geometry" />
        </mxCell>
        <mxCell id="pWmWbSm3bh4cEy1T6yb1-3" value="&lt;font style=&quot;font-size: 14px;&quot;&gt;Desceu&lt;/font&gt;" style="edgeLabel;html=1;align=center;verticalAlign=middle;resizable=0;points=[];" vertex="1" connectable="0" parent="pWmWbSm3bh4cEy1T6yb1-2">
          <mxGeometry x="-0.3543" y="-3" relative="1" as="geometry">
            <mxPoint x="-1" y="1" as="offset" />
          </mxGeometry>
        </mxCell>
        <mxCell id="z7vLh8hN3t4oGFZOxy9W-15" value="&lt;span style=&quot;font-size: 14px;&quot;&gt;Descendo para&lt;/span&gt;&lt;div&gt;&lt;span style=&quot;font-size: 14px;&quot;&gt;soltar estator&amp;nbsp;&lt;/span&gt;&lt;/div&gt;" style="rounded=1;whiteSpace=wrap;html=1;arcSize=24;fillColor=#ffffc0;strokeColor=#ff0000;shadow=0;comic=0;labelBackgroundColor=none;fontFamily=Verdana;fontSize=12;fontColor=#000000;align=center;" vertex="1" parent="66lcz6Rl48qsmQs1efQV-3">
          <mxGeometry x="431" y="782.5" width="120" height="60" as="geometry" />
        </mxCell>
        <mxCell id="pWmWbSm3bh4cEy1T6yb1-1" value="&lt;span style=&quot;font-size: 14px;&quot;&gt;Soltando&lt;/span&gt;&lt;div&gt;&lt;span style=&quot;font-size: 14px;&quot;&gt;estator&lt;/span&gt;&lt;/div&gt;" style="rounded=1;whiteSpace=wrap;html=1;arcSize=24;fillColor=#ffffc0;strokeColor=#ff0000;shadow=0;comic=0;labelBackgroundColor=none;fontFamily=Verdana;fontSize=12;fontColor=#000000;align=center;" vertex="1" parent="66lcz6Rl48qsmQs1efQV-3">
          <mxGeometry x="71" y="782.5" width="120" height="60" as="geometry" />
        </mxCell>
        <mxCell id="pWmWbSm3bh4cEy1T6yb1-4" value="&lt;span style=&quot;font-size: 14px;&quot;&gt;Subindo compactação e rolagem&lt;/span&gt;" style="rounded=1;whiteSpace=wrap;html=1;arcSize=24;fillColor=#ffffc0;strokeColor=#ff0000;shadow=0;comic=0;labelBackgroundColor=none;fontFamily=Verdana;fontSize=12;fontColor=#000000;align=center;" vertex="1" parent="66lcz6Rl48qsmQs1efQV-3">
          <mxGeometry x="431" y="924" width="120" height="60" as="geometry" />
        </mxCell>
        <mxCell id="pWmWbSm3bh4cEy1T6yb1-12" value="&lt;span style=&quot;font-size: 14px;&quot;&gt;Aguardando&lt;/span&gt;&lt;div&gt;&lt;span style=&quot;font-size: 14px;&quot;&gt;fim de ciclo&lt;/span&gt;&lt;/div&gt;" style="rounded=1;whiteSpace=wrap;html=1;arcSize=24;fillColor=#ffffc0;strokeColor=#ff0000;shadow=0;comic=0;labelBackgroundColor=none;fontFamily=Verdana;fontSize=12;fontColor=#000000;align=center;" vertex="1" parent="66lcz6Rl48qsmQs1efQV-3">
          <mxGeometry x="81" y="924" width="120" height="60" as="geometry" />
        </mxCell>
        <mxCell id="5akyIXq0Z7urSAb7SMgS-3" value="" style="ellipse;html=1;shape=endState;fillColor=#000000;strokeColor=#ff0000;" vertex="1" parent="1">
          <mxGeometry x="160" y="60" width="30" height="30" as="geometry" />
        </mxCell>
      </root>
    </mxGraphModel>
  </diagram>
  <diagram id="AcOuoIQnOYXASWTrUOWA" name="Mesa Resumido">
    <mxGraphModel dx="2391" dy="1114" grid="1" gridSize="10" guides="1" tooltips="1" connect="1" arrows="1" fold="1" page="1" pageScale="1" pageWidth="827" pageHeight="1169" math="0" shadow="0">
      <root>
        <mxCell id="0" />
        <mxCell id="1" parent="0" />
        <mxCell id="ycTnqP42rRjcrLO88vXY-3" value="&lt;font style=&quot;font-size: 14px;&quot;&gt;Ciclo Automático Mesa&lt;/font&gt;" style="swimlane;whiteSpace=wrap;html=1;startSize=30;" vertex="1" parent="1">
          <mxGeometry x="90" y="100" width="1020" height="980" as="geometry">
            <mxRectangle x="115" y="1250" width="230" height="30" as="alternateBounds" />
          </mxGeometry>
        </mxCell>
        <mxCell id="ycTnqP42rRjcrLO88vXY-4" style="edgeStyle=orthogonalEdgeStyle;rounded=0;orthogonalLoop=1;jettySize=auto;html=1;exitX=1;exitY=0.5;exitDx=0;exitDy=0;entryX=0;entryY=0.5;entryDx=0;entryDy=0;" edge="1" parent="ycTnqP42rRjcrLO88vXY-3" source="sF7odQbE0kGt0TRowoj6-37" target="ycTnqP42rRjcrLO88vXY-8">
          <mxGeometry relative="1" as="geometry">
            <mxPoint x="745.14" y="187.5" as="sourcePoint" />
          </mxGeometry>
        </mxCell>
        <mxCell id="ycTnqP42rRjcrLO88vXY-5" value="&lt;font style=&quot;font-size: 14px;&quot;&gt;Não&lt;/font&gt;" style="edgeLabel;html=1;align=center;verticalAlign=middle;resizable=0;points=[];" vertex="1" connectable="0" parent="ycTnqP42rRjcrLO88vXY-4">
          <mxGeometry x="-0.062" y="3" relative="1" as="geometry">
            <mxPoint x="-3" as="offset" />
          </mxGeometry>
        </mxCell>
        <mxCell id="ycTnqP42rRjcrLO88vXY-8" value="&lt;div&gt;&lt;font style=&quot;font-size: 14px;&quot;&gt;Posicionando mandril&amp;nbsp;&lt;/font&gt;&lt;span style=&quot;font-size: 14px; background-color: initial;&quot;&gt;para 1° grampeamento&lt;/span&gt;&lt;/div&gt;" style="rounded=1;whiteSpace=wrap;html=1;arcSize=24;fillColor=#ffffc0;strokeColor=#ff0000;shadow=0;comic=0;labelBackgroundColor=none;fontFamily=Verdana;fontSize=12;fontColor=#000000;align=center;" vertex="1" parent="ycTnqP42rRjcrLO88vXY-3">
          <mxGeometry x="805" y="138.75" width="115" height="80" as="geometry" />
        </mxCell>
        <mxCell id="ycTnqP42rRjcrLO88vXY-9" value="&lt;font style=&quot;font-size: 14px;&quot;&gt;Expandiu&lt;/font&gt;" style="edgeStyle=orthogonalEdgeStyle;rounded=0;orthogonalLoop=1;jettySize=auto;html=1;entryX=0;entryY=0.5;entryDx=0;entryDy=0;exitX=1;exitY=0.5;exitDx=0;exitDy=0;" edge="1" parent="ycTnqP42rRjcrLO88vXY-3" source="_pUTNuSmbBA09sGU6Cl9-1" target="sF7odQbE0kGt0TRowoj6-37">
          <mxGeometry relative="1" as="geometry">
            <mxPoint x="640.0000000000001" y="187.5" as="targetPoint" />
            <mxPoint x="495.0000000000001" y="180" as="sourcePoint" />
          </mxGeometry>
        </mxCell>
        <mxCell id="ycTnqP42rRjcrLO88vXY-10" value="&lt;font style=&quot;font-size: 14px;&quot;&gt;Posicionou&lt;/font&gt;" style="edgeStyle=orthogonalEdgeStyle;rounded=0;orthogonalLoop=1;jettySize=auto;html=1;entryX=0.75;entryY=0;entryDx=0;entryDy=0;exitX=0.75;exitY=1;exitDx=0;exitDy=0;" edge="1" parent="ycTnqP42rRjcrLO88vXY-3" source="ycTnqP42rRjcrLO88vXY-8" target="sF7odQbE0kGt0TRowoj6-25">
          <mxGeometry relative="1" as="geometry">
            <mxPoint x="1000.0000000000001" y="237.5" as="targetPoint" />
          </mxGeometry>
        </mxCell>
        <mxCell id="ycTnqP42rRjcrLO88vXY-11" value="&lt;font style=&quot;font-size: 14px;&quot;&gt;Avançando mesa&lt;/font&gt;" style="rounded=1;whiteSpace=wrap;html=1;arcSize=24;fillColor=#ffffc0;strokeColor=#ff0000;shadow=0;comic=0;labelBackgroundColor=none;fontFamily=Verdana;fontSize=12;fontColor=#000000;align=center;" vertex="1" parent="ycTnqP42rRjcrLO88vXY-3">
          <mxGeometry x="590.14" y="310" width="120" height="60" as="geometry" />
        </mxCell>
        <mxCell id="ycTnqP42rRjcrLO88vXY-13" value="&lt;font style=&quot;font-size: 14px;&quot;&gt;Avançou&lt;/font&gt;" style="edgeStyle=orthogonalEdgeStyle;rounded=0;orthogonalLoop=1;jettySize=auto;html=1;entryX=0.5;entryY=0;entryDx=0;entryDy=0;exitX=0;exitY=0.5;exitDx=0;exitDy=0;" edge="1" parent="ycTnqP42rRjcrLO88vXY-3" source="ycTnqP42rRjcrLO88vXY-11" target="sF7odQbE0kGt0TRowoj6-34">
          <mxGeometry relative="1" as="geometry">
            <mxPoint x="957.17" y="640" as="targetPoint" />
          </mxGeometry>
        </mxCell>
        <mxCell id="sF7odQbE0kGt0TRowoj6-53" value="" style="edgeStyle=orthogonalEdgeStyle;rounded=0;orthogonalLoop=1;jettySize=auto;html=1;" edge="1" parent="ycTnqP42rRjcrLO88vXY-3" source="ycTnqP42rRjcrLO88vXY-14" target="sF7odQbE0kGt0TRowoj6-52">
          <mxGeometry relative="1" as="geometry" />
        </mxCell>
        <mxCell id="sF7odQbE0kGt0TRowoj6-54" value="&lt;font style=&quot;font-size: 14px;&quot;&gt;Concluiu&lt;/font&gt;" style="edgeLabel;html=1;align=center;verticalAlign=middle;resizable=0;points=[];" vertex="1" connectable="0" parent="sF7odQbE0kGt0TRowoj6-53">
          <mxGeometry x="-0.2384" y="3" relative="1" as="geometry">
            <mxPoint x="8" y="1" as="offset" />
          </mxGeometry>
        </mxCell>
        <mxCell id="ycTnqP42rRjcrLO88vXY-14" value="&lt;font style=&quot;font-size: 14px;&quot;&gt;Aguardando primeiro grampeamento&lt;/font&gt;" style="rounded=1;whiteSpace=wrap;html=1;arcSize=24;fillColor=#ffffc0;strokeColor=#ff0000;shadow=0;comic=0;labelBackgroundColor=none;fontFamily=Verdana;fontSize=12;fontColor=#000000;align=center;" vertex="1" parent="ycTnqP42rRjcrLO88vXY-3">
          <mxGeometry x="244.52999999999997" y="480" width="120" height="60" as="geometry" />
        </mxCell>
        <mxCell id="ycTnqP42rRjcrLO88vXY-16" style="edgeStyle=orthogonalEdgeStyle;rounded=0;orthogonalLoop=1;jettySize=auto;html=1;exitX=1;exitY=0.5;exitDx=0;exitDy=0;entryX=1;entryY=0.5;entryDx=0;entryDy=0;" edge="1" parent="ycTnqP42rRjcrLO88vXY-3" source="sF7odQbE0kGt0TRowoj6-34" target="sF7odQbE0kGt0TRowoj6-71">
          <mxGeometry relative="1" as="geometry">
            <mxPoint x="957.17" y="730" as="sourcePoint" />
            <Array as="points">
              <mxPoint x="460" y="410" />
              <mxPoint x="870" y="410" />
              <mxPoint x="870" y="790" />
              <mxPoint x="375" y="790" />
            </Array>
          </mxGeometry>
        </mxCell>
        <mxCell id="G2oVO_wX3OdHmufkCwAz-1" value="&lt;font size=&quot;3&quot;&gt;Sim&lt;/font&gt;" style="edgeLabel;html=1;align=center;verticalAlign=middle;resizable=0;points=[];" vertex="1" connectable="0" parent="ycTnqP42rRjcrLO88vXY-16">
          <mxGeometry x="-0.8338" relative="1" as="geometry">
            <mxPoint as="offset" />
          </mxGeometry>
        </mxCell>
        <mxCell id="ycTnqP42rRjcrLO88vXY-30" style="edgeStyle=orthogonalEdgeStyle;rounded=0;orthogonalLoop=1;jettySize=auto;html=1;exitX=1;exitY=0.5;exitDx=0;exitDy=0;entryX=0.75;entryY=0;entryDx=0;entryDy=0;" edge="1" parent="ycTnqP42rRjcrLO88vXY-3" source="EEh2S-EObB6AVTpfY42e-9" target="_pUTNuSmbBA09sGU6Cl9-4">
          <mxGeometry relative="1" as="geometry">
            <Array as="points">
              <mxPoint x="980" y="907" />
              <mxPoint x="980" y="80" />
              <mxPoint x="135" y="80" />
            </Array>
            <mxPoint x="235.03499999999997" y="125" as="targetPoint" />
          </mxGeometry>
        </mxCell>
        <mxCell id="EEh2S-EObB6AVTpfY42e-12" value="&lt;font style=&quot;font-size: 14px;&quot;&gt;Subiu&lt;/font&gt;" style="edgeLabel;html=1;align=center;verticalAlign=middle;resizable=0;points=[];" vertex="1" connectable="0" parent="ycTnqP42rRjcrLO88vXY-30">
          <mxGeometry x="-0.9829" y="-1" relative="1" as="geometry">
            <mxPoint x="16" as="offset" />
          </mxGeometry>
        </mxCell>
        <mxCell id="ycTnqP42rRjcrLO88vXY-33" value="&lt;font style=&quot;font-size: 14px;&quot;&gt;Não&lt;/font&gt;" style="edgeStyle=orthogonalEdgeStyle;rounded=0;orthogonalLoop=1;jettySize=auto;html=1;exitX=0.5;exitY=0;exitDx=0;exitDy=0;entryX=0;entryY=0.75;entryDx=0;entryDy=0;" edge="1" parent="ycTnqP42rRjcrLO88vXY-3" source="sF7odQbE0kGt0TRowoj6-40" target="ycTnqP42rRjcrLO88vXY-8">
          <mxGeometry relative="1" as="geometry">
            <mxPoint x="865.0000000000001" y="300" as="sourcePoint" />
            <mxPoint x="435.0000000000001" y="210" as="targetPoint" />
            <Array as="points">
              <mxPoint x="285" y="260" />
              <mxPoint x="730" y="260" />
              <mxPoint x="730" y="199" />
            </Array>
          </mxGeometry>
        </mxCell>
        <mxCell id="ycTnqP42rRjcrLO88vXY-35" value="&lt;font style=&quot;font-size: 14px;&quot;&gt;Não&lt;/font&gt;" style="edgeStyle=orthogonalEdgeStyle;rounded=0;orthogonalLoop=1;jettySize=auto;html=1;entryX=1;entryY=0.5;entryDx=0;entryDy=0;exitX=0.5;exitY=1;exitDx=0;exitDy=0;" edge="1" parent="ycTnqP42rRjcrLO88vXY-3" source="sF7odQbE0kGt0TRowoj6-34" target="sF7odQbE0kGt0TRowoj6-40">
          <mxGeometry relative="1" as="geometry">
            <mxPoint x="909.67" y="685" as="sourcePoint" />
            <mxPoint x="864.5300000000001" y="550" as="targetPoint" />
          </mxGeometry>
        </mxCell>
        <mxCell id="ycTnqP42rRjcrLO88vXY-38" value="&lt;font style=&quot;font-size: 14px;&quot;&gt;Aguardando medição&lt;/font&gt;" style="rounded=1;whiteSpace=wrap;html=1;arcSize=24;fillColor=#ffffc0;strokeColor=#ff0000;shadow=0;comic=0;labelBackgroundColor=none;fontFamily=Verdana;fontSize=12;fontColor=#000000;align=center;" vertex="1" parent="ycTnqP42rRjcrLO88vXY-3">
          <mxGeometry x="45" y="310" width="120" height="60" as="geometry" />
        </mxCell>
        <mxCell id="ycTnqP42rRjcrLO88vXY-39" value="&lt;font style=&quot;font-size: 14px;&quot;&gt;Sim&lt;/font&gt;" style="edgeStyle=orthogonalEdgeStyle;rounded=0;orthogonalLoop=1;jettySize=auto;html=1;exitX=0;exitY=0.5;exitDx=0;exitDy=0;entryX=1;entryY=0.5;entryDx=0;entryDy=0;" edge="1" parent="ycTnqP42rRjcrLO88vXY-3" source="sF7odQbE0kGt0TRowoj6-40" target="ycTnqP42rRjcrLO88vXY-38">
          <mxGeometry relative="1" as="geometry">
            <mxPoint x="730.0000000000001" y="495" as="sourcePoint" />
          </mxGeometry>
        </mxCell>
        <mxCell id="ycTnqP42rRjcrLO88vXY-43" value="&lt;font style=&quot;font-size: 14px;&quot;&gt;Mediu&lt;/font&gt;" style="edgeStyle=orthogonalEdgeStyle;rounded=0;orthogonalLoop=1;jettySize=auto;html=1;entryX=0.5;entryY=0;entryDx=0;entryDy=0;" edge="1" parent="ycTnqP42rRjcrLO88vXY-3" source="ycTnqP42rRjcrLO88vXY-38" target="sF7odQbE0kGt0TRowoj6-47">
          <mxGeometry relative="1" as="geometry">
            <mxPoint x="105" y="455" as="targetPoint" />
          </mxGeometry>
        </mxCell>
        <mxCell id="ycTnqP42rRjcrLO88vXY-57" value="" style="edgeStyle=orthogonalEdgeStyle;rounded=0;orthogonalLoop=1;jettySize=auto;html=1;entryX=0.25;entryY=0;entryDx=0;entryDy=0;" edge="1" parent="ycTnqP42rRjcrLO88vXY-3" source="ycTnqP42rRjcrLO88vXY-58" target="_pUTNuSmbBA09sGU6Cl9-4">
          <mxGeometry relative="1" as="geometry">
            <mxPoint x="145.14" y="187.5" as="targetPoint" />
          </mxGeometry>
        </mxCell>
        <mxCell id="g91aPSs5lpn9uq8EI6dF-2" value="&lt;font style=&quot;font-size: 14px;&quot;&gt;Tem&lt;/font&gt;&lt;div&gt;&lt;font style=&quot;font-size: 14px;&quot;&gt;permissão&lt;/font&gt;&lt;/div&gt;" style="edgeLabel;html=1;align=center;verticalAlign=middle;resizable=0;points=[];" vertex="1" connectable="0" parent="ycTnqP42rRjcrLO88vXY-57">
          <mxGeometry x="-0.5608" y="1" relative="1" as="geometry">
            <mxPoint x="9" y="17" as="offset" />
          </mxGeometry>
        </mxCell>
        <mxCell id="ycTnqP42rRjcrLO88vXY-58" value="" style="ellipse;html=1;shape=startState;fillColor=#000000;strokeColor=#ff0000;rounded=1;shadow=0;comic=0;labelBackgroundColor=none;fontFamily=Verdana;fontSize=12;fontColor=#000000;align=center;direction=south;" vertex="1" parent="ycTnqP42rRjcrLO88vXY-3">
          <mxGeometry x="60.139999999999986" y="30" width="30" height="30" as="geometry" />
        </mxCell>
        <mxCell id="_pUTNuSmbBA09sGU6Cl9-1" value="&lt;font style=&quot;font-size: 14px;&quot;&gt;Expandindo&lt;br&gt;Mandril&lt;/font&gt;" style="rounded=1;whiteSpace=wrap;html=1;arcSize=24;fillColor=#ffffc0;strokeColor=#ff0000;shadow=0;comic=0;labelBackgroundColor=none;fontFamily=Verdana;fontSize=12;fontColor=#000000;align=center;" vertex="1" parent="ycTnqP42rRjcrLO88vXY-3">
          <mxGeometry x="380" y="150" width="120" height="60" as="geometry" />
        </mxCell>
        <mxCell id="2S02DCy1i_XCBqCjxzMC-2" style="edgeStyle=orthogonalEdgeStyle;rounded=0;orthogonalLoop=1;jettySize=auto;html=1;exitX=0.5;exitY=1;exitDx=0;exitDy=0;entryX=0.5;entryY=1;entryDx=0;entryDy=0;" edge="1" parent="ycTnqP42rRjcrLO88vXY-3" source="_pUTNuSmbBA09sGU6Cl9-4" target="sF7odQbE0kGt0TRowoj6-4">
          <mxGeometry relative="1" as="geometry">
            <Array as="points">
              <mxPoint x="105" y="240" />
              <mxPoint x="270" y="240" />
            </Array>
          </mxGeometry>
        </mxCell>
        <mxCell id="sF7odQbE0kGt0TRowoj6-43" value="&lt;font style=&quot;font-size: 14px;&quot;&gt;Comando de ciclo&lt;/font&gt;" style="edgeLabel;html=1;align=center;verticalAlign=middle;resizable=0;points=[];" vertex="1" connectable="0" parent="2S02DCy1i_XCBqCjxzMC-2">
          <mxGeometry x="-0.0043" relative="1" as="geometry">
            <mxPoint as="offset" />
          </mxGeometry>
        </mxCell>
        <mxCell id="_pUTNuSmbBA09sGU6Cl9-4" value="&lt;span style=&quot;font-size: 14px;&quot;&gt;Aguardando comando&lt;/span&gt;" style="rounded=1;whiteSpace=wrap;html=1;arcSize=24;fillColor=#ffffc0;strokeColor=#ff0000;shadow=0;comic=0;labelBackgroundColor=none;fontFamily=Verdana;fontSize=12;fontColor=#000000;align=center;" vertex="1" parent="ycTnqP42rRjcrLO88vXY-3">
          <mxGeometry x="44.999999999999986" y="150" width="120" height="60" as="geometry" />
        </mxCell>
        <mxCell id="sF7odQbE0kGt0TRowoj6-19" style="edgeStyle=orthogonalEdgeStyle;rounded=0;orthogonalLoop=1;jettySize=auto;html=1;exitX=1;exitY=0.5;exitDx=0;exitDy=0;entryX=0;entryY=0.5;entryDx=0;entryDy=0;" edge="1" parent="ycTnqP42rRjcrLO88vXY-3" source="sF7odQbE0kGt0TRowoj6-4" target="_pUTNuSmbBA09sGU6Cl9-1">
          <mxGeometry relative="1" as="geometry" />
        </mxCell>
        <mxCell id="sF7odQbE0kGt0TRowoj6-20" value="&lt;font style=&quot;font-size: 14px;&quot;&gt;Sim&lt;/font&gt;" style="edgeLabel;html=1;align=center;verticalAlign=middle;resizable=0;points=[];" vertex="1" connectable="0" parent="sF7odQbE0kGt0TRowoj6-19">
          <mxGeometry x="-0.1493" y="3" relative="1" as="geometry">
            <mxPoint x="-1" as="offset" />
          </mxGeometry>
        </mxCell>
        <mxCell id="sF7odQbE0kGt0TRowoj6-4" value="&lt;font style=&quot;font-size: 14px;&quot;&gt;Robô&amp;nbsp;&lt;/font&gt;&lt;div&gt;&lt;font size=&quot;3&quot;&gt;fora?&lt;/font&gt;&lt;/div&gt;" style="rhombus;whiteSpace=wrap;html=1;" vertex="1" parent="ycTnqP42rRjcrLO88vXY-3">
          <mxGeometry x="230" y="137.5" width="80" height="82.5" as="geometry" />
        </mxCell>
        <mxCell id="sF7odQbE0kGt0TRowoj6-26" style="edgeStyle=orthogonalEdgeStyle;rounded=0;orthogonalLoop=1;jettySize=auto;html=1;exitX=0;exitY=0.5;exitDx=0;exitDy=0;entryX=1;entryY=0.5;entryDx=0;entryDy=0;" edge="1" parent="ycTnqP42rRjcrLO88vXY-3" source="sF7odQbE0kGt0TRowoj6-25" target="ycTnqP42rRjcrLO88vXY-11">
          <mxGeometry relative="1" as="geometry">
            <mxPoint x="1029.67" y="440" as="sourcePoint" />
          </mxGeometry>
        </mxCell>
        <mxCell id="sF7odQbE0kGt0TRowoj6-46" value="&lt;font style=&quot;font-size: 14px;&quot;&gt;Em&lt;/font&gt;&lt;div&gt;&lt;font size=&quot;3&quot; style=&quot;&quot;&gt;posição&lt;/font&gt;&lt;/div&gt;" style="edgeLabel;html=1;align=center;verticalAlign=middle;resizable=0;points=[];" vertex="1" connectable="0" parent="sF7odQbE0kGt0TRowoj6-26">
          <mxGeometry x="-0.0331" y="2" relative="1" as="geometry">
            <mxPoint as="offset" />
          </mxGeometry>
        </mxCell>
        <mxCell id="sF7odQbE0kGt0TRowoj6-25" value="&lt;div&gt;&lt;span style=&quot;font-size: 14px;&quot;&gt;Aguardando grampeamento e esteira em posição&lt;/span&gt;&lt;/div&gt;" style="rounded=1;whiteSpace=wrap;html=1;arcSize=24;fillColor=#ffffc0;strokeColor=#ff0000;shadow=0;comic=0;labelBackgroundColor=none;fontFamily=Verdana;fontSize=12;fontColor=#000000;align=center;" vertex="1" parent="ycTnqP42rRjcrLO88vXY-3">
          <mxGeometry x="800" y="300" width="120" height="80" as="geometry" />
        </mxCell>
        <mxCell id="sF7odQbE0kGt0TRowoj6-34" value="&lt;font style=&quot;font-size: 14px;&quot;&gt;Ciclo limpa mesa ativo?&lt;/font&gt;" style="rhombus;whiteSpace=wrap;html=1;fontColor=#000000;fillColor=#ffffc0;strokeColor=#ff0000;direction=south;" vertex="1" parent="ycTnqP42rRjcrLO88vXY-3">
          <mxGeometry x="410.14" y="290" width="100" height="100" as="geometry" />
        </mxCell>
        <mxCell id="sF7odQbE0kGt0TRowoj6-38" style="edgeStyle=orthogonalEdgeStyle;rounded=0;orthogonalLoop=1;jettySize=auto;html=1;exitX=0.5;exitY=0;exitDx=0;exitDy=0;entryX=1;entryY=0.5;entryDx=0;entryDy=0;" edge="1" parent="ycTnqP42rRjcrLO88vXY-3" source="sF7odQbE0kGt0TRowoj6-37" target="sF7odQbE0kGt0TRowoj6-25">
          <mxGeometry relative="1" as="geometry">
            <mxPoint x="990.14" y="200" as="targetPoint" />
            <Array as="points">
              <mxPoint x="650" y="109" />
              <mxPoint x="960" y="109" />
              <mxPoint x="960" y="340" />
            </Array>
          </mxGeometry>
        </mxCell>
        <mxCell id="sF7odQbE0kGt0TRowoj6-39" value="&lt;font style=&quot;font-size: 14px;&quot;&gt;Sim&lt;/font&gt;" style="edgeLabel;html=1;align=center;verticalAlign=middle;resizable=0;points=[];" vertex="1" connectable="0" parent="sF7odQbE0kGt0TRowoj6-38">
          <mxGeometry x="-0.6962" y="-2" relative="1" as="geometry">
            <mxPoint x="7" y="-3" as="offset" />
          </mxGeometry>
        </mxCell>
        <mxCell id="sF7odQbE0kGt0TRowoj6-37" value="&lt;font style=&quot;font-size: 14px;&quot;&gt;Ciclo limpa mesa ativo?&lt;/font&gt;" style="rhombus;whiteSpace=wrap;html=1;fontColor=#000000;fillColor=#ffffc0;strokeColor=#ff0000;" vertex="1" parent="ycTnqP42rRjcrLO88vXY-3">
          <mxGeometry x="600.14" y="128.75" width="100" height="100" as="geometry" />
        </mxCell>
        <mxCell id="sF7odQbE0kGt0TRowoj6-40" value="&lt;font style=&quot;font-size: 14px;&quot;&gt;Mandril em posição?&lt;/font&gt;" style="rhombus;whiteSpace=wrap;html=1;fontColor=#000000;fillColor=#ffffc0;strokeColor=#ff0000;" vertex="1" parent="ycTnqP42rRjcrLO88vXY-3">
          <mxGeometry x="234.53" y="290" width="100" height="100" as="geometry" />
        </mxCell>
        <mxCell id="sF7odQbE0kGt0TRowoj6-44" style="edgeStyle=orthogonalEdgeStyle;rounded=0;orthogonalLoop=1;jettySize=auto;html=1;exitX=0.5;exitY=0;exitDx=0;exitDy=0;entryX=0;entryY=0.5;entryDx=0;entryDy=0;" edge="1" parent="ycTnqP42rRjcrLO88vXY-3" source="sF7odQbE0kGt0TRowoj6-4" target="sF7odQbE0kGt0TRowoj6-4">
          <mxGeometry relative="1" as="geometry">
            <Array as="points">
              <mxPoint x="270" y="118" />
              <mxPoint x="210" y="118" />
              <mxPoint x="210" y="179" />
            </Array>
          </mxGeometry>
        </mxCell>
        <mxCell id="sF7odQbE0kGt0TRowoj6-45" value="&lt;font style=&quot;font-size: 14px;&quot;&gt;Não&lt;/font&gt;" style="edgeLabel;html=1;align=center;verticalAlign=middle;resizable=0;points=[];" vertex="1" connectable="0" parent="sF7odQbE0kGt0TRowoj6-44">
          <mxGeometry x="0.2873" y="2" relative="1" as="geometry">
            <mxPoint as="offset" />
          </mxGeometry>
        </mxCell>
        <mxCell id="sF7odQbE0kGt0TRowoj6-50" style="edgeStyle=orthogonalEdgeStyle;rounded=0;orthogonalLoop=1;jettySize=auto;html=1;exitX=1;exitY=0.5;exitDx=0;exitDy=0;entryX=0;entryY=0.5;entryDx=0;entryDy=0;" edge="1" parent="ycTnqP42rRjcrLO88vXY-3" source="sF7odQbE0kGt0TRowoj6-47" target="ycTnqP42rRjcrLO88vXY-14">
          <mxGeometry relative="1" as="geometry" />
        </mxCell>
        <mxCell id="sF7odQbE0kGt0TRowoj6-51" value="&lt;font style=&quot;font-size: 14px;&quot;&gt;Não&lt;/font&gt;" style="edgeLabel;html=1;align=center;verticalAlign=middle;resizable=0;points=[];" vertex="1" connectable="0" parent="sF7odQbE0kGt0TRowoj6-50">
          <mxGeometry x="-0.25" y="-1" relative="1" as="geometry">
            <mxPoint x="1" as="offset" />
          </mxGeometry>
        </mxCell>
        <mxCell id="TWdCVKWopcKIRO5a3oCG-1" style="edgeStyle=orthogonalEdgeStyle;rounded=0;orthogonalLoop=1;jettySize=auto;html=1;exitX=0.5;exitY=1;exitDx=0;exitDy=0;entryX=0.5;entryY=0;entryDx=0;entryDy=0;" edge="1" parent="ycTnqP42rRjcrLO88vXY-3" source="sF7odQbE0kGt0TRowoj6-47" target="sF7odQbE0kGt0TRowoj6-68">
          <mxGeometry relative="1" as="geometry" />
        </mxCell>
        <mxCell id="TWdCVKWopcKIRO5a3oCG-2" value="&lt;font style=&quot;font-size: 14px;&quot;&gt;Sim&lt;/font&gt;" style="edgeLabel;html=1;align=center;verticalAlign=middle;resizable=0;points=[];" vertex="1" connectable="0" parent="TWdCVKWopcKIRO5a3oCG-1">
          <mxGeometry x="-0.3082" y="-1" relative="1" as="geometry">
            <mxPoint as="offset" />
          </mxGeometry>
        </mxCell>
        <mxCell id="sF7odQbE0kGt0TRowoj6-47" value="&lt;font style=&quot;font-size: 14px;&quot;&gt;Necessário correção?&lt;/font&gt;" style="rhombus;whiteSpace=wrap;html=1;fontColor=#000000;fillColor=#ffffc0;strokeColor=#ff0000;" vertex="1" parent="ycTnqP42rRjcrLO88vXY-3">
          <mxGeometry x="54.53" y="460" width="100" height="100" as="geometry" />
        </mxCell>
        <mxCell id="sF7odQbE0kGt0TRowoj6-56" value="" style="edgeStyle=orthogonalEdgeStyle;rounded=0;orthogonalLoop=1;jettySize=auto;html=1;" edge="1" parent="ycTnqP42rRjcrLO88vXY-3" source="sF7odQbE0kGt0TRowoj6-52" target="sF7odQbE0kGt0TRowoj6-55">
          <mxGeometry relative="1" as="geometry" />
        </mxCell>
        <mxCell id="sF7odQbE0kGt0TRowoj6-57" value="&lt;span style=&quot;font-size: 14px;&quot;&gt;Em&lt;/span&gt;&lt;div&gt;&lt;span style=&quot;font-size: 14px;&quot;&gt;posição&lt;/span&gt;&lt;/div&gt;" style="edgeLabel;html=1;align=center;verticalAlign=middle;resizable=0;points=[];" vertex="1" connectable="0" parent="sF7odQbE0kGt0TRowoj6-56">
          <mxGeometry x="-0.1412" y="3" relative="1" as="geometry">
            <mxPoint as="offset" />
          </mxGeometry>
        </mxCell>
        <mxCell id="sF7odQbE0kGt0TRowoj6-52" value="&lt;span style=&quot;font-size: 14px;&quot;&gt;Posicionando mandril para 2° grampeamento&lt;/span&gt;" style="rounded=1;whiteSpace=wrap;html=1;arcSize=24;fillColor=#ffffc0;strokeColor=#ff0000;shadow=0;comic=0;labelBackgroundColor=none;fontFamily=Verdana;fontSize=12;fontColor=#000000;align=center;" vertex="1" parent="ycTnqP42rRjcrLO88vXY-3">
          <mxGeometry x="459.99999999999994" y="480" width="120" height="60" as="geometry" />
        </mxCell>
        <mxCell id="sF7odQbE0kGt0TRowoj6-61" value="" style="edgeStyle=orthogonalEdgeStyle;rounded=0;orthogonalLoop=1;jettySize=auto;html=1;" edge="1" parent="ycTnqP42rRjcrLO88vXY-3" source="sF7odQbE0kGt0TRowoj6-55" target="sF7odQbE0kGt0TRowoj6-58">
          <mxGeometry relative="1" as="geometry" />
        </mxCell>
        <mxCell id="sF7odQbE0kGt0TRowoj6-62" value="&lt;font style=&quot;font-size: 14px;&quot;&gt;Concluiu&lt;/font&gt;" style="edgeLabel;html=1;align=center;verticalAlign=middle;resizable=0;points=[];" vertex="1" connectable="0" parent="sF7odQbE0kGt0TRowoj6-61">
          <mxGeometry x="-0.051" relative="1" as="geometry">
            <mxPoint as="offset" />
          </mxGeometry>
        </mxCell>
        <mxCell id="sF7odQbE0kGt0TRowoj6-55" value="&lt;span style=&quot;font-size: 14px;&quot;&gt;Aguardando segundo grampeamento&lt;/span&gt;" style="rounded=1;whiteSpace=wrap;html=1;arcSize=24;fillColor=#ffffc0;strokeColor=#ff0000;shadow=0;comic=0;labelBackgroundColor=none;fontFamily=Verdana;fontSize=12;fontColor=#000000;align=center;" vertex="1" parent="ycTnqP42rRjcrLO88vXY-3">
          <mxGeometry x="685" y="480" width="120" height="60" as="geometry" />
        </mxCell>
        <mxCell id="sF7odQbE0kGt0TRowoj6-60" value="" style="edgeStyle=orthogonalEdgeStyle;rounded=0;orthogonalLoop=1;jettySize=auto;html=1;" edge="1" parent="ycTnqP42rRjcrLO88vXY-3" source="sF7odQbE0kGt0TRowoj6-58" target="sF7odQbE0kGt0TRowoj6-59">
          <mxGeometry relative="1" as="geometry" />
        </mxCell>
        <mxCell id="sF7odQbE0kGt0TRowoj6-63" value="&lt;font style=&quot;font-size: 14px;&quot;&gt;Retraiu&lt;/font&gt;" style="edgeLabel;html=1;align=center;verticalAlign=middle;resizable=0;points=[];" vertex="1" connectable="0" parent="sF7odQbE0kGt0TRowoj6-60">
          <mxGeometry x="-0.1171" y="2" relative="1" as="geometry">
            <mxPoint y="-3" as="offset" />
          </mxGeometry>
        </mxCell>
        <mxCell id="sF7odQbE0kGt0TRowoj6-58" value="&lt;span style=&quot;font-size: 14px;&quot;&gt;Retraindo mandril&lt;/span&gt;&lt;div&gt;&lt;span style=&quot;font-size: 14px;&quot;&gt;dentro&lt;/span&gt;&lt;/div&gt;" style="rounded=1;whiteSpace=wrap;html=1;arcSize=24;fillColor=#ffffc0;strokeColor=#ff0000;shadow=0;comic=0;labelBackgroundColor=none;fontFamily=Verdana;fontSize=12;fontColor=#000000;align=center;" vertex="1" parent="ycTnqP42rRjcrLO88vXY-3">
          <mxGeometry x="685.47" y="631.76" width="120" height="60" as="geometry" />
        </mxCell>
        <mxCell id="sF7odQbE0kGt0TRowoj6-66" value="" style="edgeStyle=orthogonalEdgeStyle;rounded=0;orthogonalLoop=1;jettySize=auto;html=1;" edge="1" parent="ycTnqP42rRjcrLO88vXY-3" source="sF7odQbE0kGt0TRowoj6-59" target="sF7odQbE0kGt0TRowoj6-65">
          <mxGeometry relative="1" as="geometry" />
        </mxCell>
        <mxCell id="sF7odQbE0kGt0TRowoj6-67" value="&lt;font style=&quot;font-size: 14px;&quot;&gt;Retirou&lt;/font&gt;" style="edgeLabel;html=1;align=center;verticalAlign=middle;resizable=0;points=[];" vertex="1" connectable="0" parent="sF7odQbE0kGt0TRowoj6-66">
          <mxGeometry x="0.236" relative="1" as="geometry">
            <mxPoint x="10" as="offset" />
          </mxGeometry>
        </mxCell>
        <mxCell id="sF7odQbE0kGt0TRowoj6-59" value="&lt;span style=&quot;font-size: 14px;&quot;&gt;Aguardando grampeamento&amp;nbsp; retirar o estator&lt;/span&gt;" style="rounded=1;whiteSpace=wrap;html=1;arcSize=24;fillColor=#ffffc0;strokeColor=#ff0000;shadow=0;comic=0;labelBackgroundColor=none;fontFamily=Verdana;fontSize=12;fontColor=#000000;align=center;" vertex="1" parent="ycTnqP42rRjcrLO88vXY-3">
          <mxGeometry x="460.47" y="631.76" width="120" height="60" as="geometry" />
        </mxCell>
        <mxCell id="sF7odQbE0kGt0TRowoj6-69" value="" style="edgeStyle=orthogonalEdgeStyle;rounded=0;orthogonalLoop=1;jettySize=auto;html=1;entryX=1;entryY=0.5;entryDx=0;entryDy=0;" edge="1" parent="ycTnqP42rRjcrLO88vXY-3" source="sF7odQbE0kGt0TRowoj6-65" target="sF7odQbE0kGt0TRowoj6-68">
          <mxGeometry relative="1" as="geometry" />
        </mxCell>
        <mxCell id="sF7odQbE0kGt0TRowoj6-70" value="&lt;font style=&quot;font-size: 14px;&quot;&gt;Não&lt;/font&gt;" style="edgeLabel;html=1;align=center;verticalAlign=middle;resizable=0;points=[];" vertex="1" connectable="0" parent="sF7odQbE0kGt0TRowoj6-69">
          <mxGeometry x="-0.1956" relative="1" as="geometry">
            <mxPoint as="offset" />
          </mxGeometry>
        </mxCell>
        <mxCell id="sF7odQbE0kGt0TRowoj6-72" value="" style="edgeStyle=orthogonalEdgeStyle;rounded=0;orthogonalLoop=1;jettySize=auto;html=1;" edge="1" parent="ycTnqP42rRjcrLO88vXY-3" source="sF7odQbE0kGt0TRowoj6-65" target="sF7odQbE0kGt0TRowoj6-71">
          <mxGeometry relative="1" as="geometry" />
        </mxCell>
        <mxCell id="sF7odQbE0kGt0TRowoj6-73" value="&lt;font style=&quot;font-size: 14px;&quot;&gt;Sim&lt;/font&gt;" style="edgeLabel;html=1;align=center;verticalAlign=middle;resizable=0;points=[];" vertex="1" connectable="0" parent="sF7odQbE0kGt0TRowoj6-72">
          <mxGeometry x="-0.15" y="-1" relative="1" as="geometry">
            <mxPoint as="offset" />
          </mxGeometry>
        </mxCell>
        <mxCell id="sF7odQbE0kGt0TRowoj6-65" value="&lt;font style=&quot;font-size: 14px;&quot;&gt;Tem estator&lt;/font&gt;&lt;div&gt;&lt;font style=&quot;font-size: 14px;&quot;&gt;na saída?&lt;/font&gt;&lt;/div&gt;" style="rhombus;whiteSpace=wrap;html=1;fontColor=#000000;fillColor=#ffffc0;strokeColor=#ff0000;" vertex="1" parent="ycTnqP42rRjcrLO88vXY-3">
          <mxGeometry x="265" y="611.76" width="100" height="100" as="geometry" />
        </mxCell>
        <mxCell id="A_yOtNk_mS2O692PWNrZ-4" style="edgeStyle=orthogonalEdgeStyle;rounded=0;orthogonalLoop=1;jettySize=auto;html=1;exitX=0.5;exitY=1;exitDx=0;exitDy=0;entryX=0.5;entryY=0;entryDx=0;entryDy=0;" edge="1" parent="ycTnqP42rRjcrLO88vXY-3" source="sF7odQbE0kGt0TRowoj6-68" target="A_yOtNk_mS2O692PWNrZ-3">
          <mxGeometry relative="1" as="geometry" />
        </mxCell>
        <mxCell id="A_yOtNk_mS2O692PWNrZ-5" value="&lt;font style=&quot;font-size: 14px;&quot;&gt;Em posição&lt;/font&gt;" style="edgeLabel;html=1;align=center;verticalAlign=middle;resizable=0;points=[];" vertex="1" connectable="0" parent="A_yOtNk_mS2O692PWNrZ-4">
          <mxGeometry x="-0.5893" y="-1" relative="1" as="geometry">
            <mxPoint x="1" y="23" as="offset" />
          </mxGeometry>
        </mxCell>
        <mxCell id="sF7odQbE0kGt0TRowoj6-68" value="&lt;span style=&quot;font-size: 14px;&quot;&gt;Aguardando grampeamento&amp;nbsp; e robô em posição&lt;/span&gt;" style="rounded=1;whiteSpace=wrap;html=1;arcSize=24;fillColor=#ffffc0;strokeColor=#ff0000;shadow=0;comic=0;labelBackgroundColor=none;fontFamily=Verdana;fontSize=12;fontColor=#000000;align=center;" vertex="1" parent="ycTnqP42rRjcrLO88vXY-3">
          <mxGeometry x="45.47" y="619.26" width="120" height="85" as="geometry" />
        </mxCell>
        <mxCell id="A_yOtNk_mS2O692PWNrZ-1" style="edgeStyle=orthogonalEdgeStyle;rounded=0;orthogonalLoop=1;jettySize=auto;html=1;exitX=0;exitY=0.5;exitDx=0;exitDy=0;entryX=1;entryY=0.75;entryDx=0;entryDy=0;" edge="1" parent="ycTnqP42rRjcrLO88vXY-3" source="sF7odQbE0kGt0TRowoj6-71" target="sF7odQbE0kGt0TRowoj6-68">
          <mxGeometry relative="1" as="geometry" />
        </mxCell>
        <mxCell id="A_yOtNk_mS2O692PWNrZ-2" value="&lt;font style=&quot;font-size: 14px;&quot;&gt;Retirou&lt;/font&gt;" style="edgeLabel;html=1;align=center;verticalAlign=middle;resizable=0;points=[];" vertex="1" connectable="0" parent="A_yOtNk_mS2O692PWNrZ-1">
          <mxGeometry x="-0.0241" y="-2" relative="1" as="geometry">
            <mxPoint as="offset" />
          </mxGeometry>
        </mxCell>
        <mxCell id="sF7odQbE0kGt0TRowoj6-71" value="&lt;span style=&quot;font-size: 14px;&quot;&gt;Aguardando esteira retirar o estator&lt;/span&gt;" style="rounded=1;whiteSpace=wrap;html=1;arcSize=24;fillColor=#ffffc0;strokeColor=#ff0000;shadow=0;comic=0;labelBackgroundColor=none;fontFamily=Verdana;fontSize=12;fontColor=#000000;align=center;" vertex="1" parent="ycTnqP42rRjcrLO88vXY-3">
          <mxGeometry x="254.99999999999997" y="761.76" width="120" height="60" as="geometry" />
        </mxCell>
        <mxCell id="A_yOtNk_mS2O692PWNrZ-7" style="edgeStyle=orthogonalEdgeStyle;rounded=0;orthogonalLoop=1;jettySize=auto;html=1;exitX=1;exitY=0.5;exitDx=0;exitDy=0;entryX=0;entryY=0.5;entryDx=0;entryDy=0;" edge="1" parent="ycTnqP42rRjcrLO88vXY-3" source="A_yOtNk_mS2O692PWNrZ-3" target="A_yOtNk_mS2O692PWNrZ-6">
          <mxGeometry relative="1" as="geometry" />
        </mxCell>
        <mxCell id="EEh2S-EObB6AVTpfY42e-1" value="&lt;font style=&quot;font-size: 14px;&quot;&gt;Em&lt;/font&gt;&lt;div&gt;&lt;font style=&quot;font-size: 14px;&quot;&gt;posição&lt;/font&gt;&lt;/div&gt;" style="edgeLabel;html=1;align=center;verticalAlign=middle;resizable=0;points=[];" vertex="1" connectable="0" parent="A_yOtNk_mS2O692PWNrZ-7">
          <mxGeometry x="-0.1948" y="2" relative="1" as="geometry">
            <mxPoint as="offset" />
          </mxGeometry>
        </mxCell>
        <mxCell id="A_yOtNk_mS2O692PWNrZ-3" value="&lt;span style=&quot;font-size: 14px;&quot;&gt;Recuando mesa&lt;/span&gt;&lt;div&gt;&lt;span style=&quot;font-size: 14px;&quot;&gt;e posicionando mandril para entrada&lt;/span&gt;&lt;/div&gt;" style="rounded=1;whiteSpace=wrap;html=1;arcSize=24;fillColor=#ffffc0;strokeColor=#ff0000;shadow=0;comic=0;labelBackgroundColor=none;fontFamily=Verdana;fontSize=12;fontColor=#000000;align=center;" vertex="1" parent="ycTnqP42rRjcrLO88vXY-3">
          <mxGeometry x="44.53" y="856.76" width="120" height="100" as="geometry" />
        </mxCell>
        <mxCell id="EEh2S-EObB6AVTpfY42e-4" value="" style="edgeStyle=orthogonalEdgeStyle;rounded=0;orthogonalLoop=1;jettySize=auto;html=1;" edge="1" parent="ycTnqP42rRjcrLO88vXY-3" source="A_yOtNk_mS2O692PWNrZ-6" target="EEh2S-EObB6AVTpfY42e-3">
          <mxGeometry relative="1" as="geometry" />
        </mxCell>
        <mxCell id="EEh2S-EObB6AVTpfY42e-5" value="&lt;font style=&quot;font-size: 14px;&quot;&gt;Retraiu&lt;/font&gt;" style="edgeLabel;html=1;align=center;verticalAlign=middle;resizable=0;points=[];" vertex="1" connectable="0" parent="EEh2S-EObB6AVTpfY42e-4">
          <mxGeometry x="-0.35" y="2" relative="1" as="geometry">
            <mxPoint x="14" y="1" as="offset" />
          </mxGeometry>
        </mxCell>
        <mxCell id="A_yOtNk_mS2O692PWNrZ-6" value="&lt;span style=&quot;font-size: 14px;&quot;&gt;Retraindo mandril na&lt;/span&gt;&lt;div&gt;&lt;span style=&quot;font-size: 14px;&quot;&gt;entrada&lt;/span&gt;&lt;/div&gt;" style="rounded=1;whiteSpace=wrap;html=1;arcSize=24;fillColor=#ffffc0;strokeColor=#ff0000;shadow=0;comic=0;labelBackgroundColor=none;fontFamily=Verdana;fontSize=12;fontColor=#000000;align=center;" vertex="1" parent="ycTnqP42rRjcrLO88vXY-3">
          <mxGeometry x="254.99999999999997" y="876.76" width="120" height="60" as="geometry" />
        </mxCell>
        <mxCell id="EEh2S-EObB6AVTpfY42e-7" value="" style="edgeStyle=orthogonalEdgeStyle;rounded=0;orthogonalLoop=1;jettySize=auto;html=1;" edge="1" parent="ycTnqP42rRjcrLO88vXY-3" source="EEh2S-EObB6AVTpfY42e-3" target="EEh2S-EObB6AVTpfY42e-6">
          <mxGeometry relative="1" as="geometry" />
        </mxCell>
        <mxCell id="EEh2S-EObB6AVTpfY42e-8" value="&lt;font style=&quot;font-size: 14px;&quot;&gt;Sim&lt;/font&gt;" style="edgeLabel;html=1;align=center;verticalAlign=middle;resizable=0;points=[];" vertex="1" connectable="0" parent="EEh2S-EObB6AVTpfY42e-7">
          <mxGeometry x="0.0435" y="1" relative="1" as="geometry">
            <mxPoint x="-6" as="offset" />
          </mxGeometry>
        </mxCell>
        <mxCell id="TWdCVKWopcKIRO5a3oCG-3" style="edgeStyle=orthogonalEdgeStyle;rounded=0;orthogonalLoop=1;jettySize=auto;html=1;exitX=0.5;exitY=0;exitDx=0;exitDy=0;entryX=0.5;entryY=0;entryDx=0;entryDy=0;" edge="1" parent="ycTnqP42rRjcrLO88vXY-3" source="EEh2S-EObB6AVTpfY42e-3" target="EEh2S-EObB6AVTpfY42e-9">
          <mxGeometry relative="1" as="geometry" />
        </mxCell>
        <mxCell id="TWdCVKWopcKIRO5a3oCG-4" value="&lt;font style=&quot;font-size: 14px;&quot;&gt;Não&lt;/font&gt;" style="edgeLabel;html=1;align=center;verticalAlign=middle;resizable=0;points=[];" vertex="1" connectable="0" parent="TWdCVKWopcKIRO5a3oCG-3">
          <mxGeometry x="-0.6046" y="2" relative="1" as="geometry">
            <mxPoint x="10" as="offset" />
          </mxGeometry>
        </mxCell>
        <mxCell id="EEh2S-EObB6AVTpfY42e-3" value="&lt;font style=&quot;font-size: 14px;&quot;&gt;Tem estator&lt;/font&gt;&lt;div&gt;&lt;font style=&quot;font-size: 14px;&quot;&gt;nas facas?&lt;/font&gt;&lt;/div&gt;" style="rhombus;whiteSpace=wrap;html=1;fontColor=#000000;fillColor=#ffffc0;strokeColor=#ff0000;" vertex="1" parent="ycTnqP42rRjcrLO88vXY-3">
          <mxGeometry x="450.14000000000004" y="856.76" width="100" height="100" as="geometry" />
        </mxCell>
        <mxCell id="EEh2S-EObB6AVTpfY42e-10" value="" style="edgeStyle=orthogonalEdgeStyle;rounded=0;orthogonalLoop=1;jettySize=auto;html=1;" edge="1" parent="ycTnqP42rRjcrLO88vXY-3" source="EEh2S-EObB6AVTpfY42e-6" target="EEh2S-EObB6AVTpfY42e-9">
          <mxGeometry relative="1" as="geometry" />
        </mxCell>
        <mxCell id="EEh2S-EObB6AVTpfY42e-11" value="&lt;font style=&quot;font-size: 14px;&quot;&gt;Soltou&lt;/font&gt;" style="edgeLabel;html=1;align=center;verticalAlign=middle;resizable=0;points=[];" vertex="1" connectable="0" parent="EEh2S-EObB6AVTpfY42e-10">
          <mxGeometry x="-0.4044" y="2" relative="1" as="geometry">
            <mxPoint x="10" y="1" as="offset" />
          </mxGeometry>
        </mxCell>
        <mxCell id="EEh2S-EObB6AVTpfY42e-6" value="&lt;span style=&quot;font-size: 14px;&quot;&gt;Aguardando soltar estator&lt;/span&gt;" style="rounded=1;whiteSpace=wrap;html=1;arcSize=24;fillColor=#ffffc0;strokeColor=#ff0000;shadow=0;comic=0;labelBackgroundColor=none;fontFamily=Verdana;fontSize=12;fontColor=#000000;align=center;" vertex="1" parent="ycTnqP42rRjcrLO88vXY-3">
          <mxGeometry x="610.47" y="875.9" width="120" height="60" as="geometry" />
        </mxCell>
        <mxCell id="EEh2S-EObB6AVTpfY42e-9" value="&lt;span style=&quot;font-size: 14px;&quot;&gt;Aguardando subir grampeamento&lt;/span&gt;" style="rounded=1;whiteSpace=wrap;html=1;arcSize=24;fillColor=#ffffc0;strokeColor=#ff0000;shadow=0;comic=0;labelBackgroundColor=none;fontFamily=Verdana;fontSize=12;fontColor=#000000;align=center;" vertex="1" parent="ycTnqP42rRjcrLO88vXY-3">
          <mxGeometry x="800.47" y="876.76" width="120" height="60" as="geometry" />
        </mxCell>
        <mxCell id="H0cdZQ8AC8tXuJqIPslH-1" style="edgeStyle=orthogonalEdgeStyle;rounded=0;orthogonalLoop=1;jettySize=auto;html=1;exitX=0.25;exitY=0;exitDx=0;exitDy=0;entryX=1;entryY=0.5;entryDx=0;entryDy=0;" edge="1" parent="1" target="H0cdZQ8AC8tXuJqIPslH-3" source="ycTnqP42rRjcrLO88vXY-3">
          <mxGeometry relative="1" as="geometry">
            <mxPoint x="345" y="80" as="sourcePoint" />
          </mxGeometry>
        </mxCell>
        <mxCell id="H0cdZQ8AC8tXuJqIPslH-2" value="&lt;font style=&quot;font-size: 14px;&quot;&gt;Sem permissão&lt;/font&gt;&lt;div&gt;&lt;font style=&quot;font-size: 14px;&quot;&gt;para ciclo&lt;/font&gt;&lt;/div&gt;" style="edgeLabel;html=1;align=center;verticalAlign=middle;resizable=0;points=[];" vertex="1" connectable="0" parent="H0cdZQ8AC8tXuJqIPslH-1">
          <mxGeometry x="0.5481" y="2" relative="1" as="geometry">
            <mxPoint x="47" y="-2" as="offset" />
          </mxGeometry>
        </mxCell>
        <mxCell id="H0cdZQ8AC8tXuJqIPslH-3" value="" style="ellipse;html=1;shape=endState;fillColor=#000000;strokeColor=#ff0000;" vertex="1" parent="1">
          <mxGeometry x="120" y="40" width="30" height="30" as="geometry" />
        </mxCell>
      </root>
    </mxGraphModel>
  </diagram>
</mxfile>
